<?xml version="1.0" standalone="no"?>
<!DOCTYPE svg PUBLIC "-//W3C//DTD SVG 1.1//EN" "http://www.w3.org/Graphics/SVG/1.1/DTD/svg11.dtd" >
<svg xmlns="http://www.w3.org/2000/svg" xmlns:xlink="http://www.w3.org/1999/xlink" version="1.1">
<metadata></metadata>
<defs>
<font id="antipasto_prodemibold" horiz-adv-x="1063" >
<font-face units-per-em="2048" ascent="1638" descent="-410" />
<missing-glyph horiz-adv-x="460" />
<glyph unicode="&#xfb00;" horiz-adv-x="1238" d="M16 862q0 43 29.5 72t72.5 29h67v53v4q1 137 95 229q89 86 231 86v-1q42 -2 68.5 -28.5t26.5 -66.5q0 -39 -26 -68q-28 -27 -68 -32h-1q-53 0 -87 -36q-35 -36 -35 -87v-53h94q44 0 74 -29t30 -72t-30 -73t-74 -30h-94v-655q0 -42 -30 -72q-31 -31 -71 -31q-41 0 -72 31 t-31 72v655h-67q-43 0 -72 31q-30 35 -30 72zM635 862q0 42 30 72q29 29 72 29h67v49q0 144 91 233q85 85 223 90h11q43 -2 70 -28t27 -68q0 -40 -27.5 -68.5t-68.5 -31.5h-5q-46 -1 -83 -38q-34 -34 -34 -85v-53h95q44 0 73 -29t29 -72t-29 -72q-31 -31 -73 -31h-95v-655 q0 -43 -29 -72q-31 -31 -73 -31q-40 0 -71 31t-31 72v655h-67q-43 0 -72 31q-30 35 -30 72z" />
<glyph unicode="&#xfb01;" horiz-adv-x="1027" d="M16 862q0 43 29.5 72t72.5 29h67v57q1 137 93 227q86 83 221 88h12v-1q42 -2 68.5 -28.5t26.5 -66.5q0 -39 -26 -68q-28 -27 -68 -32h-1q-53 0 -85 -35q-35 -35 -37 -84v-57h94q44 0 74 -29t30 -72t-30 -73t-74 -30h-94v-655q0 -42 -30 -72q-31 -31 -71 -31q-41 0 -72 31 t-31 72v655h-67q-43 0 -72 31q-30 35 -30 72zM710 1176q0 48 32 80q33 33 80 33q48 0 81 -33q34 -34 34 -80t-34 -80q-33 -33 -81 -33q-47 0 -80 33q-32 32 -32 80zM721 101v762q0 44 31 73q35 30 73 30q42 0 71 -30t29 -73v-762q0 -43 -29 -72t-72 -29q-37 0 -72 30 q-31 29 -31 71z" />
<glyph unicode="&#xfb03;" horiz-adv-x="1645" d="M16 862q0 43 29.5 72t72.5 29h67v53v4q1 134 93 226q86 84 225 89h8v-1q42 -2 68.5 -28.5t26.5 -66.5q0 -39 -26 -68q-28 -27 -68 -32h-1q-53 0 -87 -36q-35 -36 -35 -87v-53h94q44 0 74 -29t30 -72t-30 -73t-74 -30h-94v-655q0 -42 -30 -72q-31 -31 -71 -31 q-41 0 -72 31t-31 72v655h-67q-43 0 -72 31q-30 35 -30 72zM635 862q0 42 30 72q29 29 72 29h67v53v4q1 135 92 226q89 87 226 89h7q43 -2 70 -28t27 -68q0 -40 -27.5 -68.5t-68.5 -31.5q-52 0 -87 -35t-35 -85v-56h95q44 0 73 -29t29 -72t-29 -72q-31 -31 -73 -31h-95v-655 q0 -43 -29 -72q-31 -31 -73 -31q-40 0 -71 31t-31 72v655h-67q-43 0 -72 31q-30 35 -30 72zM1328 1176q0 46 34 80q33 33 80 33t80 -33t33 -80t-33 -80t-80 -33t-80 33q-34 34 -34 80zM1340 101v762q0 44 31 73q35 30 73 30q44 0 72 -30q28 -29 28 -73v-762q0 -43 -29 -72 t-72 -29q-42 0 -72 30q-31 31 -31 71z" />
<glyph unicode="fj" horiz-adv-x="1030" d="M16 862q0 43 29.5 72t72.5 29h67v57q1 137 93 227q86 83 221 88h12v-1q42 -2 68.5 -28.5t26.5 -66.5q0 -39 -26 -68q-28 -27 -68 -32h-1q-51 0 -86 -35t-36 -84v-57h94q44 0 74 -29t30 -72t-30 -73t-74 -30h-94v-655q0 -42 -30 -72q-31 -31 -71 -31q-41 0 -72 31t-31 72 v655h-67q-43 0 -72 31q-30 35 -30 72zM494 -194q0 45 29 74q30 30 73 30h4q48 0 87 36q36 33 36 86v828q0 43 31 74q30 30 71 30q43 0 73 -30q29 -29 29 -74v-828q0 -12 -1 -14q-6 -131 -100 -223q-93 -91 -226 -91h-4q-43 0 -73 30q-29 29 -29 72zM712 1165q0 48 33 81 t80 33q46 0 79 -33q32 -33 32 -81q0 -46 -34 -80q-32 -32 -81 -32t-78 32q-31 32 -31 80z" />
<glyph unicode="ffj" horiz-adv-x="1648" d="M16 862q0 43 29.5 72t72.5 29h67v57q1 137 93 227q86 83 221 88h12v-1q42 -2 68.5 -28.5t26.5 -66.5q0 -39 -26 -68q-28 -27 -68 -32h-6q-46 -1 -83 -38q-34 -34 -34 -85v-53h94q44 0 74 -29t30 -72t-30 -73t-74 -30h-94v-655q0 -42 -30 -72q-31 -31 -71 -31 q-41 0 -72 31t-31 72v655h-67q-43 0 -72 31q-30 35 -30 72zM635 862q0 42 30 72q29 29 72 29h67v53v4q1 135 92 226q89 87 226 89h7q43 -2 70 -28t27 -68q0 -41 -29 -70q-28 -28 -71 -30q-52 -2 -84 -37q-34 -37 -34 -86v-53h95q44 0 73 -29t29 -72t-29 -72q-31 -31 -73 -31 h-95v-655q0 -43 -29 -72q-31 -31 -73 -31q-40 0 -71 31t-31 72v655h-67q-43 0 -72 31q-30 35 -30 72zM1112 -194q0 43 31 74q30 30 71 30h6q48 0 87 36q34 31 34 86v828q0 43 31 74q30 30 72 30q43 0 72 -30t29 -74v-828v-6q0 -7 -1 -8q-6 -131 -99 -222q-92 -92 -225 -92 h-6q-41 0 -71 30q-31 31 -31 72zM1330 1165q0 47 34 81q33 33 80 33q46 0 79 -33q31 -32 31 -81q0 -47 -33 -80q-32 -32 -80 -32q-49 0 -78 32q-33 33 -33 80z" />
<glyph horiz-adv-x="0" />
<glyph horiz-adv-x="682" />
<glyph unicode=" "  horiz-adv-x="460" />
<glyph unicode="&#x09;" horiz-adv-x="460" />
<glyph unicode="&#xa0;" horiz-adv-x="460" />
<glyph unicode="!" horiz-adv-x="484" d="M133 110q0 43 32 76q32 32 78 32q43 0 76 -32q32 -33 32 -76q0 -46 -32 -78q-33 -32 -76 -32q-46 0 -78 32t-32 78zM137 417v790q0 43 31 74q30 30 72 30t72 -30q29 -29 29 -74v-790q0 -44 -30 -74t-73 -30t-72 30t-29 74z" />
<glyph unicode="&#x22;" horiz-adv-x="729" d="M89 910v299q0 44 30 72q31 29 71 29q42 0 73 -29q30 -28 30 -72v-299q0 -41 -30 -71t-73 -30t-72 29t-29 72zM436 910v299q0 44 30 72q31 29 72 29q43 0 72.5 -29t29.5 -72v-299q0 -43 -29.5 -72t-72.5 -29t-72.5 29t-29.5 72z" />
<glyph unicode="#" horiz-adv-x="1258" d="M35 433q0 45 26.5 76t67.5 31h125l59 250h-79q-43 0 -68.5 27.5t-25.5 73.5q0 44 26 74t67 30h128l57 239q4 18 18.5 35.5t34.5 27.5q32 15 55 15q13 0 31 -5q33 -10 52 -38.5t19 -65.5q0 -21 -4 -36l-42 -172h246l56 231q8 42 47 65q29 19 61 19q45 0 74 -30t29 -76 q0 -22 -4 -37l-42 -172h79q42 0 67 -25.5t29 -70.5q1 -43 -24 -76q-27 -33 -71 -33h-130l-59 -250h94q42 0 68.5 -27.5t27.5 -71.5q0 -47 -26.5 -77t-68.5 -30h-144l-62 -257q-11 -44 -47 -62q-24 -12 -53 -12q-15 0 -29 3q-37 10 -58 35t-21 59q0 14 3 26l49 208h-250 l-62 -257q-8 -34 -35 -53.5t-64 -19.5q-16 0 -31 3q-36 7 -57 31t-21 58q0 12 3 24l50 214h-76q-43 0 -69 27.5t-26 71.5zM473 540h248l59 250h-248z" />
<glyph unicode="$" horiz-adv-x="1015" d="M50 294q0 15 5 33q10 32 48 53q23 13 45 13q46 0 95 -61q89 -142 274 -142q100 0 168 50q78 54 78 139q0 83 -79 129q-47 26 -138 48l-27 7q-201 38 -311 124q-127 100 -127 255q0 142 102 247q92 98 245 124v77q0 35 27 62q25 25 62 25q35 0 60 -25q24 -26 24 -62v-77 q99 -15 177.5 -63t123.5 -122q11 -19 11 -38q0 -4 -2 -20q-8 -29 -27 -48q-25 -25 -67 -25q-36 0 -60 19q-65 57 -108 76q-57 24 -135 24q-97 0 -160 -46q-68 -46 -68 -126t89 -125q53 -27 208 -60q174 -46 264 -118q119 -95 119 -251q0 -150 -104 -260q-101 -109 -261 -135 v-87q0 -37 -24.5 -62t-60.5 -25q-37 0 -62.5 25t-25.5 62v85q-128 18 -225 87q-98 69 -140 160q-13 26 -13 54z" />
<glyph unicode="%" horiz-adv-x="1609" d="M40 983q0 139 99 238q97 99 238 99q138 0 237 -99q98 -100 98 -238q0 -139 -98 -237q-99 -99 -237 -99q-141 0 -238 99q-99 97 -99 237zM228 983q0 -60 44 -104t105 -44q59 0 104 44q44 42 44 104t-44 106q-44 41 -104 41q-64 0 -105 -41q-44 -44 -44 -106zM439 87 q0 17 10 39l527 1131q20 37 54 48q15 6 32 6q21 0 39 -9q31 -16 45 -58q4 -11 4 -29q0 -27 -9 -46l-528 -1120q-23 -53 -82 -53q-20 0 -38 8q-54 28 -54 83zM895 324q0 137 98 237q97 99 237 99q139 0 238 -99q99 -101 99 -237q0 -138 -99 -237t-238 -99q-140 0 -237 99 q-98 98 -98 237zM1082 324q0 -61 44 -105t104 -44q61 0 105 44q43 43 43 105t-43 105q-42 42 -105 42q-62 0 -104 -42q-44 -44 -44 -105z" />
<glyph unicode="&#x26;" horiz-adv-x="1190" d="M44 386q0 108 52 191q44 72 124 129l-20 18l-5 4q-47 43 -77 105q-36 69 -36 142q0 143 101 244q100 100 243 100q144 0 243 -99q99 -104 99 -244q0 -203 -210 -313l216 -195l134 154q31 37 82 37q37 0 62 -23q35 -32 35 -78q0 -38 -25 -66l-139 -158l178 -160 q47 -41 47 -85q0 -25 -19 -49q-36 -43 -79 -43q-32 0 -62 25l-191 169l-65 -73l-12 -13q-56 -55 -129.5 -86t-150.5 -31q-162 0 -279 117q-117 119 -117 281zM231 396q0 -84 60 -146q59 -64 142 -64q80 0 151 64l64 74l-292 260q-125 -65 -125 -188zM288 975q0 -35 26 -78 q21 -33 48 -57l50 -45l2 1h1q73 19 119 70q48 53 48 106q0 60 -42 105q-43 45 -108 45q-62 0 -102 -43q-42 -45 -42 -104z" />
<glyph unicode="'" horiz-adv-x="381" d="M89 913v299q0 44 30 72q31 29 71 29q42 0 73 -29q30 -28 30 -72v-299q0 -42 -30 -72t-73 -30q-41 0 -71 30t-30 72z" />
<glyph unicode="(" horiz-adv-x="738" d="M133 113v772q6 193 130 305q131 119 347 120h6q43 0 72 -29t29 -73q0 -43 -29 -71.5t-72 -28.5h-62q-88 0 -152 -70q-63 -70 -65 -161v-762q-2 -92 62 -164q64 -74 155 -74h62q43 0 72 -29.5t29 -72.5t-29 -71.5t-72 -28.5q-230 0 -358 122q-125 117 -125 316z" />
<glyph unicode=")" horiz-adv-x="739" d="M-22 -225q0 43 29 72.5t72 29.5h62q90 0 154 72q63 69 63 160v763q0 94 -62 164q-64 72 -154 72h-63q-43 0 -72 28.5t-29 71.5q0 44 29 73t72 29h6q221 -2 348 -121q123 -114 128 -307q1 -1 1 -10v-763q-2 -196 -124 -312q-126 -120 -353 -122h-6q-43 0 -72 28.5 t-29 71.5z" />
<glyph unicode="*" horiz-adv-x="694" d="M56 950q0 53 43 82l52 31l-50 30q-45 25 -45 79q0 37 20 63q26 35 67 42q4 1 18 1q33 0 59 -20l29 -17v40q0 43 30.5 73t74.5 30q43 0 72 -29.5t29 -73.5v-39l25 15q23 20 60 20q53 0 85 -42q19 -25 19 -61q0 -14 -1 -17q-7 -42 -44 -65l-49 -30l51 -30q42 -28 42 -83 q0 -34 -18 -60q-29 -43 -82 -43q-36 0 -62 20l-26 16v-40q0 -43 -30 -73q-31 -31 -73 -31q-38 0 -72 31q-31 29 -31 73v41l-30 -18q-25 -19 -61 -19q-54 0 -82 42q-20 26 -20 62z" />
<glyph unicode="+" horiz-adv-x="841" d="M22 628q0 38 29 72q29 31 73 31h193v195q0 43 31 72q35 30 73 30q43 0 73 -30q29 -29 29 -72v-195h195q44 0 73 -31q29 -34 29 -74q0 -43 -29.5 -72t-72.5 -29h-195v-193q0 -44 -29 -73q-30 -30 -73 -30t-73 30q-31 31 -31 73v193h-193q-42 0 -73 31q-29 29 -29 72z" />
<glyph unicode="," horiz-adv-x="437" d="M100 132q0 42 31 76q29 31 73 31t72 -30.5t28 -76.5v-286q0 -46 -27.5 -75.5t-72.5 -29.5q-44 0 -74 30t-30 75v286z" />
<glyph unicode="-" horiz-adv-x="931" d="M68 593q0 44 30 74q29 29 73 29h577q47 0 74 -30q30 -35 30 -73q0 -43 -30 -73t-74 -30h-577q-42 0 -73 31q-30 30 -30 72z" />
<glyph unicode="." horiz-adv-x="476" d="M100 110q0 50 36 86q35 35 85 35q51 0 86 -35q36 -36 36 -86t-36 -86t-86 -36q-49 0 -85 36t-36 86z" />
<glyph unicode="/" horiz-adv-x="604" d="M23 105q0 19 4 31l354 1101q11 34 37.5 53t60.5 19q14 0 34 -5q40 -13 59 -57q11 -22 11 -51q0 -16 -5 -34l-355 -1089q-12 -33 -39 -52.5t-60 -19.5q-18 0 -30 4q-41 14 -60 52q-11 24 -11 48z" />
<glyph unicode="0" horiz-adv-x="1437" d="M45 653q0 183 90 337q88 152 238 239q158 91 336 91q182 0 337 -91q151 -88 239 -239q91 -159 91 -337q0 -134 -51 -255.5t-144 -214.5t-215 -144t-257 -51t-256.5 51t-213.5 144q-93 93 -143.5 214.5t-50.5 255.5zM250 653q0 -193 134 -327q63 -64 147.5 -99.5 t178.5 -35.5q192 0 327 135q134 134 134 327q0 93 -35 177.5t-99 148.5q-135 135 -327 135q-94 0 -178.5 -35.5t-147.5 -99.5q-64 -64 -99 -148.5t-35 -177.5z" />
<glyph unicode="1" horiz-adv-x="600" d="M44 1076q0 13 3 25q9 41 47 63l212 130q24 13 47 15q1 1 7 1h7q42 0 70.5 -30t28.5 -74v-1103q0 -44 -28 -73.5t-71 -29.5q-40 0 -74 31q-31 29 -31 72v925l-60 -37q-29 -15 -61 -15q-56 0 -82 46q-15 24 -15 54z" />
<glyph unicode="2" horiz-adv-x="960" d="M45 106v10q0 6 1 8q3 23 21 44l7 7l492 524l1 1l6 8q56 59 80 96q48 72 48 130q0 88 -64 140q-62 51 -149 51q-82 0 -141 -45q-63 -47 -75 -121q0 -9 -1 -11q-8 -41 -34 -63t-63 -22q-46 0 -72.5 27.5t-26.5 71.5q0 14 1 19q8 124 121 229q120 109 288 109q187 0 300 -99 q118 -105 118 -276q0 -98 -42 -188q-47 -96 -141 -191l-351 -361h444q44 0 73.5 -29t29.5 -72t-30 -73t-73 -30h-666q-45 0 -73 32q-30 35 -29 74z" />
<glyph unicode="3" horiz-adv-x="988" d="M44 292q0 52 48 81q26 14 55 14q14 0 26 -3q43 -12 65 -51l3 -6q34 -62 98.5 -99t139.5 -37q111 0 184 76q75 77 75 183q0 103 -75 163q-71 57 -185 57h-94v1q-44 0 -68 29q-29 29 -29 74q0 42 30 72l281 267h-399q-45 0 -75 26t-30 68q0 39 31 73q29 31 74 31h636 q33 0 57 -18t34 -49q7 -15 7 -38q0 -41 -30 -71l-290 -279q152 -40 236 -143q93 -110 93 -263q0 -93 -35.5 -178t-100.5 -149t-150.5 -99.5t-177.5 -35.5q-132 0 -245 67q-118 69 -173 176q-16 28 -16 61z" />
<glyph unicode="4" horiz-adv-x="986" d="M45 373v4q0 30 16 55l498 831q31 49 86 49q46 0 77 -31q29 -29 29 -75v-730h90q43 0 72 -31t29 -72q0 -43 -29 -73t-72 -30h-90v-168q0 -43 -29 -72.5t-72 -29.5q-41 0 -72 31t-31 71v168h-399q-41 0 -72 31t-31 72zM301 476h246v387z" />
<glyph unicode="5" horiz-adv-x="971" d="M39 300q0 42 30 72q29 29 71 29q31 0 56.5 -17.5t36.5 -45.5q28 -63 90 -106q61 -42 135 -42q102 0 175 73t73 173q0 102 -73 175t-175 73q-115 0 -185 -83q-29 -42 -78 -42q-4 0 -20 2q-39 8 -63 35t-24 64q0 12 1 15l50 548q8 55 63 77q22 11 46 11h494q44 0 73 -31 q30 -35 30 -75q0 -42 -30 -70.5t-73 -28.5h-408l-23 -246q72 26 147 26q185 0 318 -131q131 -133 131 -319q0 -185 -131 -316q-133 -131 -318 -131q-130 0 -246 73q-110 71 -162 191q-11 20 -11 47z" />
<glyph unicode="6" horiz-adv-x="999" d="M47 433q0 121 63 226l319 605q21 37 65 51q12 3 25 3q31 0 53 -13q52 -30 52 -86q0 -27 -18 -58l-156 -288q8 0 21 1.5t18 1.5q184 0 314 -130q128 -128 128 -313q0 -183 -128 -311q-130 -130 -314 -130q-180 0 -312 130q-130 130 -130 311zM240 430q0 -103 72 -173 q71 -73 174 -73q104 0 177 73q70 70 70 173q0 102 -71 175q-73 71 -176 71t-174 -71q-72 -72 -72 -175z" />
<glyph unicode="7" horiz-adv-x="976" d="M52 1207q0 45 31 74q35 30 75 30h668q33 0 60.5 -20.5t39.5 -52.5q4 -13 5 -29v-4q0 -1 -2 -19q-3 -13 -11 -29v-1l-526 -1103q-20 -38 -62 -49q-18 -5 -32 -5q-26 0 -48 13q-36 19 -44 63q-2 18 -2 20q0 30 14 60l446 952h-506q-44 0 -75 29t-31 71z" />
<glyph unicode="8" horiz-adv-x="934" d="M44 412q0 102 49 190t136 148q-103 90 -103 223q0 143 100 241q97 97 238 97q139 0 238 -97q101 -99 101 -241q0 -131 -105 -220q87 -57 140 -145q53 -91 53 -196q0 -176 -124 -300q-126 -124 -300 -124q-175 0 -299 124t-124 300zM248 412q0 -92 64 -156q65 -65 155 -65 t155 65q64 64 64 156q0 90 -64 154q-65 65 -155 65t-155 -65q-64 -64 -64 -154zM322 987q0 -58 42 -100t101 -42q58 0 100 42t42 100t-42 100q-43 43 -100 43q-63 0 -101 -41q-42 -45 -42 -102z" />
<glyph unicode="9" horiz-adv-x="1006" d="M62 877q0 183 129 312t313 129q183 0 312 -129q130 -128 130 -312q0 -122 -64 -231l-2 -4l-317 -597q-23 -39 -62 -50q-16 -4 -28 -4q-27 0 -52 13q-51 29 -51 86q0 28 17 57l156 288q-34 -2 -39 -2q-183 0 -313 130q-129 129 -129 314zM260 880q0 -102 72 -174 q71 -73 175 -73q101 0 174 73q72 72 72 174q0 99 -72 173q-73 71 -174 71q-104 0 -175 -71q-72 -72 -72 -173z" />
<glyph unicode=":" horiz-adv-x="479" d="M100 112q0 50 37 87q35 35 86 35q52 0 87 -35q36 -36 36 -87q0 -50 -36 -86q-37 -37 -87 -37q-49 0 -86 37t-37 86zM100 841q0 51 37 88q36 36 86 36q51 0 87 -36t36 -88q0 -50 -36 -86q-37 -37 -87 -37q-49 0 -86 37t-37 86z" />
<glyph unicode=";" horiz-adv-x="479" d="M100 132q0 42 31 76q29 31 73 31t72 -30.5t28 -76.5v-286q0 -46 -27.5 -75.5t-72.5 -29.5q-44 0 -74 30t-30 75v286zM100 841q0 51 37 88q36 36 86 36q51 0 87 -36t36 -88q0 -50 -36 -86q-37 -37 -87 -37q-49 0 -86 37t-37 86z" />
<glyph unicode="&#x3c;" horiz-adv-x="766" d="M44 626q0 16 4 27q9 30 39 47l499 261q20 11 40 11q46 0 71 -44q12 -22 12 -42q0 -48 -42 -71l-364 -190l361 -196q31 -14 41 -48q3 -11 3 -24q0 -21 -11 -41q-18 -30 -48 -40q-15 -4 -24 -4q-21 0 -38 11l-496 268l-4 3q-43 23 -43 72z" />
<glyph unicode="=" horiz-adv-x="880" d="M73 322q0 43 29.5 71.5t72.5 28.5h538q44 0 74 -30t30 -73q0 -37 -30 -72q-28 -31 -74 -31h-538q-43 0 -72 31q-30 33 -30 75zM73 749q0 43 29.5 71.5t72.5 28.5h538q44 0 74 -30t30 -73q0 -37 -30 -72q-28 -31 -74 -31h-538q-43 0 -72 31q-30 33 -30 75z" />
<glyph unicode="&#x3e;" horiz-adv-x="792" d="M35 886q0 22 11 42q25 44 72 44q20 0 40 -11l498 -261q44 -26 44 -72q0 -16 -7 -33q-12 -27 -37 -41l-5 -3l-494 -268q-17 -11 -38 -11q-9 0 -24 4q-32 10 -49 40q-10 16 -10 39q0 11 4 26q10 34 40 48l359 196l-362 190q-42 23 -42 71z" />
<glyph unicode="?" horiz-adv-x="929" d="M67 909v6q2 170 122 287q120 118 287 118q168 0 291 -120q121 -124 121 -291q0 -166 -123 -284q-58 -55 -134 -86t-158 -31h-4v-81q0 -44 -28.5 -74t-71.5 -30t-73.5 30.5t-30.5 73.5v181q0 45 31 74q35 30 73 30h108q86 0 146 57q61 59 61 140q0 87 -57 146 q-58 61 -150 61q-84 0 -144 -58q-63 -60 -63 -149q0 -44 -28 -74.5t-70 -30.5q-47 0 -75 32q-30 30 -30 73zM258 98q0 46 33 79q31 33 77 33q44 0 77 -33t33 -79q0 -43 -33 -76t-77 -33q-46 0 -77 33q-33 33 -33 76z" />
<glyph unicode="@" horiz-adv-x="1519" d="M44 610q0 196 96 361q94 161 255 255q167 97 361 97q188 0 361 -96q164 -94 259 -249q100 -162 100 -342q0 -77 -13 -157q-12 -71 -33 -124l-4 -6q-29 -63 -98 -98q-63 -33 -130 -33t-124 42q-56 39 -76 97q-104 -117 -236 -117q-155 0 -260 108q-109 109 -109 260 q0 152 109 261q105 108 260 108q146 0 249 -103q100 -100 106 -250l2 -16v-104q0 -40 21 -66t54 -26q25 0 45 16.5t27 44.5q0 2 2 0q12 60 12 140q0 102 -39.5 195t-110.5 164q-72 72 -168.5 111t-205.5 39q-104 0 -198 -39t-165 -110q-72 -72 -111 -165.5t-39 -197.5 t39 -197.5t111 -164.5t166 -110.5t197 -39.5q75 0 166 27l9 3q11 4 27 4q27 0 50 -13q33 -17 47 -61q3 -14 3 -27q0 -65 -57 -89h-1l-4 -2l-10 -3l-11 -5q-90 -33 -219 -33q-192 0 -361 97q-162 94 -255 256q-96 162 -96 358zM585 608q0 -71 50 -121t121 -50t121 50 q49 50 49 121q0 74 -49 123t-121 49q-71 0 -121 -49q-50 -50 -50 -123z" />
<glyph unicode="A" horiz-adv-x="1205" d="M23 96q0 27 10 47l480 1105q27 63 93 63q67 0 92 -62l476 -1106q10 -20 10 -47q0 -62 -57 -87q-19 -9 -43 -9q-18 0 -35 6q-40 14 -59 54l-128 305h-519l-126 -304q-16 -41 -56 -54q-18 -7 -37 -7q-23 0 -44 9q-57 25 -57 87zM428 568h348l-175 417z" />
<glyph unicode="B" d="M133 100v1110q0 43 29 72t72 29h361q147 0 254 -105q104 -106 104 -255q0 -150 -108 -255q75 -56 117 -136t42 -175q0 -163 -115 -273q-115 -112 -281 -112h-374q-43 0 -72 28.5t-29 71.5zM337 204h264q81 0 140 59t59 136q0 82 -59 136q-60 54 -141 54h-263v-385z M337 773h252q65 1 113 56q47 52 47 116t-50 114q-48 48 -115 48h-247v-334z" />
<glyph unicode="C" horiz-adv-x="1255" d="M44 652q0 175 87 329q86 153 234 244q154 95 344 95q133 0 255 -50.5t217 -147.5q29 -29 29 -69q0 -44 -28 -72q-35 -30 -73 -30q-44 0 -72 28q-135 135 -329 135q-188 0 -324 -133q-135 -135 -135 -327q0 -188 130 -323q132 -138 326 -140q190 0 330 135q30 27 72 27 t71 -26q29 -29 29 -72q0 -42 -27 -72q-198 -195 -475 -195q-178 0 -333 91q-150 88 -238 238q-90 155 -90 335z" />
<glyph unicode="D" horiz-adv-x="1182" d="M133 100v1110q0 43 29 72t72 29h226q184 0 337 -88q152 -87 239 -236q91 -156 91 -334q0 -176 -91 -332q-86 -145 -239 -233t-337 -88h-226q-43 0 -72 28.5t-29 71.5zM337 205h124q193 0 327 128q135 130 135 320q0 187 -133 320q-132 130 -324 132h-129v-900z" />
<glyph unicode="E" horiz-adv-x="933" d="M133 101v1107q0 43 30 73t73 30h546q42 0 72 -30q29 -29 29 -73q0 -43 -29 -72t-72 -29h-445v-354h321h3q42 0 70 -28q29 -29 29 -73q0 -42 -29.5 -70t-72.5 -28h-321v-351h445q43 0 72 -30t29 -73q0 -42 -29 -71t-69 -29h-3h-555q-41 3 -67.5 31t-26.5 70z" />
<glyph unicode="F" horiz-adv-x="898" d="M133 100v1112q0 37 24 66q27 33 77 33h543q42 0 72 -30q29 -29 29 -73q0 -43 -29 -72t-72 -29h-440v-350h302q43 0 72 -29.5t29 -72.5q0 -42 -29 -69.5t-72 -27.5h-302v-458q0 -43 -30 -71q-31 -29 -73 -29q-41 0 -71 30t-30 70z" />
<glyph unicode="G" horiz-adv-x="1382" d="M44 652q0 133 49.5 254.5t140.5 215.5q93 94 215 146t256 52q276 0 476 -198q30 -30 30 -71t-29 -70q-35 -30 -72 -30h-3q-42 0 -70 28q-137 135 -330 135q-91 0 -174.5 -34.5t-147.5 -97.5q-136 -136 -136 -329t134 -327q63 -64 147.5 -99.5t178.5 -35.5q146 0 247 65.5 t138 185.5h-216q-43 0 -72 29.5t-29 72.5t29 72.5t72 29.5l335 -2q44 -1 74.5 -29.5t30.5 -71.5q-6 -117 -55 -219.5t-133 -177.5q-175 -158 -422 -158q-135 0 -256.5 50.5t-213.5 143.5q-92 92 -143 214t-51 256z" />
<glyph unicode="H" horiz-adv-x="1232" d="M133 100v1110q0 43 29 72t72 29t73 -29t30 -72v-455h559v455q0 43 30 72t73 29t72 -29t29 -72v-1110q0 -42 -30 -71t-73 -29t-72 28.5t-29 71.5v451h-559v-451q0 -42 -30 -71t-73 -29t-72 28.5t-29 71.5z" />
<glyph unicode="I" horiz-adv-x="470" d="M133 100v1110q0 43 29 72t72 29t73 -29t30 -72v-1110q0 -42 -30 -71t-73 -29t-72 28.5t-29 71.5z" />
<glyph unicode="J" horiz-adv-x="471" d="M-211 -259q0 22 11 46q25 50 92 55q102 2 173 74q68 70 68 170v1119q0 40 30 75q29 31 71 31q44 0 74 -31t30 -75l-1 -1126q0 -183 -128 -311q-129 -129 -312 -129q-69 0 -95 52q-13 23 -13 50z" />
<glyph unicode="K" horiz-adv-x="1126" d="M133 100v1110q0 43 29 72t72 29t73 -29t30 -72v-449l555 521q29 29 73 29q38 -1 71 -34q29 -29 29 -72q0 -39 -32 -71l-385 -361l409 -614q18 -27 18 -59q0 -53 -46 -83q-25 -17 -55 -17q-3 0 -21 2q-41 6 -64 43l-393 587l-159 -150v-382q0 -42 -30 -71t-73 -29 t-72 28.5t-29 71.5z" />
<glyph unicode="L" horiz-adv-x="878" d="M133 100v1109q0 43 30 73q29 29 71 29q44 0 73 -29q30 -30 30 -73v-1006l425 -1q43 0 72 -29.5t29 -72.5t-28 -71q-29 -29 -70 -29h-3h-540l-8 2q-36 7 -58.5 34t-22.5 64z" />
<glyph unicode="M" horiz-adv-x="1451" d="M22 103q0 12 1 15l152 1097q5 34 29 58q31 35 75 35q12 0 39 -9q40 -15 56 -54l359 -878l358 878q13 29 37.5 45.5t54.5 16.5q20 0 39 -8l11 -6q50 -22 56 -78l143 -1100q1 -3 1 -14q0 -42 -30.5 -71t-74.5 -29q-38 0 -66.5 25t-32.5 63l-94 729l-310 -757 q-12 -28 -39 -44.5t-59 -16.5q-66 0 -90 61l-311 762l-102 -735q-5 -39 -32.5 -62.5t-65.5 -23.5q-45 0 -74.5 29t-29.5 72z" />
<glyph unicode="N" horiz-adv-x="1232" d="M133 100v1107q0 43 29 72t72 29h2q8 0 16 -2l14 -3q17 -6 30 -16l11 -9q12 -11 19 -25l608 -850v807q0 43 30 72t73 29q46 0 72 -29q29 -31 29 -72v-1110q0 -34 -20 -60.5t-52 -35.5q-14 -4 -18 -4h-12q-35 0 -63 22q-17 13 -19 17l-617 864v-803q0 -42 -30 -71t-73 -29 t-72 28.5t-29 71.5z" />
<glyph unicode="O" horiz-adv-x="1419" d="M44 653q0 183 90 337q88 152 238 239q158 91 336 91q181 0 336 -91q153 -89 240 -239q91 -159 91 -337q0 -134 -51 -255.5t-144 -214.5t-215 -144t-257 -51t-256.5 51t-213.5 144q-93 93 -143.5 214.5t-50.5 255.5zM249 653q0 -193 134 -327q63 -64 147.5 -99.5 t178.5 -35.5q192 0 327 135q134 134 134 327q0 93 -35 177.5t-99 148.5q-135 135 -327 135q-94 0 -178.5 -35.5t-147.5 -99.5q-64 -64 -99 -148.5t-35 -177.5z" />
<glyph unicode="P" horiz-adv-x="1026" d="M133 100v1110q0 43 29 72t72 29h344q162 0 280 -113q115 -112 115 -275q0 -164 -115 -274q-114 -111 -280 -111h-241v-438q0 -42 -30 -71t-73 -29t-72 28.5t-29 71.5zM337 741h242q78 0 135 57q55 52 55 130t-56 129q-57 52 -135 52h-241v-368z" />
<glyph unicode="Q" horiz-adv-x="1419" d="M44 653q0 183 90 337q88 152 238 239q158 91 336 91q181 0 336 -91q153 -89 240 -239q91 -159 91 -337q0 -184 -95 -342q-92 -153 -249 -240q2 -34 27 -57.5t59 -23.5q36 0 61.5 -25t25.5 -62t-25.5 -62.5t-61.5 -25.5h-4q-95 2 -165 53q-73 52 -99 134q-75 -14 -141 -14 q-135 0 -256.5 51t-213.5 144q-93 93 -143.5 214.5t-50.5 255.5zM249 653q0 -123 57 -226q56 -102 154 -164q26 86 100 138q76 53 168 53q90 0 160 -47q71 -47 101 -122q86 66 133.5 161t47.5 207q0 93 -35 177.5t-99 148.5q-135 135 -327 135q-94 0 -178.5 -35.5 t-147.5 -99.5q-64 -64 -99 -148.5t-35 -177.5zM642 197q48 -6 67 -6q39 0 104 12q-4 33 -28 54.5t-57 21.5q-36 0 -60.5 -24t-25.5 -58z" />
<glyph unicode="R" horiz-adv-x="1059" d="M133 100v1110q0 43 29 72t72 29h344q162 0 280 -113q115 -112 115 -275q0 -128 -73 -226q-72 -97 -186 -137l242 -409q15 -25 15 -49q0 -12 -5 -29q-14 -43 -51 -61q-23 -12 -48 -12q-16 0 -27 4q-42 12 -61 47l-285 487h-157v-438q0 -42 -30 -71t-73 -29t-72 28.5 t-29 71.5zM337 741h242q78 0 135 57q55 52 55 130t-56 129q-57 52 -135 52h-241v-368z" />
<glyph unicode="S" horiz-adv-x="1027" d="M56 294q0 15 5 33q10 31 49 53q23 13 45 13q45 0 94 -61q89 -142 274 -142q100 0 168 50q78 54 78 139q0 83 -79 129q-47 26 -138 48l-27 7q-201 38 -311 124q-127 100 -127 255q0 162 132 273q127 105 298 105q123 0 228 -48q108 -52 163 -144q12 -21 12 -38 q0 -4 -2 -20q-8 -28 -28 -48q-25 -25 -67 -25q-36 0 -60 19q-65 57 -108 76q-57 24 -135 24q-97 0 -160 -46q-68 -46 -68 -126t89 -125q53 -27 208 -60q174 -46 264 -118q119 -95 119 -251q0 -170 -132 -288q-134 -115 -325 -115q-150 0 -275 74q-120 69 -170 179 q-14 28 -14 54z" />
<glyph unicode="T" horiz-adv-x="995" d="M18 1209q0 43 29 72.5t72 29.5h745q43 0 72.5 -30t29.5 -73q0 -45 -29 -71q-31 -29 -73 -29h-273v-1008q0 -42 -30 -71t-73 -29q-42 0 -69.5 28.5t-27.5 71.5v1008h-272q-43 0 -72 29t-29 72z" />
<glyph unicode="U" horiz-adv-x="1161" d="M93 467v740q0 43 30 73t72 30t72 -30t30 -73v-735q0 -115 81 -199q84 -84 206 -84q121 0 199 84q75 81 75 199v738q0 44 30 72q31 29 71 29q43 0 73 -29t30 -72v-743q0 -204 -132 -338q-135 -140 -345 -140q-212 0 -352 140q-67 66 -103.5 153.5t-36.5 184.5z" />
<glyph unicode="V" horiz-adv-x="1198" d="M22 1208q0 44 29 71q13 13 35 21q25 9 40 9q30 0 55 -17t38 -46l382 -890l381 890q16 40 54 54q16 8 38 8q44 0 73 -29t29 -71q0 -15 -9 -40l-474 -1106q-24 -60 -92 -62h-9q-64 5 -87 62l-474 1106q-9 20 -9 40z" />
<glyph unicode="W" horiz-adv-x="1765" d="M22 1208q0 42 29 71q30 30 75 30q39 0 70 -29q14 -14 23 -34l382 -890l169 390l-181 422q-8 22 -8 40q0 42 29 71q30 30 75 30q39 0 70 -29q14 -14 23 -34l104 -241l104 241q12 30 37 46.5t56 16.5q24 0 39 -7q42 -16 57 -55q7 -15 7 -39q0 -18 -8 -40l-182 -420 l168 -392l385 890q17 41 56 56q14 7 37 7q43 0 73 -30t30 -71q0 -20 -9 -40l-476 -1106q-12 -29 -39 -45.5t-59 -16.5q-65 0 -94 62l-183 425l-183 -425q-12 -29 -38.5 -45.5t-60.5 -16.5q-31 0 -56 16.5t-37 45.5l-476 1106q-8 22 -8 40z" />
<glyph unicode="X" horiz-adv-x="1220" d="M24 102q0 39 25 67l425 483l-426 485q-24 25 -24 65q0 48 33 80q29 26 67 26q44 0 77 -36l408 -465l409 465q30 35 77 35q39 0 65 -26q35 -32 35 -79q0 -40 -26 -66l-424 -484l426 -483q27 -29 27 -70q0 -47 -34 -73q-29 -26 -69 -26q-42 0 -75 34l-411 465l-407 -465 q-30 -34 -76 -34q-39 0 -68 26q-34 29 -34 76z" />
<glyph unicode="Y" horiz-adv-x="1100" d="M22 1203q0 47 35 79q31 26 71 26q44 0 73 -36l347 -527l345 529q27 35 76 35q34 0 64 -25q38 -32 38 -78q0 -36 -25 -68l-396 -593v-445q0 -43 -29.5 -71.5t-72.5 -28.5t-72.5 28.5t-29.5 71.5v444l-400 593q-24 29 -24 66z" />
<glyph unicode="Z" horiz-adv-x="1221" d="M45 104q0 39 24 65l778 938h-685q-43 0 -72.5 29t-29.5 72q0 44 31 73q35 30 74 30h897q30 -1 55 -19l13 -9q35 -32 35 -76q0 -38 -25 -67l-778 -936h715q43 0 72 -30t29 -73t-29 -72t-72 -29h-921l-12 -1q-34 0 -64 27q-35 30 -35 78z" />
<glyph unicode="[" horiz-adv-x="605" d="M133 -225v1430q0 44 30.5 75t73.5 31h242q44 0 74 -32q30 -35 30 -75q0 -42 -30 -69.5t-74 -27.5h-142v-1234h143q44 0 74 -28t30 -70q0 -44 -30.5 -75t-73.5 -31h-243q-43 0 -73.5 31t-30.5 75z" />
<glyph unicode="\" horiz-adv-x="604" d="M-22 1196q0 22 12 51q19 47 58 57q20 5 34 5q34 0 60.5 -19t37.5 -53l355 -1101q4 -12 4 -31q0 -22 -12 -48q-19 -38 -60 -52q-12 -4 -30 -4q-33 0 -60 19.5t-39 52.5l-354 1089q-6 22 -6 34z" />
<glyph unicode="]" horiz-adv-x="605" d="M-22 -226q0 42 30 70.5t74 28.5h143v1234h-142q-44 0 -73.5 27.5t-29.5 69.5t30 75q28 32 73 32h243q43 0 73 -31t30 -75v-1433q-2 -43 -31 -72q-31 -31 -72 -31h-244q-44 0 -73 31q-31 34 -31 74z" />
<glyph unicode="^" horiz-adv-x="1177" d="M45 561q0 26 16 45l442 630q24 36 67 36q14 0 31 -5q23 -8 39 -30l439 -628q17 -23 17 -50q0 -41 -34 -66q-22 -16 -48 -16q-45 0 -69 35l-373 532l-375 -532q-22 -36 -68 -36q-25 0 -49 16q-35 23 -35 69z" />
<glyph unicode="_" horiz-adv-x="1078" d="M63 -103q0 44 31 72t78 28h727q49 0 80.5 -27.5t31.5 -72.5t-32.5 -74.5t-79.5 -29.5h-727q-47 0 -78 29.5t-31 74.5z" />
<glyph unicode="`" horiz-adv-x="509" d="M63 1710q0 42 31 73q34 29 74 29q43 0 73 -30l136 -137q31 -31 31 -74q0 -41 -31 -72t-72 -31q-42 0 -73 31l-138 139q-31 31 -31 72z" />
<glyph unicode="a" horiz-adv-x="1121" d="M44 476q0 202 143 345q68 68 157.5 106t187.5 38q202 0 344 -142t144 -343v-376q0 -38 -30 -73q-28 -31 -75 -31q-39 0 -67 26.5t-32 66.5q-129 -105 -284 -105q-98 0 -187.5 37.5t-157.5 105.5q-143 143 -143 345zM249 476q0 -116 84 -200q83 -83 199 -83q119 0 202 83 q82 82 82 200q0 119 -82 201t-202 82q-117 0 -199 -82q-84 -84 -84 -201z" />
<glyph unicode="b" horiz-adv-x="1124" d="M104 100v1110q0 43 29.5 72t72.5 29t72.5 -29t29.5 -72v-338q133 93 285 93q98 0 187.5 -37.5t157.5 -105.5t105 -157.5t37 -188.5q0 -202 -142 -344q-68 -68 -157.5 -105.5t-187.5 -37.5q-158 0 -287 93q-6 -36 -34 -59t-66 -23q-43 0 -72.5 28.5t-29.5 71.5zM308 476 q0 -116 84 -200q82 -82 201 -82q120 0 202 82t82 200q0 119 -82 201t-202 82q-119 0 -201 -82q-84 -84 -84 -201z" />
<glyph unicode="c" horiz-adv-x="952" d="M44 472v1q0 1 1 1v1q-1 0 -1 1q0 202 145 347q68 68 159 106t190 38q98 0 184.5 -34t147.5 -97q37 -37 38 -81q0 -47 -32 -75q-36 -30 -69 -30q-37 0 -93 44q-82 66 -189 66q-113 0 -195 -89q-77 -83 -77 -193l-1 -2l1 -1q0 -108 76 -190q79 -88 190 -89h15q104 0 180 65 q55 43 91 43q35 0 71 -30q32 -28 32 -73q-1 -44 -38 -81q-61 -63 -147.5 -97t-184.5 -34q-100 0 -190.5 36.5t-158.5 103.5q-69 66 -107 155.5t-38 187.5z" />
<glyph unicode="d" horiz-adv-x="1123" d="M44 476q0 203 143 346q145 143 345 143q152 0 284 -92v337q0 43 29.5 72t72.5 29t72.5 -29t29.5 -72v-1110q0 -43 -29.5 -71.5t-72.5 -28.5q-38 0 -66 23t-35 59q-129 -93 -285 -93q-200 0 -345 143q-143 143 -143 344zM249 476q0 -116 84 -200q82 -82 199 -82 q120 0 198 78q81 78 86 192v23q-5 116 -86 194q-80 78 -198 78q-117 0 -199 -82q-84 -84 -84 -201z" />
<glyph unicode="e" horiz-adv-x="1069" d="M44 476q0 98 37.5 188t106.5 158t159 105.5t188 37.5q97 0 186 -37t158 -105q144 -141 146 -342q0 -43 -28 -70t-72 -27h-655q24 -85 98 -143q71 -57 167 -57q116 0 183 73q34 26 67 26q15 0 34 -7q30 -11 49 -43q18 -28 18 -57q0 -44 -39 -77q-57 -52 -121 -77 q-81 -33 -191 -33q-203 0 -347 142q-69 68 -106.5 157.5t-37.5 187.5zM264 554h551q-23 97 -97 155q-76 61 -180 61q-105 0 -179 -61q-75 -63 -95 -155z" />
<glyph unicode="f" horiz-adv-x="618" d="M16 862q0 43 29.5 72t72.5 29h67v53v4q1 137 95 229q89 86 231 86q45 0 74 -26.5t29 -69.5q0 -42 -29 -71t-74 -29q-53 0 -87 -36q-35 -36 -35 -87v-53h94q44 0 74 -29t30 -72t-30 -73t-74 -30h-94v-655q0 -42 -30 -72q-31 -31 -71 -31q-41 0 -72 31t-31 72v655h-67 q-43 0 -72 31q-30 35 -30 72z" />
<glyph unicode="g" horiz-adv-x="1122" d="M44 476q0 202 143 345q68 68 157.5 106t187.5 38q151 0 283 -92q4 39 33.5 65.5t69.5 26.5q43 0 72 -29t29 -72v-358q0 -11 1 -14v-16v-15q-1 -3 -1 -16v-350q-5 -210 -145 -347q-139 -139 -344 -139q-98 0 -184.5 34t-147.5 97q-37 37 -37 87q0 42 32 68q36 30 70 30 q38 0 91 -44q78 -65 180 -65h15q103 2 182 80q72 72 83 181q-127 -89 -282 -89q-98 0 -187.5 37.5t-157.5 105.5q-143 143 -143 345zM249 476q0 -116 84 -200q83 -83 199 -83q112 0 194 76q78 75 89 184v47q-11 112 -89 184q-82 75 -194 75q-117 0 -199 -82 q-84 -84 -84 -201z" />
<glyph unicode="h" horiz-adv-x="1061" d="M102 101v1106q0 43 31 74q30 30 72 30q43 0 73 -30q28 -28 28 -74v-358q121 116 261 116q178 0 289 -135q111 -133 111 -338v-394q0 -43 -29.5 -71.5t-72.5 -28.5t-72 28.5t-29 71.5v389q0 123 -57 200q-59 75 -162 75q-101 0 -168 -73q-66 -71 -71 -181v-407 q0 -43 -29 -72t-72 -29t-73 30t-30 71z" />
<glyph unicode="i" horiz-adv-x="407" d="M90 1186q0 47 34 81q32 32 80 32t80 -32q33 -33 33 -81q0 -47 -33 -80t-80 -33t-80 33q-34 34 -34 80zM102 101v762q0 44 31 73q35 30 73 30q44 0 72 -30q28 -29 28 -73v-762q0 -43 -29 -72t-72 -29q-42 0 -72 30q-31 31 -31 71z" />
<glyph unicode="j" horiz-adv-x="410" d="M-126 -194q0 43 31 74q30 30 71 30h6q49 0 85 35q36 30 36 83v832q0 43 31 74q30 30 72 30q43 0 72 -30t29 -74v-828q0 -12 -1 -14q-6 -132 -99 -223q-96 -91 -225 -91h-6q-41 0 -71 30q-31 31 -31 72zM90 1186q0 47 34 81q32 32 80 32t80 -32q33 -33 33 -81 q0 -47 -33 -80t-80 -33t-80 33q-34 34 -34 80z" />
<glyph unicode="k" horiz-adv-x="931" d="M102 100v1110q0 43 31 72t73 29q43 0 71.5 -29t28.5 -72v-647l372 364q28 27 66 27q45 0 73 -31v-2q29 -29 29 -71q0 -40 -30 -70l-232 -221l261 -400q16 -25 16 -56q0 -57 -46 -86q-25 -17 -55 -17q-55 0 -84 46l-244 371l-127 -121v-196q0 -41 -29 -70q-30 -30 -70 -30 q-43 0 -73.5 29t-30.5 71z" />
<glyph unicode="l" horiz-adv-x="409" d="M102 100v1110q0 43 30 72t73 29t72 -29t29 -72v-1110q0 -43 -29 -71.5t-72 -28.5t-73 29t-30 71z" />
<glyph unicode="m" horiz-adv-x="1491" d="M102 101v762q0 44 31 73q35 30 73 30q37 0 64.5 -24t33.5 -61q93 85 202 85q163 0 260 -120q59 56 136.5 88t156.5 32q155 0 250 -109q94 -108 94 -263v-494q0 -43 -29 -71.5t-71 -28.5q-38 0 -73 30q-31 29 -31 70v497q-2 73 -44 118q-46 46 -114 46t-126 -47 q-56 -45 -61 -113v-501q0 -43 -29 -71.5t-71 -28.5q-38 0 -73 30q-31 29 -31 70v501q-2 70 -45 115q-44 45 -111 45q-69 0 -126 -46q-60 -49 -62 -113v-6q-1 -1 0 -4q2 -3 0 -8v-483q0 -43 -29 -72t-72 -29q-42 0 -72 30q-31 31 -31 71z" />
<glyph unicode="n" horiz-adv-x="1059" d="M102 101v762q0 44 31 73q35 30 73 30q44 0 72 -30q28 -29 28 -73v-14q121 116 261 116q178 0 289 -135q111 -133 111 -338v-394q0 -43 -29.5 -71.5t-72.5 -28.5t-72 28.5t-29 71.5v394q-2 125 -58 196q-60 74 -161 74q-106 0 -171 -76q-68 -79 -68 -189v-396 q0 -43 -29 -72t-72 -29q-42 0 -72 30q-31 31 -31 71z" />
<glyph unicode="o" d="M44 476q0 202 143 345q68 68 157.5 106t187.5 38t188 -38t158 -106q142 -144 142 -345t-142 -345q-68 -68 -158 -105.5t-188 -37.5t-187.5 37.5t-157.5 105.5q-143 143 -143 345zM249 476q0 -116 84 -200q83 -83 199 -83q119 0 202 83q82 82 82 200q0 119 -82 201 t-202 82q-117 0 -199 -82q-84 -84 -84 -201z" />
<glyph unicode="p" horiz-adv-x="1122" d="M102 -246v1110q0 43 29.5 72t72.5 29q37 0 69 -27q29 -25 33 -66q133 93 285 93q98 0 187.5 -38t157.5 -106q142 -144 142 -345t-142 -345q-68 -68 -157.5 -105.5t-187.5 -37.5q-159 0 -285 92v-326q0 -43 -29.5 -71.5t-72.5 -28.5t-72.5 28.5t-29.5 71.5zM307 476 q0 -116 84 -200q83 -83 200 -83q119 0 202 83q81 81 81 200q0 120 -81 201q-82 82 -202 82q-118 0 -200 -82q-84 -84 -84 -201z" />
<glyph unicode="q" horiz-adv-x="1120" d="M44 476q0 202 143 345q68 68 157.5 106t187.5 38q151 0 283 -92q4 39 33.5 65.5t69.5 26.5q43 0 72 -29t29 -72v-358q0 -8 1 -10v-12v-725q0 -18 -4 -29q-11 -47 -57 -67q-20 -10 -44 -10q-51 0 -79 41q-21 27 -21 60v324q-127 -90 -283 -90q-98 0 -187.5 37.5 t-157.5 105.5q-143 143 -143 345zM249 476q0 -116 84 -200q83 -83 199 -83q112 0 194 76q78 75 89 184v47q-11 112 -89 184q-82 75 -194 75q-117 0 -199 -82q-84 -84 -84 -201z" />
<glyph unicode="r" horiz-adv-x="743" d="M103 101v762q0 42 31 73q30 30 73 30q44 0 72 -30q28 -29 28 -73q139 102 305 102h4q49 0 77.5 -28t28.5 -74q0 -42 -31 -71.5t-75 -29.5h-4q-127 0 -215 -90q-90 -90 -90 -219v-352q0 -43 -29 -72t-72 -29q-42 0 -72 30q-31 31 -31 71z" />
<glyph unicode="s" horiz-adv-x="799" d="M39 218q0 27 12 45q25 45 82 45q53 0 91 -48q34 -50 75 -71t104 -21q56 0 103 28q45 26 45 74q0 32 -16 51q-28 37 -95 57l-55 17q-153 54 -222 106q-101 72 -101 184q0 126 104 206q97 76 233 76q94 0 174 -34q90 -39 124 -104q12 -24 12 -45q0 -30 -23 -55 q-28 -31 -66 -31q-18 0 -34 8l-41 30q-35 24 -39 26q-44 25 -92 25q-67 0 -107 -25t-40 -71q0 -44 50 -76q43 -25 124 -49q153 -48 215 -97q93 -73 93 -190q0 -121 -99 -206q-98 -84 -246 -84q-110 0 -198 41q-105 46 -152 132q-15 27 -15 56z" />
<glyph unicode="t" horiz-adv-x="601" d="M15 862q0 43 30 72t73 29h73v247q0 43 30 72t73 29t72 -29t29 -72v-247h88q44 0 73.5 -29t29.5 -72q0 -44 -30 -73.5t-73 -29.5h-88v-659q0 -43 -29 -71.5t-72 -28.5t-73 29t-30 71v659h-73q-43 0 -72 31q-31 34 -31 72z" />
<glyph unicode="u" horiz-adv-x="1058" d="M92 474v391q0 43 30 72t73 29t72 -29t29 -72v-393q0 -124 59 -196q59 -74 160 -74q103 0 171 76t68 189v395q0 43 29 72.5t72 29.5q44 0 73 -29t29 -73v-762q0 -42 -30 -71q-34 -31 -74 -31q-42 0 -70.5 29.5t-28.5 72.5v15q-121 -116 -262 -116q-178 0 -289 135 q-111 134 -111 340z" />
<glyph unicode="v" horiz-adv-x="939" d="M23 863q0 19 6 36q13 37 54 57q22 10 40 10q42 0 71 -29q14 -14 23 -34l253 -572l251 572q20 41 57 54q16 8 38 8q40 0 73 -33q29 -29 29 -73q-1 -16 -11 -40l-343 -758q-19 -37 -52 -52l-5 -2q-1 0 -1 -1l-9 -3h-1q-8 -3 -17 -3h-13q-42 0 -70 32q-12 12 -20 29 l-344 759q-9 20 -9 43z" />
<glyph unicode="w" horiz-adv-x="1355" d="M24 860q0 43 27 73q31 33 73 33t71 -29q14 -14 23 -34l253 -571l98 223l-119 265q-10 22 -10 43q0 19 6 36q11 37 54 57q22 10 40 10q41 0 70 -29q15 -15 24 -34l44 -101l45 101q16 40 56 54q16 8 38 8q43 0 74 -33q28 -31 28 -73q-1 -16 -11 -40l-120 -265l99 -222 l252 571q13 29 37.5 45.5t54.5 16.5q20 0 42 -10q41 -20 54 -57q7 -15 7 -39q0 -21 -9 -40l-344 -758q-14 -27 -33 -41q-24 -18 -53 -20h-11q-43 0 -69 31q-1 0 -1 1h-1q-14 15 -19 29l-115 252l-114 -252q-6 -14 -19 -28q-4 -5 -11 -10.5t-13.5 -9.5t-7.5 -4q-16 -7 -35 -9 h-15q-36 1 -67 32q-11 11 -19 29l-345 759q-9 20 -9 40z" />
<glyph unicode="x" horiz-adv-x="1019" d="M27 866q0 42 30 72t72 30q41 0 72 -31l309 -312l307 310q30 32 73 33q42 0 72 -30t30 -72q0 -44 -27 -72l-312 -314l304 -306q30 -30 31 -72q0 -42 -30 -72t-72 -30q-41 0 -71 30l-304 306l-304 -306q-30 -30 -74 -30q-46 0 -75 29q-28 27 -28 67q0 41 29 75l308 309 l-312 315q-28 28 -28 71z" />
<glyph unicode="y" horiz-adv-x="939" d="M23 863q0 19 6 36q13 37 54 57q22 10 40 10q42 0 71 -29q14 -14 23 -34l250 -566l254 566q20 41 57 54q16 8 38 8q40 0 73 -33q29 -29 29 -73q-1 -16 -11 -40l-510 -1118q-20 -41 -57 -54q-15 -7 -39 -7q-21 0 -40 9q-53 24 -53 82q0 27 12 52l139 313l-327 724 q-9 20 -9 43z" />
<glyph unicode="z" horiz-adv-x="1032" d="M44 100q0 40 31 71l571 593h-491q-43 0 -72.5 28.5t-29.5 71.5t29.5 72t72.5 29h711q2 0 20 -2q33 -4 56 -34q21 -24 24 -51q0 -5 1 -6v-6v-4q-1 -40 -29 -68l-2 -2l-572 -593h522q44 0 73 -28t29 -70t-29 -71q-30 -30 -73 -30h-740q-61 0 -88 51q-14 23 -14 49z" />
<glyph unicode="{" horiz-adv-x="795" d="M44 509q0 47 33 78q31 31 78 31h46v266q3 92 41.5 173t105.5 141q126 113 296 113q6 0 40 -2q43 0 71.5 -29t28.5 -73q0 -43 -28.5 -71.5t-71.5 -28.5h-62q-88 0 -153 -70q-64 -69 -66 -161v-765q0 -92 64 -162q67 -73 155 -73h62q43 0 71.5 -29.5t28.5 -72.5t-28.5 -72 t-71.5 -29q-34 -2 -40 -2q-167 0 -297 114q-141 124 -146 316v293h-46q-45 0 -78 34q-33 33 -33 81z" />
<glyph unicode="|" horiz-adv-x="470" d="M133 -160v1366q0 45 30 75t70 30q43 0 73.5 -30.5t30.5 -74.5v-1366q0 -44 -31 -73q-34 -31 -73 -31t-70 31q-30 30 -30 73z" />
<glyph unicode="}" horiz-adv-x="797" d="M-26 -226q0 43 29 72.5t72 29.5h62q90 0 156 74q62 68 62 159v2v765q-2 93 -65 161q-65 70 -153 70h-62q-43 0 -72 28.5t-29 71.5q0 44 29 73t72 29q34 2 40 2q169 0 296 -114q67 -59 105 -141t41 -175q1 -1 1 -10v-253h47q47 0 78 -31q32 -32 32 -78q0 -48 -32 -81 q-34 -34 -78 -34h-47v-283v-2q-2 -193 -142 -321q-128 -117 -302 -117q-5 0 -39 2q-43 0 -72 29t-29 72z" />
<glyph unicode="~" horiz-adv-x="1025" d="M52 554q0 44 29 73q38 50 88 88q83 61 173 61t178 -68q29 -26 51 -38q38 -22 64 -22q61 0 124 86l3 -2l1 2q27 27 68 27q39 0 68 -29q28 -30 28 -68q0 -34 -22 -64q0 -5 -2 -7q-28 -46 -87 -88q-85 -62 -174 -62q-83 0 -180 73q-14 10 -30 21.5t-18 13.5q-38 20 -64 20 q-55 0 -109 -67q-4 -6 -15 -20q-29 -29 -71 -29q-43 -2 -73 27q-30 30 -30 72z" />
<glyph unicode="&#xa1;" horiz-adv-x="484" d="M133 895q0 46 32 78t78 32q43 0 76 -32q32 -32 32 -78q0 -44 -32 -76q-33 -33 -76 -33q-48 0 -78 33q-32 32 -32 76zM137 -203v791q0 44 29 73.5t72 29.5q44 0 73.5 -29.5t29.5 -73.5v-791q0 -43 -29 -72q-31 -31 -72 -31t-72 31t-31 72z" />
<glyph unicode="&#xa2;" horiz-adv-x="952" d="M44 472v1q0 1 1 1v1q-1 0 -1 1q0 182 116 317t289 165v121q0 37 25 62q26 25 63 25q36 0 60.5 -25.5t24.5 -61.5v-120q150 -25 248 -123q37 -37 38 -81q0 -47 -32 -75q-36 -30 -69 -30q-37 0 -93 44q-82 66 -189 66q-113 0 -195 -89q-77 -83 -77 -193l-1 -2l1 -1 q0 -108 76 -190q79 -88 190 -89q114 -5 195 65q55 43 91 43q35 0 71 -30q32 -28 32 -73q-1 -44 -38 -81q-101 -101 -249 -124v-88q0 -37 -24.5 -62t-60.5 -25q-37 0 -63 25t-26 62v89q-171 30 -287 163t-116 312z" />
<glyph unicode="&#xa3;" horiz-adv-x="1016" d="M35 573q0 26 17.5 43.5t44.5 17.5h69v333v10q0 2 2 10q8 137 104 228q98 96 232 96h22q43 0 72 -29t29 -72t-29 -72q-30 -30 -77 -30q-64 0 -105 -38q-45 -40 -45 -104h-1v-332h174q27 0 45 -17.5t18 -44.5t-18 -44.5t-45 -17.5h-174v-306h497q43 0 72 -29t29 -72 t-29 -72q-31 -31 -73 -31h-601q-43 1 -71 29t-28 71v410h-69q-27 0 -44.5 18t-17.5 45z" />
<glyph unicode="&#xa4;" horiz-adv-x="1027" d="M74 1125q0 51 46 85q28 18 57 18q14 0 18 -1q39 -7 63 -44l109 -157q67 25 137 25q66 0 133 -24l107 157q31 45 86 45q31 0 57 -18q42 -29 42 -83q0 -31 -18 -59l-108 -159q91 -105 91 -247q0 -143 -96 -255l110 -157q0 -1 1 -1q18 -28 18 -56q0 -54 -44 -83 q-29 -20 -60 -20q-53 0 -82 45l-112 159q-60 -20 -125 -20q-67 0 -124 20l-116 -167q-31 -46 -83 -46q-30 0 -57 18q-37 25 -43 66q-2 18 -2 20q0 30 17 55l116 168q-95 109 -95 254q0 134 86 244l-113 162v1q-16 25 -16 55zM309 664q0 -80 58 -140q56 -58 137 -58 q84 0 140 58t56 140q0 81 -56 139q-57 57 -140 57q-82 0 -137 -57q-58 -60 -58 -139z" />
<glyph unicode="&#xa5;" horiz-adv-x="1241" d="M25 1202q0 52 34 80q31 26 70 26q46 0 74 -36l412 -527l412 529q30 35 76 35q35 0 65 -25q37 -33 37 -78q0 -35 -24 -68l-408 -523h123q27 0 45 -18t18 -44q0 -27 -18 -45.5t-45 -18.5h-177v-110h177q27 0 45 -18.5t18 -44.5q0 -27 -18 -45t-45 -18h-177v-153 q0 -42 -30 -71t-73 -29t-72 28.5t-29 71.5v153h-166q-27 0 -44.5 18t-17.5 45t17.5 45t44.5 18h166v110h-166q-27 0 -44.5 18.5t-17.5 45.5t17.5 44.5t44.5 17.5h110l-411 522q-23 29 -23 65z" />
<glyph unicode="&#xa6;" horiz-adv-x="471" d="M133 -214v530q0 43 29 73t72 30q44 0 74 -30t30 -73v-530q0 -42 -30 -72t-74 -30q-43 0 -72 29.5t-29 72.5zM133 676v532q0 44 30 74t71 30q44 0 74 -30t30 -74v-532q0 -43 -30 -73q-31 -31 -74 -31q-40 0 -71 31q-30 30 -30 73z" />
<glyph unicode="&#xa7;" horiz-adv-x="1030" d="M58 561q0 138 88 243q-44 65 -44 162q0 163 131 273q123 104 298 104q123 0 230 -48q109 -51 163 -144q10 -19 10 -39q0 -3 -2 -19q-6 -28 -27 -49q-24 -24 -68 -24q-37 0 -60 18q-60 57 -106 77q-59 25 -136 25q-97 0 -160 -46q-68 -49 -68 -127t88 -117q51 -20 95 -29 q58 -12 142 -33q52 -13 113 -39q145 -64 209 -187q33 -63 33 -149q0 -139 -89 -243q44 -65 44 -161q0 -163 -131 -273q-125 -106 -298 -106q-126 0 -228 49q-108 51 -164 144q-10 19 -10 39q0 3 2 19q6 28 26 48q26 26 68 26q32 0 60 -20q58 -55 109 -76q58 -25 134 -25 q97 0 161 46q67 48 67 127t-88 118q-48 19 -95 28q-54 11 -114 24q-169 45 -263 126q-120 102 -120 258zM246 571q0 -84 86 -135q54 -31 172 -63q167 -35 253 -80q42 45 42 109q0 86 -86 137q-56 32 -172 62q-167 34 -253 80q-42 -45 -42 -110z" />
<glyph unicode="&#xa8;" horiz-adv-x="798" d="M106 1242q0 48 33 81q34 34 81 34t81 -34t34 -81t-34 -81q-33 -33 -81 -33t-81 33t-33 81zM484 1242q0 47 34 81t80 34q48 0 82 -34q33 -33 33 -81t-33 -81t-82 -33q-47 0 -80 33q-34 34 -34 81z" />
<glyph unicode="&#xa9;" horiz-adv-x="1455" d="M-4 606q0 204 99 372q102 174 262 265q168 99 373 99q149 0 283.5 -56.5t237.5 -159.5q103 -102 159.5 -236.5t56.5 -283.5q0 -201 -100 -370q-104 -175 -265 -266q-172 -100 -372 -100q-150 0 -284 56.5t-236 158.5q-102 101 -158 236t-56 285zM170 606 q0 -115 42.5 -217.5t120.5 -180.5q77 -77 180 -120t217 -43t217 42.5t181 120.5t120.5 180.5t42.5 217.5q0 114 -42.5 216t-120.5 180t-181 120.5t-217 42.5t-217 -43t-180 -120q-78 -78 -120.5 -180t-42.5 -216zM305 598v1q0 1 1 1v1l-1 2q0 176 126 302q126 124 304 124 q176 0 289 -115q32 -29 32 -69q0 -37 -28 -60t-55 -23q-3 0 -19 2q-19 4 -60 33q-74 64 -174 59q-101 -2 -172 -79q-70 -76 -70 -173l-1 -2l1 -1q0 -96 70 -172q73 -80 178 -80q100 0 168 61q41 28 60 32q3 1 17 1q29 0 57 -24q28 -23 28 -60q0 -39 -32 -68 q-112 -114 -289 -114q-179 0 -304 122q-126 124 -126 299z" />
<glyph unicode="&#xaa;" horiz-adv-x="897" d="M44 922q0 164 117 281q115 117 280 117q164 0 276 -117q109 -115 109 -281v-296q0 -45 -30 -75q-31 -31 -75 -31q-34 0 -58.5 18t-34.5 49q-86 -63 -187 -63q-163 0 -280 117t-117 281zM245 922q0 -83 57 -140q58 -58 139 -58q83 0 141 58t58 140q0 81 -58 141 q-60 58 -141 58t-139 -58q-57 -57 -57 -141z" />
<glyph unicode="&#xab;" horiz-adv-x="1287" d="M37 484q0 42 31 73l8 7l375 370q31 31 72 31q40 0 74 -31q31 -31 31 -72t-31 -72l-313 -308l311 -309q31 -31 31 -73q0 -40 -31 -71t-73 -31q-41 0 -72 31l-382 382q-31 31 -31 73zM622 478q-5 46 30 81l2 2l380 374q31 31 73 31t73 -31q30 -30 30 -71q0 -42 -30 -72 l-313 -307l312 -310q31 -28 31 -73q0 -41 -30 -71q-31 -31 -74 -31q-42 0 -73 31l-379 379q-2 0 -2 2q-1 0 -1 1l-3 3q-25 25 -26 62z" />
<glyph unicode="&#xac;" horiz-adv-x="1031" d="M44 630q0 44 30 73.5t73 29.5h696q41 -1 71 -31q29 -29 29 -72v-235q0 -43 -30 -73q-31 -31 -72 -31q-43 0 -73.5 30.5t-30.5 73.5v132h-590q-41 0 -72 31t-31 72z" />
<glyph unicode="&#xad;" horiz-adv-x="931" d="M86 606q0 30 20 50t50 20h629q30 0 51 -20t21 -49q0 -30 -21 -51.5t-51 -21.5h-629q-30 0 -50 20.5t-20 51.5z" />
<glyph unicode="&#xae;" horiz-adv-x="1462" d="M0 612q0 149 56 284.5t158 237.5t236 158.5t283 56.5q203 0 373 -100q163 -94 265 -265q100 -170 100 -372q0 -200 -100 -369q-104 -175 -265 -266q-173 -100 -373 -100q-199 0 -372 100q-169 100 -262 266q-99 168 -99 369zM186 612q0 -113 42 -213.5t118 -175.5 q75 -76 175.5 -118t212.5 -42t212.5 41.5t177.5 118.5q160 160 160 389q0 109 -42.5 210.5t-117.5 178.5q-77 77 -177.5 118.5t-212.5 41.5q-228 0 -388 -160q-76 -76 -118 -177.5t-42 -211.5zM493 302v283q5 157 115 266q113 111 269 111h4q33 0 52 -19t19 -50 q0 -30 -20 -49.5t-51 -19.5h-4q-101 0 -172 -71q-74 -74 -74 -175v-276q0 -30 -19.5 -49.5t-47.5 -19.5q-31 0 -51 19.5t-20 49.5z" />
<glyph unicode="&#xaf;" horiz-adv-x="860" d="M173 1210q0 37 25 61.5t63 24.5h404q37 0 63 -24q26 -28 26 -62q0 -35 -26 -63t-63 -28h-404q-37 0 -62.5 26.5t-25.5 64.5z" />
<glyph unicode="&#xb0;" horiz-adv-x="766" d="M82 913q0 135 97 232q97 95 230 95q135 0 232 -95q95 -92 95 -232q0 -135 -95 -232q-98 -98 -232 -98q-132 0 -230 98q-97 97 -97 232zM251 912q0 -65 46 -111t113 -46q65 0 111 46t46 111q0 67 -46 113t-111 46q-67 0 -113 -46t-46 -113z" />
<glyph unicode="&#xb1;" horiz-adv-x="841" d="M22 796q0 39 29 73q29 31 73 31h193v194q0 43 31 72q35 30 73 30q43 0 73 -30q29 -29 29 -72v-194h195q44 0 73 -31q29 -34 29 -74q0 -43 -29.5 -72t-72.5 -29h-195v-194q0 -43 -29.5 -73t-72.5 -30q-42 0 -73 31t-31 72v194h-193q-43 0 -73 30q-29 29 -29 72zM33 97 q0 43 30.5 73.5t73.5 30.5h577q44 0 73 -31q30 -35 30 -73q0 -41 -30 -71q-31 -31 -73 -31h-577q-43 0 -74 31q-30 30 -30 71z" />
<glyph unicode="&#xb2;" horiz-adv-x="706" d="M46 624q0 39 26 63l331 310q21 24 21 51q0 35 -21.5 58t-57.5 23q-30 0 -53 -16t-29 -41q-2 -41 -31 -69t-71 -28t-70 30q-29 31 -29 70q0 25 10 45q0 2 1 3q19 73 87 124q76 56 182 56q119 0 203 -73q82 -71 82 -180q0 -88 -40 -132q-1 0 -1 -2l-7 -9l-199 -204h158 q43 0 70.5 -28t27.5 -70q0 -41 -27.5 -67.5t-70.5 -26.5h-390q-34 0 -59.5 19t-34.5 49v3l-1 1q-7 17 -7 41z" />
<glyph unicode="&#xb3;" horiz-adv-x="619" d="M20 1224q0 37 28 63q23 23 54 23h379q13 0 27 -6q23 -9 38 -31t15 -47q0 -28 -16 -47q-3 -11 -9 -17l-130 -136q77 -28 121 -90t44 -144q0 -115 -82 -197t-197 -82q-77 0 -145 46q-64 41 -102 111q-7 13 -7 30q0 41 36 62q17 9 34 9q36 0 56 -33l5 -10q38 -63 133 -63 q51 0 82 34q34 35 34 84q0 46 -33.5 76t-83.5 30h-58v1q-40 0 -63 23q-21 17 -21 45q0 29 19 48l135 139h-211q-32 0 -54 19q-28 23 -28 60z" />
<glyph unicode="&#xb4;" horiz-adv-x="509" d="M66 1583q0 44 30 74l136 137q31 31 74 31q38 0 73 -30q31 -31 31 -73q0 -40 -31 -71l-138 -140q-30 -30 -73 -30q-42 0 -72 30t-30 72z" />
<glyph unicode="&#xb5;" horiz-adv-x="1186" d="M133 -243v1105q0 44 31 73q35 30 73 30q42 0 71 -30t29 -73v-431q0 -114 86 -197q85 -83 198 -83q114 0 194 83q79 82 79 197v431q0 43 29 73t72 30t73 -30t30 -73v-432q-2 -199 -139 -343q-66 -68 -153 -105t-185 -37q-154 0 -284 91v-279q0 -44 -28 -73.5t-71 -29.5 q-40 0 -74 31q-31 29 -31 72z" />
<glyph unicode="&#xb6;" horiz-adv-x="1472" d="M44 859q0 186 131 319q62 63 145 98t172 35h861q44 0 73.5 -28t29.5 -70q0 -39 -30 -74q-29 -31 -73 -31h-88v-1005q0 -43 -31 -73t-75 -30q-42 0 -70 34t-28 77v997h-293v-999q0 -42 -28 -76q-27 -33 -70 -33q-44 0 -75 30t-31 73v310h-72q-91 0 -173 34t-144 97 q-62 62 -96.5 144t-34.5 171zM243 859q0 -104 69 -170q68 -68 169 -68h83v480h-83q-100 0 -169 -71t-69 -171z" />
<glyph unicode="&#xb7;" horiz-adv-x="357" d="M53 498q0 50 35 85t84 35q50 0 88 -35q35 -35 35 -85q0 -51 -35 -86q-39 -36 -88 -36q-48 0 -84 36q-35 35 -35 86z" />
<glyph unicode="&#xb8;" horiz-adv-x="481" d="M67 -306q0 29 19 48t47 19q26 0 44.5 -19t19.5 -46q0 -38 27.5 -65t64.5 -27q39 0 65 27t26 65q0 42 -29 67t-80 25q-72 0 -72 53v197q0 22 20 38t45 16t45.5 -16t20.5 -38v-126q75 -12 128 -74q50 -59 50 -144q0 -90 -65 -155q-66 -64 -156 -64q-92 0 -156 64t-64 155z " />
<glyph unicode="&#xb9;" horiz-adv-x="540" d="M10 1074q0 15 3 27q11 42 47 64l227 131q24 13 51 15h8q43 -2 72 -31.5t29 -72.5v-567q0 -43 -30.5 -73t-74.5 -30q-41 0 -74 30q-30 29 -30 73v384l-70 -40q-26 -14 -51 -14q-57 0 -92 52q-15 25 -15 52z" />
<glyph unicode="&#xba;" horiz-adv-x="897" d="M51 922q0 163 117 280q116 116 279 116q165 0 281 -116t116 -280q0 -165 -116 -281q-117 -117 -281 -117q-162 0 -279 117t-117 281zM249 922q0 -84 58 -141q57 -58 140 -58t139 58q57 57 57 141q0 81 -57 138t-139 57q-83 0 -140 -57q-58 -56 -58 -138z" />
<glyph unicode="&#xbb;" horiz-adv-x="1287" d="M35 864q0 40 31 71t72 31q42 0 73 -31l383 -376q29 -29 30 -66q5 -52 -30 -81l-382 -381q-31 -31 -73 -31q-41 0 -72 31t-31 72t31 72l311 310l-312 307q-31 31 -31 72zM618 862q0 42 30 72q34 31 74 31q42 0 73 -31l373 -370l10 -7q11 -11 20 -31l3 -6q6 -18 6 -37 q0 -43 -29 -72l-382 -382q-31 -31 -73 -31t-73 31q-30 30 -30 71q0 43 30 73l312 309l-314 308q-30 30 -30 72z" />
<glyph unicode="&#xbc;" horiz-adv-x="1705" />
<glyph unicode="&#xbd;" horiz-adv-x="1650" />
<glyph unicode="&#xbe;" horiz-adv-x="1679" />
<glyph unicode="&#xbf;" horiz-adv-x="940" d="M9 84q0 168 123 286q121 115 292 115h4v80q0 44 29 74.5t71 30.5q43 0 73.5 -30.5t30.5 -74.5v-180q0 -44 -31 -73q-33 -30 -73 -30h-108q-87 0 -145 -58q-62 -59 -62 -140q0 -86 57 -145q59 -62 150 -62q83 0 142 57q63 59 65 145v5q0 44 28 74t70 30q40 0 74 -29 q31 -29 31 -74v-7q-2 -168 -121 -286q-122 -119 -288 -119q-172 0 -290 121q-122 119 -122 290zM419 895q0 44 33 77t77 33q45 0 78 -33q32 -33 32 -77q0 -47 -32 -79q-33 -33 -78 -33q-44 0 -77 33q-33 30 -33 79z" />
<glyph unicode="&#xc0;" horiz-adv-x="1205" d="M23 96q0 27 10 47l480 1105q27 63 93 63q67 0 92 -62l476 -1106q10 -20 10 -47q0 -62 -57 -87q-19 -9 -43 -9q-18 0 -35 6q-40 14 -59 54l-128 305h-519l-126 -304q-16 -41 -56 -54q-18 -7 -37 -7q-23 0 -44 9q-57 25 -57 87zM339 1661q0 42 31 73q34 29 73 29 q43 0 73 -30l136 -138q31 -31 31 -73q0 -41 -31 -72t-71 -31q-42 0 -73 31l-138 139q-31 31 -31 72zM428 568h348l-175 417z" />
<glyph unicode="&#xc1;" horiz-adv-x="1205" d="M23 96q0 27 10 47l480 1105q27 63 93 63q67 0 92 -62l476 -1106q10 -20 10 -47q0 -62 -57 -87q-19 -9 -43 -9q-18 0 -35 6q-40 14 -59 54l-128 305h-519l-126 -304q-16 -41 -56 -54q-18 -7 -37 -7q-23 0 -44 9q-57 25 -57 87zM428 568h348l-175 417zM543 1508q0 44 30 74 l137 137q31 31 73 31q38 0 73 -30q31 -31 31 -72t-31 -72l-138 -139q-31 -31 -73 -31q-41 0 -72 31q-30 30 -30 71z" />
<glyph unicode="&#xc2;" horiz-adv-x="1205" d="M23 96q0 27 10 47l480 1105q27 63 93 63q67 0 92 -62l476 -1106q10 -20 10 -47q0 -62 -57 -87q-19 -9 -43 -9q-18 0 -35 6q-40 14 -59 54l-128 305h-519l-126 -304q-16 -41 -56 -54q-18 -7 -37 -7q-23 0 -44 9q-57 25 -57 87zM301 1486q0 30 25 55l217 219q22 22 47 25 q2 1 9 1h9q6 0 7 -1q24 -3 48 -25l217 -219q25 -25 25 -57q0 -25 -17.5 -48.5t-42.5 -31.5q-9 -4 -26 -4q-32 0 -56 24l-161 161l-160 -161q-24 -24 -56 -24q-17 0 -26 4q-42 13 -55 56q-4 9 -4 26zM428 568h348l-175 417z" />
<glyph unicode="&#xc3;" horiz-adv-x="1205" d="M23 96q0 27 10 47l480 1105q27 63 93 63q67 0 92 -62l476 -1106q10 -20 10 -47q0 -62 -57 -87q-19 -9 -43 -9q-18 0 -35 6q-40 14 -59 54l-128 305h-519l-126 -304q-16 -41 -56 -54q-18 -7 -37 -7q-23 0 -44 9q-57 25 -57 87zM222 1501q-2 33 23 58q24 36 74 75 q69 54 146 54q75 0 152 -60l21 -15q24 -19 53 -30q13 -6 28 -6q49 0 98 63q3 3 5 6.5t4 5.5l1 2q23 23 58 23q34 0 58 -23.5t25 -56.5q0 -30 -24 -57q-20 -35 -74 -76q-69 -53 -146 -53q-70 0 -155 64l-18 14q-22 17 -51 28q-17 5 -28 5q-50 0 -96 -60q-7 -11 -14 -18 q-25 -25 -58 -25t-57 24q-25 23 -25 58zM428 568h348l-175 417z" />
<glyph unicode="&#xc4;" horiz-adv-x="1205" d="M23 96q0 27 10 47l480 1105q27 63 93 63q67 0 92 -62l476 -1106q10 -20 10 -47q0 -62 -57 -87q-19 -9 -43 -9q-18 0 -35 6q-40 14 -59 54l-128 305h-519l-126 -304q-16 -41 -56 -54q-18 -7 -37 -7q-23 0 -44 9q-57 25 -57 87zM295 1530q0 48 33 81q34 34 81 34 q46 0 80 -34t34 -81t-34 -81q-33 -33 -80 -33q-48 0 -81 33t-33 81zM428 568h348l-175 417zM673 1530q0 47 34 81t79 34q48 0 82 -34q33 -33 33 -81t-33 -81t-82 -33q-46 0 -79 33q-34 34 -34 81z" />
<glyph unicode="&#xc5;" horiz-adv-x="1205" d="M23 96q0 27 10 47l480 1105q27 63 93 63q67 0 92 -62l476 -1106q10 -20 10 -47q0 -62 -57 -87q-19 -9 -43 -9q-18 0 -35 6q-40 14 -59 54l-128 305h-519l-126 -304q-16 -41 -56 -54q-18 -7 -37 -7q-23 0 -44 9q-57 25 -57 87zM384 1583q0 91 65 156q63 63 154 63 q92 0 157 -63q63 -63 63 -156q0 -92 -63 -155q-66 -66 -157 -66q-90 0 -154 66q-65 65 -65 155zM428 568h348l-175 417zM525 1583q0 -33 23 -56t56 -23t56 23t23 56t-23 56.5t-56 23.5t-56 -23.5t-23 -56.5z" />
<glyph unicode="&#xc6;" horiz-adv-x="1637" d="M22 101q0 36 23 64l851 1099q27 41 78 46q2 0 3 1h2h512q44 0 75 -31q30 -30 30 -75q0 -43 -30 -73q-28 -32 -75 -32h-402v-369h259q45 0 73 -30q30 -35 30 -73q0 -44 -30 -75t-73 -31l-259 -2v-311l400 -1q43 0 74 -31q30 -30 30 -74t-30 -73q-35 -31 -74 -30h-510 q-41 2 -71 32q-29 29 -29 71v155h-498l-171 -220q-35 -41 -83 -41q-37 0 -65 22q-40 29 -40 82zM544 467h335v431z" />
<glyph unicode="&#xc7;" horiz-adv-x="1255" d="M44 652q0 175 87 329q86 153 234 244q154 95 344 95q133 0 255 -50.5t217 -147.5q29 -29 29 -69q0 -44 -28 -72q-35 -30 -73 -30q-44 0 -72 28q-135 135 -329 135q-188 0 -324 -133q-135 -135 -135 -327q0 -188 130 -323q132 -138 326 -140q190 0 330 135q30 27 72 27 t71 -26q29 -29 29 -72q0 -42 -27 -72q-171 -168 -402 -191v-92q75 -12 128 -74q50 -59 50 -144q0 -91 -64 -155q-67 -65 -157 -65t-155 65t-65 155q0 28 19.5 47.5t47.5 19.5q26 0 44 -18.5t19 -46.5q0 -38 27.5 -65.5t64.5 -27.5q38 0 64.5 27.5t26.5 65.5q0 43 -28.5 67.5 t-79.5 24.5q-73 0 -73 53v162q-163 13 -305 107q-136 90 -216 236q-82 149 -82 318z" />
<glyph unicode="&#xc8;" horiz-adv-x="933" d="M133 101v1107q0 43 30 73t73 30h546q42 0 72 -30q29 -29 29 -73q0 -43 -29 -72t-72 -29h-445v-354h321q44 1 73 -28t29 -73q0 -42 -29.5 -70t-72.5 -28h-321v-351h445q43 0 72 -30t29 -73q0 -42 -29 -71q-30 -30 -72 -29h-555q-41 3 -67.5 31t-26.5 70zM231 1665 q0 42 31 73q34 29 74 29q43 0 73 -30l136 -138q30 -30 30 -73q0 -42 -30 -72q-31 -31 -72 -31q-42 0 -73 31l-138 139q-31 31 -31 72z" />
<glyph unicode="&#xc9;" horiz-adv-x="933" d="M133 101v1107q0 43 30 73t73 30h546q42 0 72 -30q29 -29 29 -73q0 -43 -29 -72t-72 -29h-445v-354h321q44 1 73 -28t29 -73q0 -42 -29.5 -70t-72.5 -28h-321v-351h445q43 0 72 -30t29 -73q0 -42 -29 -71q-30 -30 -72 -29h-555q-41 3 -67.5 31t-26.5 70zM383 1500 q0 43 31 74l136 137q31 31 74 31q37 0 72 -30q31 -31 31 -73q0 -40 -31 -71l-138 -140q-30 -30 -73 -30q-41 0 -71 30q-31 31 -31 72z" />
<glyph unicode="&#xca;" horiz-adv-x="933" d="M133 101v1107q0 43 30 73t73 30h546q42 0 72 -30q29 -29 29 -73q0 -43 -29 -72t-72 -29h-445v-354h321q44 1 73 -28t29 -73q0 -42 -29.5 -70t-72.5 -28h-321v-351h445q43 0 72 -30t29 -73q0 -42 -29 -71q-30 -30 -72 -29h-555q-41 3 -67.5 31t-26.5 70zM157 1505 q0 32 24 56l217 219q21 21 47 24q2 1 10 1h9q6 0 7 -1q25 -3 47 -24l217 -219q26 -26 26 -58q0 -25 -18 -48.5t-43 -31.5q-9 -4 -25 -4q-32 0 -57 25l-160 161l-160 -161q-25 -25 -56 -25q-17 0 -26 4q-41 13 -55 57q-4 9 -4 25z" />
<glyph unicode="&#xcb;" horiz-adv-x="933" d="M133 101v1107q0 43 30 73t73 30h546q42 0 72 -30q29 -29 29 -73q0 -43 -29 -72t-72 -29h-445v-354h321q44 1 73 -28t29 -73q0 -42 -29.5 -70t-72.5 -28h-321v-351h445q43 0 72 -30t29 -73q0 -42 -29 -71q-30 -30 -72 -29h-555q-41 3 -67.5 31t-26.5 70zM191 1540 q0 48 33 81q34 34 81 34t81 -34t34 -81t-34 -81q-33 -33 -81 -33t-81 33t-33 81zM569 1540q0 47 34 81t80 34q48 0 82 -34q33 -33 33 -81t-33 -81t-82 -33q-47 0 -80 33q-34 34 -34 81z" />
<glyph unicode="&#xcc;" horiz-adv-x="470" d="M-17 1657q0 43 30 73q34 29 74 29q43 0 73 -30l136 -138q31 -31 31 -73q0 -41 -31 -72t-72 -31t-72 31l-139 139q-30 30 -30 72zM133 100v1110q0 43 29 72t72 29t73 -29t30 -72v-1110q0 -42 -30 -71t-73 -29t-72 28.5t-29 71.5z" />
<glyph unicode="&#xcd;" horiz-adv-x="470" d="M133 100v1110q0 43 29 72t72 29t73 -29t30 -72v-1110q0 -42 -30 -71t-73 -29t-72 28.5t-29 71.5zM147 1523q0 42 31 73l136 138q30 30 74 30q39 0 73 -29q31 -31 31 -73q0 -41 -31 -72l-138 -139q-31 -31 -73 -31q-41 0 -72 31t-31 72z" />
<glyph unicode="&#xce;" horiz-adv-x="470" d="M-63 1495q0 31 24 55l217 219q22 22 47 25q2 1 9 1h10q6 0 7 -1q23 -3 47 -25l217 -219q26 -26 26 -57q0 -25 -18 -48.5t-43 -31.5q-9 -4 -25 -4q-32 0 -57 25l-160 160l-160 -160q-25 -25 -56 -25q-17 0 -26 4q-42 13 -55 56q-4 9 -4 26zM133 100v1110q0 43 29 72t72 29 t73 -29t30 -72v-1110q0 -42 -30 -71t-73 -29t-72 28.5t-29 71.5z" />
<glyph unicode="&#xcf;" horiz-adv-x="470" d="M-65 1536q0 48 33 81q34 34 81 34t81 -34t34 -81t-34 -81q-33 -33 -81 -33t-81 33t-33 81zM133 100v1110q0 43 29 72t72 29t73 -29t30 -72v-1110q0 -42 -30 -71t-73 -29t-72 28.5t-29 71.5zM313 1536q0 47 34 81t80 34q48 0 82 -34q33 -33 33 -81t-33 -81t-82 -33 q-47 0 -80 33q-34 34 -34 81z" />
<glyph unicode="&#xd0;" horiz-adv-x="1259" d="M-37 657q0 36 24.5 60.5t60.5 24.5h85v468q0 43 29 72t72 29h226q184 0 337 -88q152 -87 239 -236q91 -156 91 -334q0 -179 -90 -331q-88 -147 -239 -234q-155 -88 -335 -88h-229q-43 0 -72 28.5t-29 71.5v468h-85q-36 0 -60.5 26t-24.5 63zM337 205h124q193 0 327 128 q135 130 135 320q0 187 -133 320q-132 130 -324 132h-129v-363h126q36 0 61.5 -25t25.5 -60q0 -37 -25 -63t-62 -26h-126v-363z" />
<glyph unicode="&#xd1;" horiz-adv-x="1232" d="M133 100v1107q0 43 29 72t72 29h2q8 0 16 -2l14 -3q17 -6 30 -16l11 -9q12 -11 19 -25l608 -850v807q0 43 30 72t73 29q46 0 72 -29q29 -31 29 -72v-1110q0 -34 -20 -60.5t-52 -35.5q-14 -4 -18 -4h-12q-35 0 -63 22q-17 13 -19 17l-617 864v-803q0 -42 -30 -71t-73 -29 t-72 28.5t-29 71.5zM307 1498q-1 33 23 57q25 38 74 76q68 53 146 53q76 0 152 -59l21 -15q24 -19 53 -30q14 -6 28 -6q48 0 98 63q3 3 5 6.5t3 5.5l2 2q23 23 58 23q34 0 58 -23.5t25 -56.5q0 -30 -24 -57q-20 -35 -74 -76q-69 -53 -146 -53q-72 0 -155 63l-18 15 q-20 15 -51 27q-20 6 -28 6q-49 0 -96 -60q-7 -11 -14 -18q-25 -25 -58 -25t-57 24q-25 23 -25 58z" />
<glyph unicode="&#xd2;" horiz-adv-x="1419" d="M44 653q0 183 90 337q88 152 238 239q158 91 336 91q181 0 336 -91q153 -89 240 -239q91 -159 91 -337q0 -134 -51 -255.5t-144 -214.5t-215 -144t-257 -51t-256.5 51t-213.5 144q-93 93 -143.5 214.5t-50.5 255.5zM249 653q0 -193 134 -327q63 -64 147.5 -99.5 t178.5 -35.5q192 0 327 135q134 134 134 327q0 93 -35 177.5t-99 148.5q-135 135 -327 135q-94 0 -178.5 -35.5t-147.5 -99.5q-64 -64 -99 -148.5t-35 -177.5zM442 1658q0 42 31 73q34 29 74 29q43 0 73 -30l136 -138q30 -30 30 -73q0 -42 -30 -72q-31 -31 -72 -31 q-42 0 -73 31l-138 139q-31 31 -31 72z" />
<glyph unicode="&#xd3;" horiz-adv-x="1419" d="M44 653q0 183 90 337q88 152 238 239q158 91 336 91q181 0 336 -91q153 -89 240 -239q91 -159 91 -337q0 -134 -51 -255.5t-144 -214.5t-215 -144t-257 -51t-256.5 51t-213.5 144q-93 93 -143.5 214.5t-50.5 255.5zM249 653q0 -193 134 -327q63 -64 147.5 -99.5 t178.5 -35.5q192 0 327 135q134 134 134 327q0 93 -35 177.5t-99 148.5q-135 135 -327 135q-94 0 -178.5 -35.5t-147.5 -99.5q-64 -64 -99 -148.5t-35 -177.5zM680 1530q0 43 31 74l136 137q31 31 74 31q37 0 72 -30q31 -31 31 -73q0 -41 -31 -72l-138 -139q-31 -31 -73 -31 q-40 0 -71 31t-31 72z" />
<glyph unicode="&#xd4;" horiz-adv-x="1419" d="M44 653q0 183 90 337q88 152 238 239q158 91 336 91q181 0 336 -91q153 -89 240 -239q91 -159 91 -337q0 -134 -51 -255.5t-144 -214.5t-215 -144t-257 -51t-256.5 51t-213.5 144q-93 93 -143.5 214.5t-50.5 255.5zM249 653q0 -193 134 -327q63 -64 147.5 -99.5 t178.5 -35.5q192 0 327 135q134 134 134 327q0 93 -35 177.5t-99 148.5q-135 135 -327 135q-94 0 -178.5 -35.5t-147.5 -99.5q-64 -64 -99 -148.5t-35 -177.5zM408 1503q0 33 24 57l217 219q21 21 47 24q2 1 10 1h9q6 0 7 -1q25 -3 47 -24l217 -219q26 -26 26 -58 q0 -11 -4 -23q-7 -19 -22.5 -35t-34.5 -22q-9 -4 -25 -4q-32 0 -57 25l-160 161l-160 -161q-25 -25 -56 -25q-17 0 -26 4q-41 13 -55 57q-4 9 -4 24z" />
<glyph unicode="&#xd5;" horiz-adv-x="1419" d="M44 653q0 183 90 337q88 152 238 239q158 91 336 91q181 0 336 -91q153 -89 240 -239q91 -159 91 -337q0 -134 -51 -255.5t-144 -214.5t-215 -144t-257 -51t-256.5 51t-213.5 144q-93 93 -143.5 214.5t-50.5 255.5zM249 653q0 -193 134 -327q63 -64 147.5 -99.5 t178.5 -35.5q192 0 327 135q134 134 134 327q0 93 -35 177.5t-99 148.5q-135 135 -327 135q-94 0 -178.5 -35.5t-147.5 -99.5q-64 -64 -99 -148.5t-35 -177.5zM368 1549q-2 34 22 58q23 35 75 75q69 54 145 54t153 -60l20 -15q4 -3 26 -16q37 -20 55 -20q49 0 99 64 q9 12 10 13q23 23 57 23t57 -23q26 -26 26 -58q0 -30 -23 -56q-20 -35 -74 -76q-69 -53 -147 -53q-69 0 -154 64l-19 14l-23 15q-36 18 -56 18q-49 0 -96 -60q-8 -13 -13 -18q-25 -25 -58 -25q-34 0 -58 24q-24 23 -24 58z" />
<glyph unicode="&#xd6;" horiz-adv-x="1419" d="M44 653q0 183 90 337q88 152 238 239q158 91 336 91q181 0 336 -91q153 -89 240 -239q91 -159 91 -337q0 -134 -51 -255.5t-144 -214.5t-215 -144t-257 -51t-256.5 51t-213.5 144q-93 93 -143.5 214.5t-50.5 255.5zM249 653q0 -193 134 -327q63 -64 147.5 -99.5 t178.5 -35.5q192 0 327 135q134 134 134 327q0 93 -35 177.5t-99 148.5q-135 135 -327 135q-94 0 -178.5 -35.5t-147.5 -99.5q-64 -64 -99 -148.5t-35 -177.5zM394 1536q0 48 33 81q34 34 81 34t81 -34t34 -81t-34 -81q-33 -33 -81 -33t-81 33t-33 81zM772 1536q0 47 34 81 t80 34q48 0 82 -34q32 -32 32 -81t-32 -81q-33 -33 -82 -33q-47 0 -80 33q-34 34 -34 81z" />
<glyph unicode="&#xd7;" horiz-adv-x="1009" d="M81 835q0 36 29 65q28 28 65 28q35 0 66 -28l276 -278l275 276q29 29 67 29q39 0 66 -27q28 -28 28 -65q0 -42 -25 -67l-279 -281l272 -272q27 -27 27 -67q0 -42 -27 -66q-28 -28 -66 -28q-40 0 -67 27l-271 273l-270 -273q-28 -28 -68 -28q-44 0 -68 28q-28 26 -28 64 q0 37 28 67l274 276l-277 281q-27 27 -27 66z" />
<glyph unicode="&#xd8;" horiz-adv-x="1419" d="M44 653q0 183 90 337q88 151 239 239q155 91 337 91q202 0 375 -118l62 66q34 37 80 37q33 0 67 -26q36 -29 36 -75q0 -38 -24 -68l-71 -75q139 -181 139 -408q0 -134 -50.5 -255t-142.5 -215q-92 -93 -214 -144t-257 -51q-208 0 -373 113l-61 -64q-33 -36 -78 -36 q-41 0 -67 24q-36 28 -36 79q0 40 24 66l66 72q-141 178 -141 411zM254 653q0 -140 77 -256l608 649q-103 62 -229 62q-92 0 -176 -35t-147 -98t-98 -147t-35 -175zM482 257q103 -59 228 -59q191 0 321 133q63 63 97.5 146.5t34.5 175.5q0 140 -74 251z" />
<glyph unicode="&#xd9;" horiz-adv-x="1161" d="M93 467v740q0 43 30 73t72 30t72 -30t30 -73v-735q0 -115 81 -199q84 -84 206 -84q121 0 199 84q75 81 75 199v738q0 44 30 72q31 29 71 29q43 0 73 -29t30 -72v-743q0 -204 -132 -338q-135 -140 -345 -140q-212 0 -352 140q-67 66 -103.5 153.5t-36.5 184.5zM396 1638 q0 42 31 73q35 30 74 30q41 0 72 -31l137 -137q30 -30 30 -74q0 -42 -30 -72t-72 -30q-43 0 -73 30l-138 140q-31 31 -31 71z" />
<glyph unicode="&#xda;" horiz-adv-x="1161" d="M93 467v740q0 43 30 73t72 30t72 -30t30 -73v-735q0 -115 81 -199q84 -84 206 -84q121 0 199 84q75 81 75 199v738q0 44 30 72q31 29 71 29q43 0 73 -29t30 -72v-743q0 -204 -132 -338q-135 -140 -345 -140q-212 0 -352 140q-67 66 -103.5 153.5t-36.5 184.5zM482 1492 q0 43 31 74l136 137q31 31 74 31q38 0 73 -30q30 -30 30 -73q0 -41 -30 -71l-139 -140q-30 -30 -72 -30t-72 30q-31 31 -31 72z" />
<glyph unicode="&#xdb;" horiz-adv-x="1161" d="M93 467v740q0 43 30 73t72 30t72 -30t30 -73v-735q0 -115 81 -199q84 -84 206 -84q121 0 199 84q75 81 75 199v738q0 44 30 72q31 29 71 29q43 0 73 -29t30 -72v-743q0 -204 -132 -338q-135 -140 -345 -140q-212 0 -352 140q-67 66 -103.5 153.5t-36.5 184.5zM269 1459 q0 30 25 55l217 220q21 21 47 24q2 1 9 1h10q6 0 7 -1q25 -3 47 -24l217 -220q25 -25 25 -57q0 -11 -4 -23q-7 -20 -22 -35.5t-34 -21.5q-9 -4 -26 -4q-31 0 -56 25l-161 161l-159 -161q-25 -25 -57 -25q-16 0 -25 4q-42 13 -56 57q-4 9 -4 25z" />
<glyph unicode="&#xdc;" horiz-adv-x="1161" d="M93 467v740q0 43 30 73t72 30t72 -30t30 -73v-735q0 -115 81 -199q84 -84 206 -84q121 0 199 84q75 81 75 199v738q0 44 30 72q31 29 71 29q43 0 73 -29t30 -72v-743q0 -204 -132 -338q-135 -140 -345 -140q-212 0 -352 140q-67 66 -103.5 153.5t-36.5 184.5zM289 1537 q0 48 33 81q34 34 80 34q47 0 81 -34t34 -81t-34 -81q-33 -33 -81 -33q-47 0 -80 33t-33 81zM667 1537q0 48 33 81q34 34 80 34q48 0 82 -34q33 -33 33 -81t-33 -81t-82 -33q-47 0 -80 33t-33 81z" />
<glyph unicode="&#xdd;" horiz-adv-x="1100" d="M22 1203q0 47 35 79q31 26 71 26q44 0 73 -36l347 -527l345 529q27 35 76 35q34 0 64 -25q38 -32 38 -78q0 -36 -25 -68l-396 -593v-445q0 -43 -29.5 -71.5t-72.5 -28.5t-72.5 28.5t-29.5 71.5v444l-400 593q-24 29 -24 66zM545 1500q0 44 30 74l137 137q31 31 73 31 q38 0 73 -30q31 -31 31 -73q0 -40 -31 -71l-138 -140q-30 -30 -73 -30q-42 0 -72 30t-30 72z" />
<glyph unicode="&#xde;" horiz-adv-x="1088" d="M133 100v1110q0 43 29 72t72 29t73 -29t30 -72v-88h220q205 0 345 -131q142 -134 142 -334t-142 -331q-140 -131 -346 -131h-219v-95q0 -42 -30 -71t-73 -29t-72 28.5t-29 71.5zM337 398h222q119 0 201 76q80 77 80 183t-81 185q-79 77 -199 77h-223v-521z" />
<glyph unicode="&#xdf;" horiz-adv-x="1010" d="M133 -171v1085q0 179 110 289q108 113 282 113q147 0 257 -99q109 -103 109 -249q0 -83 -31 -153t-88 -116q88 -45 141 -129q54 -86 54 -191q0 -147 -99 -254q-111 -119 -277 -125h-4q-42 0 -71.5 29t-29.5 71t29.5 71.5t71.5 29.5h5q71 0 125 57q51 56 51 132 q0 77 -55 129q-53 45 -125 45h-26q-46 0 -79 33q-32 32 -32 79q0 48 32 80t79 32h4q60 1 99 57q33 48 33 117q0 67 -50 111q-50 46 -123 46q-77 0 -125 -45q-56 -53 -57 -156v-1089q0 -43 -31 -74q-30 -30 -74 -30t-74 30q-31 31 -31 74z" />
<glyph unicode="&#xe0;" horiz-adv-x="1121" d="M44 476q0 202 143 345q68 68 157.5 106t187.5 38q202 0 344 -142t144 -343v-376q0 -38 -30 -73q-28 -31 -75 -31q-39 0 -67 26.5t-32 66.5q-129 -105 -284 -105q-98 0 -187.5 37.5t-157.5 105.5q-143 143 -143 345zM249 476q0 -116 84 -200q83 -83 199 -83q119 0 202 83 q82 82 82 200q0 119 -82 201t-202 82q-117 0 -199 -82q-84 -84 -84 -201zM292 1340q0 42 31 73q35 30 73 30q42 0 73 -31l136 -137q31 -31 31 -74q0 -41 -31 -72q-30 -30 -71 -30q-43 0 -73 30l-138 140q-31 31 -31 71z" />
<glyph unicode="&#xe1;" horiz-adv-x="1121" d="M44 476q0 202 143 345q68 68 157.5 106t187.5 38q202 0 344 -142t144 -343v-376q0 -38 -30 -73q-28 -31 -75 -31q-39 0 -67 26.5t-32 66.5q-129 -105 -284 -105q-98 0 -187.5 37.5t-157.5 105.5q-143 143 -143 345zM249 476q0 -116 84 -200q83 -83 199 -83q119 0 202 83 q82 82 82 200q0 119 -82 201t-202 82q-117 0 -199 -82q-84 -84 -84 -201zM498 1200q0 44 30 74l137 137q31 31 73 31q38 0 73 -30q31 -31 31 -73q0 -40 -31 -71l-138 -140q-30 -30 -73 -30q-42 0 -72 30t-30 72z" />
<glyph unicode="&#xe2;" horiz-adv-x="1121" d="M44 476q0 202 143 345q68 68 157.5 106t187.5 38q202 0 344 -142t144 -343v-376q0 -38 -30 -73q-28 -31 -75 -31q-39 0 -67 26.5t-32 66.5q-129 -105 -284 -105q-98 0 -187.5 37.5t-157.5 105.5q-143 143 -143 345zM231 1176q0 30 25 55l217 219q22 22 47 25q2 1 9 1h10 q6 0 7 -1q23 -3 47 -25l217 -219q26 -26 26 -57q0 -9 -5 -24q-15 -43 -56 -56q-9 -4 -25 -4q-33 0 -57 24l-161 161l-159 -161q-24 -24 -58 -24q-9 0 -24 4q-42 13 -55 56q-5 12 -5 26zM249 476q0 -116 84 -200q83 -83 199 -83q119 0 202 83q82 82 82 200q0 119 -82 201 t-202 82q-117 0 -199 -82q-84 -84 -84 -201z" />
<glyph unicode="&#xe3;" horiz-adv-x="1121" d="M44 476q0 202 143 345q68 68 157.5 106t187.5 38q202 0 344 -142t144 -343v-376q0 -38 -30 -73q-28 -31 -75 -31q-39 0 -67 26.5t-32 66.5q-129 -105 -284 -105q-98 0 -187.5 37.5t-157.5 105.5q-143 143 -143 345zM179 1184q-1 33 23 57q25 38 74 76q68 53 146 53 q76 0 152 -59l21 -16q22 -18 53 -29q14 -6 28 -6q48 0 98 63q9 12 10 13q24 24 58 24t58 -23.5t25 -56.5q0 -30 -24 -57q-20 -35 -74 -76q-69 -53 -146 -53q-72 0 -155 63l-18 14q-22 17 -51 28q-17 5 -28 5q-50 0 -96 -59q-8 -13 -14 -19q-24 -24 -58 -24t-57 23 q-25 23 -25 59zM249 476q0 -116 84 -200q83 -83 199 -83q119 0 202 83q82 82 82 200q0 119 -82 201t-202 82q-117 0 -199 -82q-84 -84 -84 -201z" />
<glyph unicode="&#xe4;" horiz-adv-x="1121" d="M44 476q0 202 143 345q68 68 157.5 106t187.5 38q202 0 344 -142t144 -343v-376q0 -38 -30 -73q-28 -31 -75 -31q-39 0 -67 26.5t-32 66.5q-129 -105 -284 -105q-98 0 -187.5 37.5t-157.5 105.5q-143 143 -143 345zM231 1215q0 48 33 81q34 34 81 34t81 -34t34 -81 q0 -46 -34 -80q-33 -33 -81 -33t-81 33t-33 80zM249 476q0 -116 84 -200q83 -83 199 -83q119 0 202 83q82 82 82 200q0 119 -82 201t-202 82q-117 0 -199 -82q-84 -84 -84 -201zM609 1215q0 47 34 81t80 34q48 0 82 -34q33 -33 33 -81q0 -47 -33 -80t-82 -33q-47 0 -80 33 q-34 34 -34 80z" />
<glyph unicode="&#xe5;" horiz-adv-x="1121" d="M44 476q0 202 143 345q68 68 157.5 106t187.5 38q202 0 344 -142t144 -343v-376q0 -38 -30 -73q-28 -31 -75 -31q-39 0 -67 26.5t-32 66.5q-129 -105 -284 -105q-98 0 -187.5 37.5t-157.5 105.5q-143 143 -143 345zM249 476q0 -116 84 -200q83 -83 199 -83q119 0 202 83 q82 82 82 200q0 119 -82 201t-202 82q-117 0 -199 -82q-84 -84 -84 -201zM316 1257q0 91 65 156q64 64 155 64q90 0 156 -64q64 -64 64 -156q0 -90 -64 -154q-67 -67 -156 -67q-90 0 -155 67q-65 65 -65 154zM458 1257q0 -33 23 -55.5t56 -22.5t55.5 22.5t22.5 55.5 t-22.5 56.5t-55.5 23.5t-56 -23.5t-23 -56.5z" />
<glyph unicode="&#xe6;" horiz-adv-x="1854" d="M44 476q0 202 143 345q68 68 157.5 106t187.5 38q114 0 213.5 -49t168.5 -137q70 95 174.5 148t224.5 53q204 0 349 -143q146 -146 148 -349q0 -43 -27.5 -70t-72.5 -27h-667q24 -88 100 -148q76 -59 170 -59q118 0 188 76q34 26 69 26q18 0 34 -6q32 -11 49 -43 q17 -28 17 -57q0 -46 -39 -79q-55 -53 -124 -79q-83 -35 -194 -35q-162 0 -295 97q-7 -37 -35.5 -60.5t-67.5 -23.5t-67 26.5t-32 66.5q-129 -105 -284 -105q-98 0 -187.5 37.5t-157.5 105.5q-143 143 -143 345zM249 476q0 -116 84 -200q83 -83 199 -83q119 0 202 83 q82 82 82 200q0 119 -82 201t-202 82q-117 0 -199 -82q-84 -84 -84 -201zM1037 561h564q-22 96 -100 160q-78 62 -184 62q-103 0 -182 -64q-78 -64 -98 -158z" />
<glyph unicode="&#xe7;" horiz-adv-x="952" d="M44 472v1q0 1 1 1v1q-1 0 -1 1q0 202 145 347q68 68 159 106t190 38q98 0 184.5 -34t147.5 -97q37 -37 38 -81q0 -47 -32 -75q-36 -30 -69 -30q-37 0 -93 44q-82 66 -189 66q-113 0 -195 -89q-77 -83 -77 -193l-1 -2l1 -1q0 -108 76 -190q79 -88 190 -89q114 -5 195 65 q55 43 91 43q35 0 71 -30q32 -28 32 -73q-1 -44 -38 -81q-99 -101 -252 -124v-86q75 -12 128 -74q51 -61 51 -144q0 -90 -65 -155q-66 -64 -157 -64t-155 64q-65 65 -65 155q0 28 19.5 47.5t47.5 19.5q26 0 44 -18.5t19 -46.5q0 -37 27.5 -64.5t65.5 -27.5q39 0 65 27t26 65 q0 42 -29 67t-80 25q-73 0 -73 53v153q-187 18 -314 153q-129 137 -129 327z" />
<glyph unicode="&#xe8;" horiz-adv-x="1069" d="M44 476q0 98 37.5 188t106.5 158t159 105.5t188 37.5q97 0 186 -37t158 -105q144 -141 146 -342q0 -43 -28 -70t-72 -27h-655q24 -85 98 -143q71 -57 167 -57q116 0 183 73q34 26 67 26q15 0 34 -7q30 -11 49 -43q18 -28 18 -57q0 -44 -39 -77q-57 -52 -121 -77 q-81 -33 -191 -33q-203 0 -347 142q-69 68 -106.5 157.5t-37.5 187.5zM264 554h551q-23 97 -97 155q-76 61 -180 61q-105 0 -179 -61q-75 -63 -95 -155zM289 1343q0 43 30 73q35 30 74 30q42 0 73 -31l136 -137q31 -31 31 -74q0 -40 -31 -71t-72 -31t-72 31l-139 139 q-30 30 -30 71z" />
<glyph unicode="&#xe9;" horiz-adv-x="1069" d="M44 476q0 98 37.5 188t106.5 158t159 105.5t188 37.5q97 0 186 -37t158 -105q144 -141 146 -342q0 -43 -28 -70t-72 -27h-655q24 -85 98 -143q71 -57 167 -57q116 0 183 73q34 26 67 26q15 0 34 -7q30 -11 49 -43q18 -28 18 -57q0 -44 -39 -77q-57 -52 -121 -77 q-81 -33 -191 -33q-203 0 -347 142q-69 68 -106.5 157.5t-37.5 187.5zM264 554h551q-23 97 -97 155q-76 61 -180 61q-105 0 -179 -61q-75 -63 -95 -155zM501 1193q0 44 30 74l137 137q31 31 73 31q38 0 73 -30q31 -31 31 -73q0 -40 -31 -71l-138 -140q-30 -30 -73 -30 q-42 0 -72 30t-30 72z" />
<glyph unicode="&#xea;" horiz-adv-x="1069" d="M44 476q0 98 37.5 188t106.5 158t159 105.5t188 37.5q97 0 186 -37t158 -105q144 -141 146 -342q0 -43 -28 -70t-72 -27h-655q24 -85 98 -143q71 -57 167 -57q116 0 183 73q34 26 67 26q15 0 34 -7q30 -11 49 -43q18 -28 18 -57q0 -44 -39 -77q-57 -52 -121 -77 q-81 -33 -191 -33q-203 0 -347 142q-69 68 -106.5 157.5t-37.5 187.5zM258 1178q0 30 25 55l217 219q22 22 47 25q2 1 9 1h9q6 0 7 -1q24 -3 48 -25l217 -219q25 -25 25 -57q0 -25 -17.5 -48.5t-42.5 -31.5q-9 -4 -26 -4q-32 0 -56 24l-161 161l-160 -161q-24 -24 -56 -24 q-17 0 -26 4q-42 13 -55 56q-4 9 -4 26zM264 554h551q-23 97 -97 155q-76 61 -180 61q-105 0 -179 -61q-75 -63 -95 -155z" />
<glyph unicode="&#xeb;" horiz-adv-x="1069" d="M44 476q0 98 37.5 188t106.5 158t159 105.5t188 37.5q97 0 186 -37t158 -105q144 -141 146 -342q0 -43 -28 -70t-72 -27h-655q24 -85 98 -143q71 -57 167 -57q116 0 183 73q34 26 67 26q15 0 34 -7q30 -11 49 -43q18 -28 18 -57q0 -44 -39 -77q-57 -52 -121 -77 q-81 -33 -191 -33q-203 0 -347 142q-69 68 -106.5 157.5t-37.5 187.5zM254 1211q0 48 33 81q34 34 81 34t81 -34q33 -33 33 -81t-33 -81q-32 -32 -81 -32t-81 32q-33 33 -33 81zM264 554h551q-23 97 -97 155q-76 61 -180 61q-105 0 -179 -61q-75 -63 -95 -155zM632 1211 q0 47 34 81t79 34q48 0 82 -34q33 -33 33 -81t-33 -81q-32 -32 -82 -32q-47 0 -79 32q-34 34 -34 81z" />
<glyph unicode="&#xec;" horiz-adv-x="409" d="M-69 1324q0 42 31 73q34 29 74 29q43 0 73 -30l136 -138q30 -30 30 -73q0 -42 -30 -72q-31 -31 -72 -31q-42 0 -73 31l-138 139q-31 31 -31 72zM102 102v760q0 44 31 73q35 30 74 30q44 0 72 -30q28 -29 28 -73v-760q0 -44 -28 -72q-30 -30 -73 -30q-38 0 -73 30 q-31 29 -31 72z" />
<glyph unicode="&#xed;" horiz-adv-x="409" d="M102 102v760q0 44 31 73q35 30 74 30q44 0 72 -30q28 -29 28 -73v-760q0 -44 -28 -72q-30 -30 -73 -30q-38 0 -73 30q-31 29 -31 72zM110 1188q0 44 30 74l136 137q31 31 74 31q38 0 73 -30q31 -31 31 -73q0 -41 -31 -72l-138 -139q-31 -31 -73 -31q-41 0 -72 31 q-30 30 -30 72z" />
<glyph unicode="&#xee;" horiz-adv-x="409" d="M-97 1179q0 31 24 55l217 219q22 22 47 25q2 1 10 1h9q6 0 7 -1q23 -3 47 -25l217 -219q26 -26 26 -57q0 -12 -4 -24q-15 -42 -57 -56q-9 -4 -25 -4q-32 0 -56 24l-161 161l-160 -161q-24 -24 -56 -24q-17 0 -26 4q-42 13 -55 56q-4 9 -4 26zM102 102v760q0 44 31 73 q35 30 74 30q44 0 72 -30q28 -29 28 -73v-760q0 -44 -28 -72q-30 -30 -73 -30q-38 0 -73 30q-31 29 -31 72z" />
<glyph unicode="&#xef;" horiz-adv-x="409" d="M-98 1201q0 49 32 81q34 34 81 34t81 -34t34 -81t-34 -81q-33 -33 -81 -33t-81 33q-32 32 -32 81zM102 102v760q0 44 31 73q35 30 74 30q44 0 72 -30q28 -29 28 -73v-760q0 -44 -28 -72q-30 -30 -73 -30q-38 0 -73 30q-31 29 -31 72zM280 1201q0 48 33 81q34 34 80 34 q48 0 82 -34q33 -33 33 -81t-33 -81t-82 -33q-47 0 -80 33t-33 81z" />
<glyph unicode="&#xf0;" d="M44 476q0 202 143 345q68 68 157.5 106t187.5 38q26 0 50 -3l-47 75l-66 -38q-17 -9 -34 -9q-39 0 -59 39q-9 15 -9 33q0 41 39 60l56 32q-17 26 -17 57q0 55 52 85q23 14 53 14q15 0 27 -3q40 -13 62 -52l76 43q17 10 33 10q41 0 61 -38q7 -13 7 -33q0 -39 -36 -59 l-71 -41l245 -416l4 -8q62 -109 62 -237q0 -201 -142 -345q-68 -68 -158 -105.5t-188 -37.5t-187.5 37.5t-157.5 105.5q-143 143 -143 345zM249 476q0 -116 84 -200q83 -83 199 -83q119 0 202 83q82 82 82 200q0 119 -82 201t-202 82q-117 0 -199 -82q-84 -84 -84 -201z" />
<glyph unicode="&#xf1;" horiz-adv-x="1059" d="M102 101v762q0 44 31 73q35 30 73 30q44 0 72 -30q28 -29 28 -73v-14q121 116 261 116q178 0 289 -135q111 -133 111 -338v-394q0 -43 -29.5 -71.5t-72.5 -28.5t-72 28.5t-29 71.5v394q-2 125 -58 196q-60 74 -161 74q-106 0 -171 -76q-68 -79 -68 -189v-396 q0 -43 -29 -72t-72 -29q-42 0 -72 30q-31 31 -31 71zM189 1180q-1 33 23 57q24 37 75 76q68 53 145 53t153 -59l20 -16q22 -18 53 -29q16 -7 28 -7q48 0 98 64q6 8 11 13q24 24 57 24q34 0 58 -23.5t25 -56.5q0 -30 -24 -57q-21 -36 -73 -76q-69 -53 -147 -53q-71 0 -154 63 l-19 14q-22 17 -51 28q-17 5 -28 5q-50 0 -96 -59q-10 -16 -13 -19q-24 -24 -59 -24q-34 0 -57 23q-25 23 -25 59z" />
<glyph unicode="&#xf2;" d="M44 476q0 202 143 345q68 68 157.5 106t187.5 38t188 -38t158 -106q142 -144 142 -345t-142 -345q-68 -68 -158 -105.5t-188 -37.5t-187.5 37.5t-157.5 105.5q-143 143 -143 345zM249 476q0 -116 84 -200q83 -83 199 -83q119 0 202 83q82 82 82 200q0 119 -82 201 t-202 82q-117 0 -199 -82q-84 -84 -84 -201zM273 1338q0 42 31 73q35 30 74 30q42 0 73 -31l136 -137q30 -30 30 -74q0 -42 -30 -72t-72 -30q-43 0 -73 30l-138 140q-31 31 -31 71z" />
<glyph unicode="&#xf3;" d="M44 476q0 202 143 345q68 68 157.5 106t187.5 38t188 -38t158 -106q142 -144 142 -345t-142 -345q-68 -68 -158 -105.5t-188 -37.5t-187.5 37.5t-157.5 105.5q-143 143 -143 345zM249 476q0 -116 84 -200q83 -83 199 -83q119 0 202 83q82 82 82 200q0 119 -82 201 t-202 82q-117 0 -199 -82q-84 -84 -84 -201zM516 1198q0 43 31 74l136 137q31 31 74 31q37 0 72 -30q31 -31 31 -73q0 -40 -31 -71l-138 -140q-30 -30 -73 -30q-41 0 -71 30q-31 31 -31 72z" />
<glyph unicode="&#xf4;" d="M44 476q0 202 143 345q68 68 157.5 106t187.5 38t188 -38t158 -106q142 -144 142 -345t-142 -345q-68 -68 -158 -105.5t-188 -37.5t-187.5 37.5t-157.5 105.5q-143 143 -143 345zM231 1171q0 32 25 57l217 219q21 21 47 24q4 2 9 2h10q5 0 7 -2q25 -3 47 -24l217 -219 q26 -26 26 -58q0 -25 -18 -48t-43 -31q-12 -5 -25 -5q-32 0 -57 25l-161 161l-159 -161q-25 -25 -57 -25q-13 0 -25 5q-42 13 -55 56q-5 12 -5 24zM249 476q0 -116 84 -200q83 -83 199 -83q119 0 202 83q82 82 82 200q0 119 -82 201t-202 82q-117 0 -199 -82 q-84 -84 -84 -201z" />
<glyph unicode="&#xf5;" d="M44 476q0 202 143 345q68 68 157.5 106t187.5 38t188 -38t158 -106q142 -144 142 -345t-142 -345q-68 -68 -158 -105.5t-188 -37.5t-187.5 37.5t-157.5 105.5q-143 143 -143 345zM169 1175q-2 33 22 57q24 37 75 76q68 53 146 53q76 0 152 -59l21 -16q7 -5 25 -16 q37 -20 56 -20q48 0 98 64q9 12 10 13q24 24 57 24q34 0 58 -24q25 -25 25 -58q0 -30 -23 -56q-19 -33 -74 -75q-71 -54 -146 -54q-70 0 -155 64l-18 14l-24 16q-34 17 -55 17q-50 0 -96 -59q-8 -13 -14 -19q-24 -24 -58 -24t-57 23q-25 23 -25 59zM249 476q0 -116 84 -200 q83 -83 199 -83q119 0 202 83q82 82 82 200q0 119 -82 201t-202 82q-117 0 -199 -82q-84 -84 -84 -201z" />
<glyph unicode="&#xf6;" d="M44 476q0 202 143 345q68 68 157.5 106t187.5 38t188 -38t158 -106q142 -144 142 -345t-142 -345q-68 -68 -158 -105.5t-188 -37.5t-187.5 37.5t-157.5 105.5q-143 143 -143 345zM230 1202q0 48 33 81q34 34 81 34t81 -34t34 -81t-34 -81q-32 -32 -81 -32t-81 32 q-33 33 -33 81zM249 476q0 -116 84 -200q83 -83 199 -83q119 0 202 83q82 82 82 200q0 119 -82 201t-202 82q-117 0 -199 -82q-84 -84 -84 -201zM608 1202q0 47 34 81t80 34q48 0 82 -34q33 -33 33 -81t-33 -81q-32 -32 -82 -32q-48 0 -80 32q-34 34 -34 81z" />
<glyph unicode="&#xf7;" horiz-adv-x="822" d="M38 582q0 40 28 67.5t69 27.5h550q40 0 70 -28q27 -29 27 -67q0 -40 -28 -68.5t-69 -28.5h-550q-42 0 -68 29q-29 26 -29 68zM299 222q0 50 36 86t86 36t86 -36t36 -86q0 -49 -36 -85t-86 -36t-86 36t-36 85zM302 957q0 50 36 86t85 36q50 0 86 -36t36 -86t-36 -86 q-35 -35 -86 -35q-50 0 -85 35q-36 36 -36 86z" />
<glyph unicode="&#xf8;" d="M44 476q0 202 143 345q68 68 157.5 106t187.5 38q104 0 187 -38l9 13q19 37 63 49q15 4 26 4q27 0 52 -13q37 -23 47 -62q4 -16 4 -26q0 -29 -14 -52l-19 -29q133 -142 133 -335q0 -201 -142 -345q-68 -68 -158 -105.5t-188 -37.5t-175 31l-21 -31q-22 -38 -63 -48 q-13 -5 -28 -5q-25 0 -49 13q-38 19 -49 63q-3 12 -3 26q0 29 14 52l28 43q-142 142 -142 344zM249 476q0 -95 55 -169l297 444q-42 8 -69 8q-117 0 -199 -82q-84 -84 -84 -201zM476 198q37 -5 56 -5q119 0 202 83q82 82 82 200q0 86 -48 158z" />
<glyph unicode="&#xf9;" horiz-adv-x="1058" d="M92 474v391q0 43 30 72t73 29t72 -29t29 -72v-393q0 -124 59 -196q59 -74 160 -74q103 0 171 76t68 189v395q0 43 29 72.5t72 29.5q44 0 73 -29t29 -73v-762q0 -42 -30 -71q-34 -31 -74 -31q-42 0 -70.5 29.5t-28.5 72.5v15q-121 -116 -262 -116q-178 0 -289 135 q-111 134 -111 340zM300 1333q0 42 31 73q35 30 73 30q42 0 73 -31l136 -137q31 -31 31 -74q0 -41 -31 -72q-30 -30 -71 -30q-43 0 -73 30l-138 140q-31 31 -31 71z" />
<glyph unicode="&#xfa;" horiz-adv-x="1058" d="M92 474v391q0 43 30 72t73 29t72 -29t29 -72v-393q0 -124 59 -196q59 -74 160 -74q103 0 171 76t68 189v395q0 43 29 72.5t72 29.5q44 0 73 -29t29 -73v-762q0 -42 -30 -71q-34 -31 -74 -31q-42 0 -70.5 29.5t-28.5 72.5v15q-121 -116 -262 -116q-178 0 -289 135 q-111 134 -111 340zM485 1176q0 42 31 73l136 137q31 31 74 31q39 0 73 -29q30 -30 30 -73q0 -42 -30 -72l-139 -139q-31 -31 -72 -31t-72 31t-31 72z" />
<glyph unicode="&#xfb;" horiz-adv-x="1058" d="M92 474v391q0 43 30 72t73 29t72 -29t29 -72v-393q0 -124 59 -196q59 -74 160 -74q103 0 171 76t68 189v395q0 43 29 72.5t72 29.5q44 0 73 -29t29 -73v-762q0 -42 -30 -71q-34 -31 -74 -31q-42 0 -70.5 29.5t-28.5 72.5v15q-121 -116 -262 -116q-178 0 -289 135 q-111 134 -111 340zM249 1155q0 31 24 55l217 220q21 21 48 24q2 1 9 1h9q6 0 7 -1q25 -3 47 -24l217 -220q26 -26 26 -57q0 -12 -4 -24q-15 -43 -56 -56q-9 -4 -26 -4q-31 0 -56 25l-161 160l-160 -160q-25 -25 -56 -25q-17 0 -26 4q-42 13 -55 56q-4 9 -4 26z" />
<glyph unicode="&#xfc;" horiz-adv-x="1058" d="M92 474v391q0 43 30 72t73 29t72 -29t29 -72v-393q0 -124 59 -196q59 -74 160 -74q103 0 171 76t68 189v395q0 43 29 72.5t72 29.5q44 0 73 -29t29 -73v-762q0 -42 -30 -71q-34 -31 -74 -31q-42 0 -70.5 29.5t-28.5 72.5v15q-121 -116 -262 -116q-178 0 -289 135 q-111 134 -111 340zM232 1194q0 48 33 81q34 34 81 34t81 -34t34 -81t-34 -81q-33 -33 -81 -33t-81 33t-33 81zM610 1194q0 47 34 81t80 34q48 0 82 -34q33 -33 33 -81t-33 -81t-82 -33q-47 0 -80 33q-34 34 -34 81z" />
<glyph unicode="&#xfd;" horiz-adv-x="939" d="M23 863q0 19 6 36q13 37 54 57q22 10 40 10q42 0 71 -29q14 -14 23 -34l250 -566l254 566q20 41 57 54q16 8 38 8q40 0 73 -33q29 -29 29 -73q-1 -16 -11 -40l-510 -1118q-20 -41 -57 -54q-15 -7 -39 -7q-21 0 -40 9q-53 24 -53 82q0 27 12 52l139 313l-327 724 q-9 20 -9 43zM493 1182q0 43 30 73l136 138q30 30 74 30q39 0 73 -29q31 -31 31 -73q0 -41 -31 -72l-138 -139q-31 -31 -73 -31q-41 0 -72 31q-30 30 -30 72z" />
<glyph unicode="&#xfe;" horiz-adv-x="1177" d="M133 -208v1410q0 45 31 76t74 31q44 0 71.5 -30.5t27.5 -76.5v-330q133 93 285 93q98 0 187.5 -38t157.5 -106q142 -144 142 -345t-142 -345q-68 -68 -157.5 -105.5t-187.5 -37.5q-159 0 -285 92v-288q0 -46 -27.5 -75.5t-71.5 -29.5t-74 30q-31 31 -31 75zM338 476 q0 -116 84 -200q83 -83 200 -83q118 0 201 83q82 82 82 200q0 119 -82 201t-201 82q-118 0 -200 -82q-84 -84 -84 -201z" />
<glyph unicode="&#xff;" horiz-adv-x="939" d="M23 860q-1 40 27 73q31 33 73 33q20 0 38 -8q37 -14 56 -55l250 -566l254 566q10 21 24 34q30 28 71 28q17 0 39 -10q42 -20 55 -57q6 -16 6 -36q0 -24 -9 -43l-510 -1118q-8 -18 -23 -33q-32 -28 -73 -28q-21 0 -40 9q-53 24 -53 82q0 27 12 52l139 313l-327 724 q-9 20 -9 40zM169 1194q0 48 33 81q34 34 81 34t81 -34q33 -33 33 -81t-33 -81t-81 -33t-81 33t-33 81zM547 1194q0 47 34 81t79 34q48 0 82 -34q33 -33 33 -81t-33 -81t-82 -33q-46 0 -79 33q-34 34 -34 81z" />
<glyph unicode="&#x152;" horiz-adv-x="2158" d="M44 653q0 183 90 337q88 152 238 239q158 91 336 91q137 0 258.5 -52t217.5 -148v88q0 44 29 73q30 30 73 30h547q42 0 72 -30q28 -28 28 -73q0 -43 -28.5 -72t-71.5 -29h-445v-354h321q43 1 73 -28q28 -28 28 -73q0 -42 -29 -70t-72 -28h-321v-351h445q42 0 71 -30 t29 -73t-28 -71q-30 -30 -72 -29h-555q-41 3 -67.5 31t-26.5 70v85q-95 -95 -217 -146.5t-259 -51.5q-135 0 -256.5 51t-213.5 144q-93 93 -143.5 214.5t-50.5 255.5zM249 653q0 -193 134 -327q63 -64 147.5 -99.5t178.5 -35.5q192 0 327 135q134 134 134 327 q0 93 -35 177.5t-99 148.5q-135 135 -327 135q-94 0 -178.5 -35.5t-147.5 -99.5q-64 -64 -99 -148.5t-35 -177.5z" />
<glyph unicode="&#x153;" horiz-adv-x="1841" d="M44 476q0 202 143 345q68 68 157.5 106t187.5 38q113 0 219 -52q98 -50 168 -139q69 90 170.5 140.5t217.5 50.5q97 0 186 -37t158 -105q144 -141 146 -342q0 -43 -28 -70t-72 -27h-655q24 -85 98 -143q71 -57 167 -57q116 0 183 73q34 26 68 26q14 0 33 -7 q30 -11 49 -43q18 -28 18 -57q0 -44 -39 -77q-57 -52 -121 -77q-81 -33 -191 -33q-116 0 -217.5 50t-170.5 139q-71 -88 -168 -138q-101 -52 -219 -52q-98 0 -187.5 37.5t-157.5 105.5q-143 143 -143 345zM249 476q0 -116 84 -200q83 -83 199 -83q119 0 202 83q82 82 82 200 q0 119 -82 201t-202 82q-117 0 -199 -82q-84 -84 -84 -201zM1036 554h551q-23 97 -97 155q-76 61 -180 61t-178 -61q-77 -64 -96 -155z" />
<glyph unicode="&#x178;" horiz-adv-x="1100" d="M22 1203q0 47 35 79q31 26 71 26q44 0 73 -36l347 -527l345 529q27 35 76 35q34 0 64 -25q38 -32 38 -78q0 -36 -25 -68l-396 -593v-445q0 -43 -29.5 -71.5t-72.5 -28.5t-72.5 28.5t-29.5 71.5v444l-400 593q-24 29 -24 66zM307 1497q0 48 33 81q34 34 81 34t81 -34 t34 -81t-34 -81q-33 -33 -81 -33t-81 33t-33 81zM685 1497q0 47 34 81t80 34q48 0 82 -34q32 -32 32 -81t-32 -81q-33 -33 -82 -33q-47 0 -80 33q-34 34 -34 81z" />
<glyph unicode="&#x2c6;" horiz-adv-x="747" d="M51 1240q0 30 25 55l217 219q22 22 47 25q2 1 9 1h9q7 0 8 -1q23 -3 47 -25l217 -219q25 -25 25 -57q0 -25 -17.5 -48.5t-42.5 -31.5q-9 -4 -26 -4q-31 0 -56 25l-161 160l-159 -160q-25 -25 -58 -25q-9 0 -24 4q-20 6 -35 21t-21 35q-4 9 -4 26z" />
<glyph unicode="&#x2dc;" horiz-adv-x="825" d="M28 1206q-2 34 22 58q23 35 75 75q69 54 145 54t153 -60l20 -15q23 -19 54 -30q13 -6 27 -6q49 0 99 64q9 12 10 13q23 23 57 23t58 -23t25 -56q0 -32 -23 -58q-20 -35 -74 -76q-69 -53 -147 -53q-69 0 -154 64l-19 14q-22 17 -51 28q-17 5 -27 5q-51 0 -97 -60 q-8 -13 -13 -18q-25 -25 -58 -25q-34 0 -58 24q-24 22 -24 58z" />
<glyph unicode="&#x2000;" horiz-adv-x="912" />
<glyph unicode="&#x2001;" horiz-adv-x="1825" />
<glyph unicode="&#x2002;" horiz-adv-x="912" />
<glyph unicode="&#x2003;" horiz-adv-x="1825" />
<glyph unicode="&#x2004;" horiz-adv-x="608" />
<glyph unicode="&#x2005;" horiz-adv-x="456" />
<glyph unicode="&#x2006;" horiz-adv-x="304" />
<glyph unicode="&#x2007;" horiz-adv-x="304" />
<glyph unicode="&#x2008;" horiz-adv-x="228" />
<glyph unicode="&#x2009;" horiz-adv-x="365" />
<glyph unicode="&#x200a;" horiz-adv-x="101" />
<glyph unicode="&#x2010;" horiz-adv-x="931" d="M68 593q0 44 30 74q29 29 73 29h577q47 0 74 -30q30 -35 30 -73q0 -43 -30 -73t-74 -30h-577q-42 0 -73 31q-30 30 -30 72z" />
<glyph unicode="&#x2011;" horiz-adv-x="931" d="M68 593q0 44 30 74q29 29 73 29h577q47 0 74 -30q30 -35 30 -73q0 -43 -30 -73t-74 -30h-577q-42 0 -73 31q-30 30 -30 72z" />
<glyph unicode="&#x2012;" horiz-adv-x="931" d="M68 593q0 44 30 74q29 29 73 29h577q47 0 74 -30q30 -35 30 -73q0 -43 -30 -73t-74 -30h-577q-42 0 -73 31q-30 30 -30 72z" />
<glyph unicode="&#x2013;" horiz-adv-x="931" d="M68 595q0 44 30 74q29 29 73 29h577q47 0 74 -30q30 -35 30 -73q0 -42 -30 -72t-74 -30h-577q-43 0 -73 30t-30 72z" />
<glyph unicode="&#x2014;" horiz-adv-x="1097" d="M70 597q0 44 30 74q29 29 73 29h759q45 0 74 -30q29 -34 29 -73q0 -43 -29 -72q-30 -30 -74 -30h-759q-43 0 -73 30t-30 72z" />
<glyph unicode="&#x2018;" horiz-adv-x="531" d="M89 946q0 27 14 49l150 258q18 35 62 47q14 4 24 4q24 0 52 -15q51 -29 51 -85q0 -25 -14 -51l-149 -260q-19 -35 -61 -47q-12 -3 -25 -3q-31 0 -53 13q-35 17 -47 63q-4 11 -4 27z" />
<glyph unicode="&#x2019;" horiz-adv-x="531" d="M46 1210q0 56 51 85q28 15 54 15q11 0 23 -3q37 -9 62 -49l149 -258q13 -22 13 -52q0 -12 -3 -24q-12 -46 -47 -63q-25 -13 -50 -13q-12 0 -27 4q-43 12 -61 47l-150 259q-14 26 -14 52z" />
<glyph unicode="&#x201a;" horiz-adv-x="531" d="M89 -165q0 27 14 49l150 258q19 36 62 48q14 4 24 4q24 0 52 -15q51 -29 51 -85q0 -26 -14 -52l-149 -259q-19 -35 -61 -47q-16 -4 -28 -4q-25 0 -50 13q-35 18 -47 62q-4 11 -4 28z" />
<glyph unicode="&#x201c;" horiz-adv-x="920" d="M89 952q0 27 14 49l150 259q19 36 62 48q11 3 24 3q24 0 52 -15q51 -29 51 -85q0 -26 -14 -52l-149 -259q-17 -35 -62 -47q-12 -3 -24 -3q-31 0 -53 13q-35 17 -47 62q-4 11 -4 27zM478 951q0 24 14 50l150 259q13 24 36 37.5t49 13.5q24 0 52 -15q52 -30 52 -86 q0 -25 -14 -51l-149 -259q-23 -36 -62 -47q-12 -3 -25 -3q-30 0 -52 13q-35 17 -47 62q-4 15 -4 26z" />
<glyph unicode="&#x201d;" horiz-adv-x="920" d="M89 952q0 27 14 49l150 259q19 36 62 48q11 3 24 3q24 0 52 -15q51 -29 51 -85q0 -26 -14 -52l-149 -259q-17 -35 -62 -47q-12 -3 -24 -3q-31 0 -53 13q-35 17 -47 62q-4 11 -4 27zM478 951q0 24 14 50l150 259q13 24 36 37.5t49 13.5q24 0 52 -15q52 -30 52 -86 q0 -25 -14 -51l-149 -259q-23 -36 -62 -47q-12 -3 -25 -3q-30 0 -52 13q-35 17 -47 62q-4 15 -4 26z" />
<glyph unicode="&#x201e;" horiz-adv-x="920" d="M89 -165q0 27 14 49l150 258q19 36 62 48q14 4 24 4q24 0 52 -15q51 -29 51 -85q0 -26 -14 -52l-149 -259q-17 -35 -62 -47q-12 -3 -24 -3q-31 0 -53 13q-35 17 -47 61q-4 11 -4 28zM478 -166q0 24 14 50l150 258q13 24 36 38t49 14q24 0 52 -15q52 -30 52 -86 q0 -25 -14 -51l-149 -259q-23 -36 -62 -47q-12 -3 -25 -3q-30 0 -52 13q-35 17 -47 61q-4 15 -4 27z" />
<glyph unicode="&#x2022;" horiz-adv-x="473" d="M51 496q0 75 57 129q52 52 122 52q79 0 135 -59q49 -52 49 -122q0 -72 -55 -127q-56 -54 -129 -54q-71 0 -127 54q-52 52 -52 127z" />
<glyph unicode="&#x2026;" horiz-adv-x="1078" d="M85 110q0 50 36 86q35 35 86 35t86 -35q36 -36 36 -86t-36 -86t-86 -36t-86 36t-36 86zM421 110q0 50 36 86q35 35 85 35q51 0 86 -35q36 -36 36 -86t-36 -86t-86 -36q-49 0 -85 36t-36 86zM755 110q0 50 36 86q35 35 85 35q51 0 86 -35t35 -86t-35 -86q-36 -36 -86 -36 q-49 0 -85 36t-36 86z" />
<glyph unicode="&#x202f;" horiz-adv-x="365" />
<glyph unicode="&#x2039;" horiz-adv-x="703" d="M39 484q0 38 30 73q5 5 13 10l371 367q31 31 72 31q42 0 73 -31t31 -72t-31 -72l-312 -308l311 -309q31 -31 31 -73q0 -40 -31 -71q-34 -31 -74 -31q-41 0 -72 31l-381 382q-31 31 -31 73z" />
<glyph unicode="&#x203a;" horiz-adv-x="677" d="M43 862q0 42 30 72q34 31 73 31q42 0 73 -31l374 -370l9 -7q13 -13 21 -31l3 -6q6 -18 6 -37q0 -42 -30 -72l-382 -382q-31 -31 -73 -31q-41 0 -72 31t-31 71q0 42 31 73l311 309l-313 308q-30 30 -30 72z" />
<glyph unicode="&#x205f;" horiz-adv-x="456" />
<glyph unicode="&#x20ac;" horiz-adv-x="1094" d="M35 505q0 25 17.5 42.5t44.5 17.5h57v157h-57q-27 0 -44.5 17.5t-17.5 44.5q0 26 17.5 44t44.5 18h58q14 198 164 336q149 136 354 136q110 0 203.5 -45t151.5 -125q23 -34 23 -71q0 -52 -41 -86q-28 -22 -64 -22q-52 0 -86 46q-48 52 -85 71q-51 24 -119 24 q-110 0 -195 -76q-87 -78 -101 -188h184q27 0 45 -18t18 -45t-18 -44t-45 -17h-186v-157h186q27 0 45 -17.5t18 -44.5t-18 -44.5t-45 -17.5h-179q19 -103 103 -174q82 -70 188 -70q72 0 118 24q34 17 86 72q32 46 85 46q35 0 64 -24q41 -32 41 -83q0 -34 -23 -71 q-60 -81 -152.5 -127t-201.5 -46q-199 0 -346 130q-147 128 -170 323h-60q-27 0 -44.5 18.5t-17.5 45.5z" />
<glyph unicode="&#x2122;" horiz-adv-x="1607" d="M57 1204q0 44 30.5 75t73.5 31l413 -2q47 0 75 -31q30 -35 30 -74q0 -44 -30 -74q-31 -31 -75 -29h-88v-395q0 -45 -30 -73q-36 -31 -75 -31q-44 0 -75 30.5t-31 73.5v395h-114q-45 0 -73 30q-31 34 -31 74zM762 703v500q0 45 31 74q35 30 73 30q52 0 83 -39l161 -148 l161 148q13 18 42 30q22 10 39 10q10 0 19 -3q38 -5 63 -34t25 -68v-500q0 -43 -31 -72q-36 -31 -74 -31q-41 0 -75 31q-31 29 -31 72v263l-53 -48q-38 -41 -83 -41q-48 -4 -87 41l-53 48v-263q0 -43 -31 -73t-75 -30q-39 0 -73 31q-31 29 -31 72z" />
<glyph unicode="&#x25fc;" horiz-adv-x="967" d="M0 0v968h968v-968h-968z" />
<glyph unicode="&#xf6fa;" horiz-adv-x="1593" d="M44 476q0 202 143 345q68 68 157.5 106t187.5 38q158 0 285 -93q2 20 11 36q27 55 85 55h530q38 2 68 -27q28 -30 28 -70t-28 -67.5t-68 -27.5l-423 -1v-193h291q40 0 68 -26q29 -29 29 -68t-28.5 -66.5t-68.5 -27.5h-291v-195h419q39 0 68 -29t29 -69q0 -42 -29 -69 q-30 -30 -68 -28h-525q-49 0 -79 44q-13 19 -17 37q-130 -92 -286 -92q-98 0 -187.5 37.5t-157.5 105.5q-143 143 -143 345zM249 476q0 -116 84 -200q83 -83 199 -83q119 0 202 83q82 82 82 200q0 119 -82 201t-202 82q-117 0 -199 -82q-84 -84 -84 -201z" />
<glyph unicode="&#xf730;" d="M44 476q0 202 143 345q68 68 157.5 106t187.5 38t188 -38t158 -106q142 -144 142 -345t-142 -345q-68 -68 -158 -105.5t-188 -37.5t-187.5 37.5t-157.5 105.5q-143 143 -143 345zM249 476q0 -116 84 -200q83 -83 199 -83q119 0 202 83q82 82 82 200q0 119 -82 201 t-202 82q-117 0 -199 -82q-84 -84 -84 -201z" />
<glyph unicode="&#xf731;" horiz-adv-x="476" d="M133 102v796q0 45 31 74q34 29 74 29q44 0 74.5 -30t30.5 -73v-796q0 -43 -31 -72q-34 -31 -74 -31t-74 31q-31 29 -31 72z" />
<glyph unicode="&#xf732;" horiz-adv-x="796" d="M38 97q0 37 19 62q2 5 10 13l371 372q56 61 77 91q29 46 29 97q0 52 -37 86q-38 37 -99 37q-50 0 -86.5 -29.5t-50.5 -86.5l-2 -10q-27 -69 -100 -69q-11 0 -21 2q-30 4 -49 29t-19 57q0 10 1 13q13 105 96 187q93 88 232 88q150 0 250 -87q96 -86 96 -208 q0 -76 -26.5 -138.5t-81.5 -126.5l-272 -279h305q32 0 58 -33q24 -32 24 -68q0 -34 -24 -64q-25 -32 -58 -32h-565q-33 0 -55 28t-22 69z" />
<glyph unicode="&#xf733;" horiz-adv-x="974" d="M40 -16q0 2 2 18q8 42 46 63q26 14 55 14q14 0 26 -3q41 -12 64 -51l4 -7q34 -62 95 -99t133 -37q105 0 184 76q76 73 76 183q0 103 -76 164q-70 56 -184 56h-87v1q-38 0 -68 30t-30 75q0 44 31 71l280 267h-397q-45 0 -75 26t-30 68q0 39 31 73q28 30 74 30h618 q60 0 86 -53q13 -25 13 -50q0 -43 -30 -73l-299 -294q155 -29 249 -129q99 -107 99 -262q0 -92 -35.5 -177t-100.5 -149q-138 -136 -329 -136q-129 0 -241 68q-113 69 -168 176q-16 29 -16 61z" />
<glyph unicode="&#xf734;" horiz-adv-x="976" d="M45 101v4q0 31 16 56l498 754q31 50 86 50q46 0 77 -31q29 -29 29 -75v-654h90q42 0 72 -30q29 -29 29 -74q0 -43 -29 -72t-72 -29h-90v-169q0 -43 -29 -72.5t-72 -29.5q-42 0 -72 30q-31 31 -31 72v169h-399q-42 0 -72 30q-31 31 -31 71zM310 205h237v338z" />
<glyph unicode="&#xf735;" horiz-adv-x="970" d="M39 -46q0 43 29 72t72 29q31 0 56 -17t36 -45h1q28 -67 90 -107q61 -41 135 -41q102 0 175 73q73 71 73 173t-73 175t-175 73q-58 0 -110 -26t-86 -72h-1q-30 -27 -66 -27q-2 0 -20 2q-39 8 -63 35t-24 63q0 12 1 15l50 549q8 58 69 78q25 9 40 9h494q44 0 73 -31 q30 -35 30 -74q0 -45 -30 -70q-31 -29 -73 -29h-408l-23 -246q72 26 147 26q185 0 318 -131q131 -133 131 -319q0 -185 -131 -316q-133 -131 -318 -131q-130 0 -246 73q-110 71 -162 191q-11 25 -11 46z" />
<glyph unicode="&#xf736;" d="M44 476q0 148 85 275l1 2l299 511q21 37 65 51q12 3 25 3q31 0 53 -13q52 -30 52 -86q0 -27 -18 -58l-125 -199q25 3 51 3q98 0 188 -38t158 -106q142 -144 142 -345t-142 -345q-68 -68 -158 -105.5t-188 -37.5t-187.5 37.5t-157.5 105.5q-143 143 -143 345zM249 476 q0 -116 84 -200q83 -83 199 -83q119 0 202 83q82 82 82 200q0 119 -82 201t-202 82q-117 0 -199 -82q-84 -84 -84 -201z" />
<glyph unicode="&#xf737;" horiz-adv-x="957" d="M47 897q0 45 31 74q34 29 74 29h667q45 0 75 -30q31 -31 31 -74q0 -37 -22 -65l-568 -1094q-19 -37 -63 -49q-18 -5 -31 -5q-26 0 -48 13q-39 19 -51 63q-5 17 -5 30q0 24 15 49l492 953h-492q-43 0 -74 31t-31 75z" />
<glyph unicode="&#xf738;" horiz-adv-x="984" d="M44 444q0 113 53 212q51 93 142 158q-62 80 -62 187q0 130 93 223t224 93q130 0 223 -93q92 -92 92 -223q0 -105 -64 -189q91 -64 142 -157q53 -97 53 -211q0 -185 -131 -316q-63 -63 -145 -97.5t-171 -34.5q-91 0 -173.5 34.5t-144.5 97.5q-131 131 -131 316zM251 444 q0 -99 71 -170q70 -70 171 -70q99 0 169 70t70 170t-70 170q-71 71 -169 71q-100 0 -171 -71t-71 -170zM353 1001q0 -60 41 -98q38 -41 100 -41q57 0 98 41q40 40 40 98q0 57 -40 99q-41 41 -98 41q-59 0 -100 -41t-41 -99z" />
<glyph unicode="&#xf739;" d="M1 527q0 98 37 187.5t105 157.5t157.5 105.5t187.5 37.5q200 0 345 -143q68 -68 106 -157.5t38 -187.5q0 -147 -86 -276l-300 -512q-22 -38 -63 -49q-11 -4 -29 -4q-27 0 -50 12q-52 30 -52 86q0 26 18 57l125 200q-48 -2 -52 -2q-98 0 -187.5 37.5t-157.5 105.5 t-105 157.5t-37 187.5zM205 527q0 -117 83 -200t200 -83q118 0 201 83t83 200t-83 200t-201 83q-117 0 -200 -83t-83 -200z" />
<glyph unicode="&#xf761;" horiz-adv-x="927" d="M22 99q0 18 8 40l340 763q12 28 38 45.5t57 17.5t56 -16.5t37 -46.5l339 -763q8 -22 8 -40q0 -42 -28 -71q-27 -32 -74 -32q-36 0 -71 30q-15 14 -24 33l-48 120h-393l-47 -120q-16 -41 -55 -56q-15 -7 -39 -7q-45 0 -75 32q-29 29 -29 71zM343 372h242l-121 309z" />
<glyph unicode="&#xf762;" horiz-adv-x="940" d="M133 99v764q0 43 30 73q29 29 70 29h332q116 0 198 -70q87 -74 87 -196q0 -113 -95 -184q66 -37 103.5 -97t37.5 -132q0 -128 -88 -207t-219 -79h-353q-44 0 -73.5 28.5t-29.5 70.5zM337 196h257q52 0 84.5 29t32.5 76q0 50 -32 83q-34 34 -85 34h-257v-222zM337 568h224 q42 0 72 27q32 25 32 76q0 48 -28.5 75.5t-75.5 27.5h-224v-206z" />
<glyph unicode="&#xf763;" horiz-adv-x="980" d="M44 492q0 191 152 335q151 138 348 138q102 0 195 -36q100 -40 160 -103q19 -19 28 -39q10 -24 10 -45q0 -17 -8 -36q-12 -25 -37 -44.5t-51 -19.5q-39 -1 -87 33l-31 22q-46 34 -88 49q-40 14 -97 14q-122 0 -203 -81q-86 -83 -86 -203q0 -113 82 -197q83 -85 207 -85 q101 0 185 61l31 23q19 13 31 20q23 13 49 13q34 0 69 -30q34 -30 34 -73q-1 -45 -38 -82q-65 -65 -161 -102q-93 -36 -194 -36q-103 0 -195 37t-161 106q-144 144 -144 361z" />
<glyph unicode="&#xf764;" horiz-adv-x="1055" d="M133 102v788q0 45 31 74q34 29 74 29h256q223 0 373 -148q69 -68 107 -157t38 -184q0 -105 -37.5 -198t-107.5 -161q-145 -145 -372 -145h-258q-38 0 -73 30q-31 29 -31 72zM338 211h176q137 0 219 90q74 82 74 203q0 118 -86 204q-86 84 -211 84h-172v-581z" />
<glyph unicode="&#xf765;" horiz-adv-x="898" d="M133 103v757q0 55 46 88q24 16 51 16h530q38 2 68 -27q28 -30 28 -70t-28 -67.5t-68 -27.5l-423 -1v-193h291q40 0 68 -26q29 -29 29 -68t-28.5 -66.5t-68.5 -27.5h-291v-195h419q39 0 68 -29t29 -69q0 -42 -29 -69q-30 -30 -68 -28h-525q-57 0 -85 52q-13 22 -13 51z " />
<glyph unicode="&#xf766;" horiz-adv-x="876" d="M133 102v760q0 32 18 58.5t53 37.5q18 6 29 7h497q43 0 73 -30t30 -73t-30 -72t-73 -29h-393v-233h251q40 0 69 -27q29 -29 29 -69q0 -42 -28.5 -70t-69.5 -28h-251v-232q0 -43 -29 -72q-30 -30 -71 -30q-38 0 -73 30q-31 29 -31 72z" />
<glyph unicode="&#xf767;" horiz-adv-x="980" d="M44 492q0 191 152 335q151 138 348 138q102 0 195 -36q100 -40 160 -103q36 -36 37 -81q0 -45 -33 -73q-30 -28 -67 -28q-24 0 -50 12q-35 20 -63 41q-46 34 -88 49q-40 14 -97 14q-122 0 -203 -81q-86 -83 -86 -203q0 -115 83 -201q86 -88 207 -88q117 0 192 60l7 6l8 6 v65h-91q-44 0 -73 25.5t-29 66.5q0 42 29 68t73 26h178q42 0 68.5 -28t27.5 -71v-197q0 -50 -38 -88q-71 -66 -161.5 -102t-185.5 -36q-103 0 -195 37t-161 106q-144 144 -144 361z" />
<glyph unicode="&#xf768;" horiz-adv-x="1114" d="M133 103v756q0 47 32 75q31 31 75 31q41 0 69 -31t28 -75v-267h439v267q0 44 29 75t71 31q43 0 74 -31t31 -75v-756q0 -43 -31 -72q-36 -31 -74 -31q-43 0 -71.5 29.5t-28.5 73.5v279h-439v-279q0 -44 -28 -73.5t-71 -29.5q-40 0 -74 31q-31 29 -31 72z" />
<glyph unicode="&#xf769;" horiz-adv-x="470" d="M133 103v758q0 44 28.5 74t71.5 30q44 0 74 -30t30 -74v-758q0 -43 -31 -73t-75 -30q-42 0 -70 29.5t-28 73.5z" />
<glyph unicode="&#xf76a;" horiz-adv-x="470" d="M-211 -230q0 46 31 74q35 30 72 30q99 0 170 71q69 69 71 168v746q0 44 31 75t74 31q42 0 70.5 -31t28.5 -75v-750q-5 -188 -131 -314q-130 -130 -314 -130q-41 0 -72 31t-31 74z" />
<glyph unicode="&#xf76b;" horiz-adv-x="972" d="M133 102v760q0 44 31 73q35 30 73 30q42 0 71 -30t29 -73v-256l382 358q28 28 75 28q39 -1 71 -33q26 -26 26 -68q0 -46 -33 -76l-298 -279l344 -364q30 -30 30 -73q-1 -40 -32 -71q-29 -29 -73 -29q-43 0 -73 33l-344 364l-75 -70v-224q0 -43 -29 -72q-30 -30 -71 -30 q-43 0 -73 30q-31 31 -31 72z" />
<glyph unicode="&#xf76c;" horiz-adv-x="864" d="M133 103v756q0 47 31 75q35 30 74 30q42 0 70.5 -30.5t28.5 -74.5v-656h384q44 0 74 -28.5t30 -71.5q0 -44 -29 -73q-32 -32 -75 -30h-488q-39 1 -70 32q-30 30 -30 71z" />
<glyph unicode="&#xf76d;" horiz-adv-x="1281" d="M78 108q0 3 2 19l111 746q8 43 42 67q34 26 66 26q42 0 71 -29q14 -14 23 -34l251 -571l249 571q16 40 56 54q16 8 38 8q18 0 40 -10q18 -8 29 -19q30 -23 37 -62l112 -748q2 -18 2 -20q0 -34 -18 -57q-32 -46 -87 -46q-31 0 -56 20q-34 25 -40 66l-65 424l-203 -452 q-19 -37 -52 -52l-5 -2q-13 -5 -30 -7h-5q-24 0 -44 9q-18 8 -31 22q-1 0 -1 1h-1q-14 15 -19 29l-206 456l-63 -426q-7 -43 -40 -67q-27 -21 -58 -21q-55 0 -86 45q-19 25 -19 60z" />
<glyph unicode="&#xf76e;" horiz-adv-x="1118" d="M133 104v756q0 43 31 74t74 31q27 0 47 -14q22 -10 36 -27l460 -555v490q0 45 29 75.5t72 30.5t73 -31t30 -75v-755q0 -42 -31 -73t-74 -31q-52 0 -84 41l-467 561v-498q0 -44 -25.5 -74t-66.5 -30q-44 0 -73 31q-31 34 -31 73z" />
<glyph unicode="&#xf770;" horiz-adv-x="948" d="M133 102v757q0 44 31 75t74 31h299q151 0 260 -109q107 -107 107 -261q0 -151 -106 -248q-107 -97 -262 -97h-199v-148q0 -44 -28.5 -74t-70.5 -30q-43 0 -74 31t-31 73zM337 450h194q74 0 121 44q48 45 48 109q0 70 -48 115q-51 48 -120 48h-195v-316z" />
<glyph unicode="&#xf771;" d="M44 476q0 202 143 345q68 68 157.5 106t187.5 38t188 -38t158 -106q142 -144 142 -345q0 -113 -47.5 -211.5t-133.5 -168.5q2 -34 27 -57.5t59 -23.5q36 0 61.5 -25t25.5 -62t-25.5 -62.5t-61.5 -25.5q-87 0 -158 46q-72 46 -102 120q-69 -18 -133 -18q-98 0 -187.5 37.5 t-157.5 105.5q-143 143 -143 345zM249 476q0 -101 64 -180q32 60 91.5 95t131.5 35q70 0 129 -33.5t91 -91.5q60 76 60 175q0 119 -82 201t-202 82q-117 0 -199 -82q-84 -84 -84 -201zM454 204q44 -11 78 -11q44 0 83 12q-4 30 -26 49.5t-53 19.5t-54.5 -20t-27.5 -50z" />
<glyph unicode="&#xf772;" horiz-adv-x="932" d="M133 102v757q0 47 31 75q35 30 74 30v1h282q152 0 261 -109q108 -111 108 -261q0 -101 -51.5 -180t-142.5 -123l114 -121q31 -31 31 -73q0 -41 -30 -71q-31 -31 -73 -31q-41 0 -72 31l-213 227h-115v-152q0 -44 -28.5 -74t-70.5 -30q-43 0 -74 31t-31 73zM337 454h179 q73 0 121 42t48 105q0 67 -48 115q-49 49 -120 49h-180v-311z" />
<glyph unicode="&#xf773;" horiz-adv-x="821" d="M56 218q0 25 13 45q25 45 82 45q53 0 91 -48q34 -50 75 -71t104 -21q55 0 102 28q45 26 45 74q0 32 -16 51q-29 38 -94 57l-56 17q-153 54 -222 106q-100 72 -100 184q0 127 103 206q97 76 234 76q94 0 174 -34q90 -39 124 -104q11 -22 11 -45q0 -30 -23 -55 q-28 -31 -66 -31q-18 0 -34 8l-41 30q-8 5 -17 11.5t-14.5 10t-7.5 4.5q-44 25 -92 25q-67 0 -106.5 -25t-39.5 -71q0 -44 50 -76q43 -25 124 -49q153 -48 215 -97q92 -72 92 -190q0 -122 -98 -206t-246 -84q-111 0 -199 41q-104 45 -151 132q-16 29 -16 56z" />
<glyph unicode="&#xf774;" horiz-adv-x="1007" d="M22 859q0 45 29.5 75.5t73.5 30.5h757q43 0 74 -31t31 -75q0 -42 -30.5 -70.5t-74.5 -28.5h-273v-657q0 -43 -30 -72q-34 -31 -74 -31q-43 0 -71 29.5t-28 73.5v657l-281 1q-44 0 -73.5 28t-29.5 70z" />
<glyph unicode="&#xf775;" horiz-adv-x="1097" d="M89 432v429q0 43 31 73.5t75 30.5q42 0 70 -30t28 -74v-420q0 -104 76 -177q74 -74 180 -74q105 0 180 75t76 178v418q0 44 28.5 74.5t70.5 30.5q39 0 74 -30q31 -28 31 -75v-424v-4q-1 -1 -1 -5q-6 -179 -140 -311q-134 -129 -319 -129q-89 0 -171.5 33t-145.5 93 q-131 125 -142 305q-1 2 -1 13z" />
<glyph unicode="&#xf776;" horiz-adv-x="948" d="M23 859q0 20 8 42q16 40 55 55q25 9 40 9q37 0 72 -30q13 -13 22 -34l254 -575l254 575q19 41 57 56q16 8 38 8q46 0 74 -31q29 -31 29 -72q0 -19 -8 -41l-348 -759q-17 -36 -48 -52l-7 -3q-10 -4 -20 -6q-2 -1 -13 -1q-34 -2 -63 14.5t-41 47.5l-348 759q-7 15 -7 38z " />
<glyph unicode="&#xf777;" horiz-adv-x="1355" d="M24 860q0 43 27 73q31 33 73 33t71 -29q14 -14 23 -34l253 -571l98 223l-119 265q-10 22 -10 43q0 19 6 36q11 37 54 57q22 10 40 10q41 0 70 -29q15 -15 24 -34l44 -101l45 101q16 40 56 54q16 8 38 8q43 0 74 -33q28 -31 28 -73q-1 -16 -11 -40l-120 -265l99 -222 l252 571q13 29 37.5 45.5t54.5 16.5q20 0 42 -10q41 -20 54 -57q7 -15 7 -39q0 -21 -9 -40l-344 -758q-14 -27 -33 -41q-24 -18 -53 -20h-11q-43 0 -69 31q-1 0 -1 1h-1q-14 15 -19 29l-115 252l-114 -252q-6 -14 -19 -28q-4 -5 -11 -10.5t-13.5 -9.5t-7.5 -4q-16 -7 -35 -9 h-15q-36 1 -67 32q-11 11 -19 29l-345 759q-9 20 -9 40z" />
<glyph unicode="&#xf778;" horiz-adv-x="969" d="M23 100q0 42 26 70l296 330l-264 293q-29 29 -27 73q0 40 33 71q31 28 71 28q43 0 76 -34l250 -278l250 279q33 33 77 33q36 0 71 -27q32 -32 32 -75q0 -41 -26 -69l-265 -294l298 -330q26 -29 26 -71q0 -43 -35 -75q-26 -26 -65 -26q-44 0 -79 35l-284 313l-282 -313 q-35 -35 -79 -35q-40 0 -66 26q-34 31 -34 76z" />
<glyph unicode="&#xf779;" horiz-adv-x="893" d="M22 859q0 3 2 19q6 42 43 67q26 20 60 20q12 0 15 -1q44 -9 68 -44l235 -311l239 312q22 34 68 43q3 1 16 1q32 0 59 -19q44 -33 44 -86q0 -37 -19 -59l-308 -385v-314q0 -43 -29 -72q-30 -30 -73 -30q-42 0 -72 30q-31 31 -31 72v324l-297 375q-20 26 -20 58z" />
<glyph unicode="&#xf77a;" horiz-adv-x="951" d="M44 104q0 35 26 70l500 585h-422q-43 0 -72 31q-31 34 -31 72q0 42 31 73q30 30 72 30h648q45 0 74.5 -30t29.5 -73q0 -28 -12 -49q-6 -13 -15 -22l-500 -586h431q43 0 73 -29.5t30 -72.5q0 -38 -29 -72q-29 -31 -74 -31h-656q-34 0 -61 19.5t-37 51.5q-6 17 -6 33z" />
<glyph unicode="&#xf7e0;" horiz-adv-x="927" d="M22 99q0 18 8 40l340 763q12 28 38 45.5t57 17.5t56 -16.5t37 -46.5l339 -763q8 -22 8 -40q0 -42 -28 -71q-27 -32 -74 -32q-36 0 -71 30q-15 14 -24 33l-48 120h-393l-47 -120q-16 -41 -55 -56q-15 -7 -39 -7q-45 0 -75 32q-29 29 -29 71zM197 1345q0 42 30 72 q35 30 74 30q42 0 73 -31l136 -137q31 -31 31 -74q0 -40 -31 -71t-72 -31t-72 31l-139 139q-30 30 -30 72zM343 372h242l-121 309z" />
<glyph unicode="&#xf7e1;" horiz-adv-x="927" d="M22 99q0 18 8 40l340 763q12 28 38 45.5t57 17.5t56 -16.5t37 -46.5l339 -763q8 -22 8 -40q0 -42 -28 -71q-27 -32 -74 -32q-36 0 -71 30q-15 14 -24 33l-48 120h-393l-47 -120q-16 -41 -55 -56q-15 -7 -39 -7q-45 0 -75 32q-29 29 -29 71zM343 372h242l-121 309z M400 1196q0 43 31 74l136 137q31 31 74 31q38 0 73 -30q30 -30 30 -73q0 -41 -30 -71l-139 -140q-30 -30 -72 -30t-72 30q-31 31 -31 72z" />
<glyph unicode="&#xf7e2;" horiz-adv-x="927" d="M22 99q0 18 8 40l340 763q12 28 38 45.5t57 17.5t56 -16.5t37 -46.5l339 -763q8 -22 8 -40q0 -42 -28 -71q-27 -32 -74 -32q-36 0 -71 30q-15 14 -24 33l-48 120h-393l-47 -120q-16 -41 -55 -56q-15 -7 -39 -7q-45 0 -75 32q-29 29 -29 71zM168 1179q0 30 25 55l217 219 q22 22 47 25q2 1 9 1h9q6 0 7 -1q23 -3 47 -25l217 -219q26 -26 26 -57q0 -12 -4 -24q-15 -43 -56 -56q-9 -4 -26 -4q-32 0 -56 24l-161 161l-160 -161q-24 -24 -56 -24q-17 0 -26 4q-42 13 -55 56q-4 9 -4 26zM343 372h242l-121 309z" />
<glyph unicode="&#xf7e3;" horiz-adv-x="927" d="M22 99q0 18 8 40l340 763q12 28 38 45.5t57 17.5t56 -16.5t37 -46.5l339 -763q8 -22 8 -40q0 -42 -28 -71q-27 -32 -74 -32q-36 0 -71 30q-15 14 -24 33l-48 120h-393l-47 -120q-16 -41 -55 -56q-15 -7 -39 -7q-45 0 -75 32q-29 29 -29 71zM78 1191q-2 33 22 57 q24 37 75 76q68 53 146 53q76 0 152 -59l21 -15q24 -19 53 -30q13 -6 27 -6q50 0 99 63q9 12 10 13q24 24 57 24q34 0 58 -23.5t25 -56.5q0 -31 -23 -57q-20 -35 -74 -76q-69 -53 -146 -53q-72 0 -155 63l-18 15q-19 15 -52 27q-17 5 -27 5q-51 0 -97 -59q-8 -13 -13 -18 q-25 -25 -58 -25q-34 0 -58 24q-24 23 -24 58zM343 372h242l-121 309z" />
<glyph unicode="&#xf7e4;" horiz-adv-x="927" d="M22 99q0 18 8 40l340 763q12 28 38 45.5t57 17.5t56 -16.5t37 -46.5l339 -763q8 -22 8 -40q0 -42 -28 -71q-27 -32 -74 -32q-19 0 -38 8q-41 17 -57 55l-48 120h-393l-47 -120q-8 -22 -22 -34q-29 -29 -72 -29q-45 0 -75 32q-29 29 -29 71zM160 1214q0 48 33 81 q34 34 80 34q47 0 81 -34t34 -81q0 -46 -34 -80q-33 -33 -81 -33q-47 0 -80 33t-33 80zM343 372h242l-121 309zM538 1214q0 48 33 81q34 34 80 34q48 0 82 -34q33 -33 33 -81q0 -47 -33 -80t-82 -33q-47 0 -80 33t-33 80z" />
<glyph unicode="&#xf7e5;" horiz-adv-x="927" d="M22 99q0 18 8 40l340 763q12 28 38 45.5t57 17.5t56 -16.5t37 -46.5l339 -763q8 -22 8 -40q0 -42 -28 -71q-27 -32 -74 -32q-19 0 -38 8q-41 17 -57 55l-48 120h-393l-47 -120q-8 -22 -22 -34q-29 -29 -72 -29q-45 0 -75 32q-29 29 -29 71zM248 1264q0 91 64 155t155 64 t157 -64q63 -63 63 -155t-63 -155q-67 -67 -157 -67t-155 67q-64 64 -64 155zM343 372h242l-121 309zM389 1264q0 -33 23 -56t56 -23t56 23t23 56t-23 56t-56 23t-56 -23t-23 -56z" />
<glyph unicode="&#xf7e6;" horiz-adv-x="1447" d="M22 102q0 34 19 62l640 795q25 37 73 42q5 0 6 1h7h547q39 0 68 -27q28 -30 28 -69t-28 -67q-29 -29 -68 -29l-402 -1v-236h244q40 2 69 -26q28 -28 28 -69q0 -40 -28 -68q-29 -29 -69 -29h-244v-186h398q39 0 68 -29t29 -69q0 -42 -29 -69q-30 -30 -68 -28h-511 q-30 0 -49 16q-48 28 -48 87v75h-391l-102 -135q-23 -35 -69 -42q-16 -2 -18 -2q-32 0 -57 19q-43 31 -43 84zM467 384h235v310z" />
<glyph unicode="&#xf7e7;" horiz-adv-x="980" d="M44 492q0 191 152 335q151 138 348 138q102 0 195 -36q100 -40 160 -103q37 -37 38 -81q0 -43 -34 -73q-36 -31 -69 -31q-26 0 -49 13q-9 5 -62 43q-46 34 -88 49q-40 14 -97 14q-122 0 -203 -81q-86 -83 -86 -203q0 -113 82 -197q83 -85 207 -85q101 0 185 61 q53 38 62 43q23 13 49 13q34 0 69 -30q34 -30 34 -73q-1 -45 -38 -82q-114 -114 -290 -134v-71q75 -12 128 -74q50 -59 50 -144q0 -91 -64 -155q-66 -64 -157 -64t-155 64q-65 65 -65 155q0 29 19.5 48.5t47.5 19.5q26 0 44 -19t19 -47q0 -37 27 -64.5t65 -27.5q39 0 65 27 t26 65q0 43 -28.5 67.5t-79.5 24.5q-73 0 -73 53v142q-187 23 -310 160q-124 140 -124 340z" />
<glyph unicode="&#xf7e8;" horiz-adv-x="898" d="M133 103v757q0 55 46 88q24 16 51 16h530q38 2 68 -27q28 -30 28 -70t-28 -67.5t-68 -27.5l-423 -1v-193h291q40 0 68 -26q29 -29 29 -68t-28.5 -66.5t-68.5 -27.5h-291v-195h419q39 0 68 -29t29 -69q0 -42 -29 -69q-30 -30 -68 -28h-527q-30 0 -49 16q-47 28 -47 87z M239 1341q0 43 30 73q35 30 74 30q42 0 73 -31l136 -137q31 -31 31 -74q0 -41 -31 -72q-30 -30 -72 -30t-72 30l-139 140q-30 30 -30 71z" />
<glyph unicode="&#xf7e9;" horiz-adv-x="898" d="M133 103v757q0 55 46 88q24 16 51 16h530q38 2 68 -27q28 -30 28 -70t-28 -67.5t-68 -27.5l-423 -1v-193h291q40 0 68 -26q29 -29 29 -68t-28.5 -66.5t-68.5 -27.5h-291v-195h419q39 0 68 -29t29 -69q0 -42 -29 -69q-30 -30 -68 -28h-527q-30 0 -49 16q-47 28 -47 87z M420 1203q0 43 31 74l136 137q31 31 73 31q38 0 73 -30q31 -31 31 -73q0 -40 -31 -71l-138 -139q-31 -31 -73 -31q-40 0 -71 31t-31 71z" />
<glyph unicode="&#xf7ea;" horiz-adv-x="898" d="M133 103v757q0 55 46 88q24 16 51 16h530q38 2 68 -27q28 -30 28 -70t-28 -67.5t-68 -27.5l-423 -1v-193h291q40 0 68 -26q29 -29 29 -68t-28.5 -66.5t-68.5 -27.5h-291v-195h419q39 0 68 -29t29 -69q0 -42 -29 -69q-30 -30 -68 -28h-527q-30 0 -49 16q-47 28 -47 87z M200 1181q0 31 24 55l217 219q22 22 47 25q2 1 10 1h9q6 0 7 -1q23 -3 47 -25l217 -219q26 -26 26 -57q0 -25 -18 -48.5t-43 -31.5q-9 -4 -25 -4q-32 0 -56 24l-161 161l-160 -161q-24 -24 -57 -24q-10 0 -25 4q-42 13 -55 56q-4 9 -4 26z" />
<glyph unicode="&#xf7eb;" horiz-adv-x="898" d="M133 103v757q0 55 46 88q24 16 51 16h530q38 2 68 -27q28 -30 28 -70t-28 -67.5t-68 -27.5l-423 -1v-193h291q40 0 68 -26q29 -29 29 -68t-28.5 -66.5t-68.5 -27.5h-291v-195h419q39 0 68 -29t29 -69q0 -42 -29 -69q-30 -30 -68 -28h-527q-30 0 -49 16q-47 28 -47 87z M196 1205q0 49 32 81q34 34 81 34t81 -34t34 -81t-34 -81q-32 -32 -81 -32t-81 32t-32 81zM573 1205q0 47 34 81t80 34q48 0 82 -34q33 -33 33 -81t-33 -81q-32 -32 -82 -32q-48 0 -80 32q-34 34 -34 81z" />
<glyph unicode="&#xf7f1;" horiz-adv-x="1118" d="M133 104v756q0 43 31 74t74 31q27 0 47 -14q22 -10 36 -27l460 -555v490q0 45 29 75.5t72 30.5t73 -31t30 -75v-755q0 -42 -31 -73t-74 -31q-52 0 -84 41l-467 561v-498q0 -44 -25.5 -74t-66.5 -30q-44 0 -73 31q-31 34 -31 73zM189 1197q-1 33 23 57q24 37 75 76 q68 53 145 53t153 -59l20 -15q24 -19 53 -30q13 -6 28 -6q48 0 98 63q9 12 11 14q23 23 57 23t58 -23.5t25 -56.5q0 -30 -24 -57q-21 -36 -73 -76q-69 -53 -147 -53q-71 0 -154 63l-19 15q-20 15 -51 27q-20 6 -28 6q-49 0 -96 -60q-8 -13 -13 -18q-25 -25 -59 -25 q-33 0 -57 24q-25 23 -25 58z" />
<glyph unicode="&#xf7f9;" horiz-adv-x="1097" d="M89 432v429q0 43 31 73.5t75 30.5q42 0 70 -30t28 -74v-420q0 -104 76 -177q74 -74 180 -74q105 0 180 75t76 178v418q0 44 28.5 74.5t70.5 30.5q39 0 74 -30q31 -28 31 -75v-424v-4q-1 -1 -1 -5q-6 -179 -140 -311q-134 -129 -319 -129q-89 0 -171.5 33t-145.5 93 q-131 125 -142 305q-1 2 -1 13zM296 1332q0 42 31 73q35 30 73 30q42 0 73 -31l136 -137q31 -31 31 -74q0 -41 -31 -72q-30 -30 -71 -30q-43 0 -73 30l-138 140q-31 31 -31 71z" />
<glyph unicode="&#xf7fa;" horiz-adv-x="1097" d="M89 432v429q0 43 31 73.5t75 30.5q42 0 70 -30t28 -74v-420q0 -104 76 -177q74 -74 180 -74q105 0 180 75t76 178v418q0 44 28.5 74.5t70.5 30.5q39 0 74 -30q31 -28 31 -75v-424v-4q-1 -1 -1 -5q-6 -179 -140 -311q-134 -129 -319 -129q-89 0 -171.5 33t-145.5 93 q-131 125 -142 305q-1 2 -1 13zM456 1190q0 44 30 74l137 137q31 31 73 31q38 0 73 -30q31 -31 31 -73q0 -41 -31 -72l-138 -139q-31 -31 -73 -31q-41 0 -72 31q-30 30 -30 72z" />
<glyph unicode="&#xf7fb;" horiz-adv-x="1097" d="M89 432v429q0 43 31 73.5t75 30.5q42 0 70 -30t28 -74v-420q0 -104 76 -177q74 -74 180 -74q105 0 180 75t76 178v418q0 44 28.5 74.5t70.5 30.5q39 0 74 -30q31 -28 31 -75v-424v-4q-1 -1 -1 -5q-6 -179 -140 -311q-134 -129 -319 -129q-89 0 -171.5 33t-145.5 93 q-131 125 -142 305q-1 2 -1 13zM259 1170q0 31 25 56l217 219q21 21 47 24q2 1 9 1h9q6 0 7 -1q26 -3 48 -24l217 -219q25 -25 25 -58q0 -25 -17.5 -48t-42.5 -31q-12 -5 -26 -5q-31 0 -56 25l-161 161l-160 -161q-25 -25 -57 -25q-7 0 -25 5q-42 13 -55 56q-4 9 -4 25z" />
<glyph unicode="&#xf7fc;" horiz-adv-x="1097" d="M89 432v429q0 43 31 73.5t75 30.5q42 0 70 -30t28 -74v-420q0 -104 76 -177q74 -74 180 -74q105 0 180 75t76 178v418q0 44 28.5 74.5t70.5 30.5q39 0 74 -30q31 -28 31 -75v-424v-4q-1 -1 -1 -5q-6 -179 -140 -311q-134 -129 -319 -129q-89 0 -171.5 33t-145.5 93 q-131 125 -142 305q-1 2 -1 13zM254 1200q0 48 33 81q34 34 81 34t81 -34q33 -33 33 -81t-33 -81t-81 -33t-81 33t-33 81zM632 1200q0 47 34 81t79 34q48 0 82 -34q33 -33 33 -81t-33 -81t-82 -33q-46 0 -79 33q-34 34 -34 81z" />
<glyph unicode="&#xf7fd;" horiz-adv-x="893" d="M22 859q0 3 2 19q6 42 43 67q26 20 60 20q12 0 15 -1q44 -9 68 -44l235 -311l239 312q22 34 68 43q3 1 16 1q32 0 59 -19q44 -33 44 -86q0 -37 -19 -59l-308 -385v-314q0 -43 -29 -72q-30 -30 -73 -30q-42 0 -72 30q-31 31 -31 72v324l-297 375q-20 26 -20 58zM376 1189 q0 43 31 74l136 137q31 31 73 31q38 0 73 -30q31 -31 31 -73q0 -41 -31 -72l-138 -139q-31 -31 -73 -31q-40 0 -71 31t-31 72z" />
<glyph unicode="&#xf7ff;" horiz-adv-x="893" d="M22 859q0 3 2 19q6 42 43 67q26 20 60 20q12 0 15 -1q44 -9 68 -44l235 -311l239 312q22 34 68 43q3 1 16 1q32 0 59 -19q44 -33 44 -86q0 -37 -19 -59l-308 -385v-314q0 -43 -29 -72q-30 -30 -73 -30q-42 0 -72 30q-31 31 -31 72v324l-297 375q-20 26 -20 58zM138 1202 q0 48 33 81q34 34 81 34t81 -34t34 -81t-34 -81q-32 -32 -81 -32t-81 32q-33 33 -33 81zM516 1202q0 47 34 81t80 34q48 0 82 -34q32 -32 32 -81t-32 -81t-82 -32q-48 0 -80 32q-34 34 -34 81z" />
</font>
</defs>
</svg>
