<?xml version="1.0" standalone="no"?>
<!DOCTYPE svg PUBLIC "-//W3C//DTD SVG 1.1//EN" "http://www.w3.org/Graphics/SVG/1.1/DTD/svg11.dtd" >
<svg xmlns="http://www.w3.org/2000/svg" xmlns:xlink="http://www.w3.org/1999/xlink" version="1.1">
<metadata></metadata>
<defs>
<font id="antipasto_prodemibold" horiz-adv-x="1063" >
<font-face units-per-em="2048" ascent="1638" descent="-410" />
<missing-glyph horiz-adv-x="460" />
<glyph unicode="&#xfb00;" horiz-adv-x="1238" d="M16 862q0 42 30 71.5t72 29.5h67v53v4q3 144 95.5 229.5t230.5 85.5v-1q41 -2 68 -28t27 -67q0 -39 -27 -67.5t-67 -32.5h-1q-52 0 -87 -36t-35 -87v-53h94q43 0 73.5 -29.5t30.5 -71.5q0 -43 -30 -73t-74 -30h-94v-655q0 -43 -29.5 -73t-71.5 -30t-72.5 30t-30.5 73v655 h-67q-42 0 -72 30.5t-30 72.5zM635 862q0 42 29.5 71.5t72.5 29.5h67v53v4q3 140 91.5 225.5t222.5 89.5h11q42 -2 69.5 -28.5t27.5 -67.5q0 -40 -27.5 -68.5t-68.5 -31.5h-5q-50 -2 -83.5 -37.5t-33.5 -85.5v-53h95q43 0 72.5 -29.5t29.5 -71.5q0 -43 -29.5 -73t-72.5 -30 h-95v-655q0 -43 -30 -73t-72 -30t-72 30t-30 73v655h-67q-42 0 -72 30.5t-30 72.5z" />
<glyph unicode="&#xfb01;" horiz-adv-x="1027" d="M16 862q0 42 30 71.5t72 29.5h67v53v4q3 140 91.5 225.5t222.5 89.5h12v-1q41 -2 68 -28t27 -67q0 -39 -27 -67.5t-67 -32.5h-1q-51 0 -86 -35.5t-36 -86.5v-1v-53h94q43 0 73.5 -29.5t30.5 -71.5q0 -43 -30 -73t-74 -30h-94v-655q0 -43 -29.5 -73t-71.5 -30t-72.5 30 t-30.5 73v655h-67q-42 0 -72 30.5t-30 72.5zM710 1176q0 47 33 80t79 33q47 0 81 -33t34 -80q0 -46 -34 -79.5t-81 -33.5q-46 0 -79 33.5t-33 79.5zM721 101v762q0 42 30.5 72.5t73.5 30.5q42 0 71 -30.5t29 -72.5v-762q0 -42 -29.5 -71.5t-71.5 -29.5t-72.5 29.5 t-30.5 71.5z" />
<glyph unicode="&#xfb03;" horiz-adv-x="1645" d="M16 862q0 42 30 71.5t72 29.5h67v49v8q3 141 92.5 226.5t225.5 88.5h8v-1q41 -2 68 -28t27 -67q0 -39 -27 -67.5t-67 -32.5h-1q-51 0 -86 -35.5t-36 -86.5v-1v-53h94q43 0 73.5 -29.5t30.5 -71.5q0 -43 -30 -73t-74 -30h-94v-655q0 -43 -29.5 -73t-71.5 -30t-72.5 30 t-30.5 73v655h-67q-42 0 -72 30.5t-30 72.5zM635 862q0 42 29.5 71.5t72.5 29.5h67v49v8q3 142 92.5 227.5t225.5 87.5h7q42 -2 69.5 -28.5t27.5 -67.5q0 -40 -27.5 -68.5t-68.5 -31.5q-51 0 -86 -35.5t-36 -86.5v-1v-53h95q43 0 72.5 -29.5t29.5 -71.5q0 -43 -29.5 -73 t-72.5 -30h-95v-655q0 -43 -30 -73t-72 -30t-72 30t-30 73v655h-67q-42 0 -72 30.5t-30 72.5zM1328 1176q0 47 33.5 80t80.5 33t80 -33t33 -80q0 -46 -33.5 -79.5t-79.5 -33.5t-80 33.5t-34 79.5zM1340 101v762q0 42 31 72.5t73 30.5t71 -30.5t29 -72.5v-762 q0 -42 -29.5 -71.5t-71.5 -29.5t-72.5 29.5t-30.5 71.5z" />
<glyph unicode="fj" horiz-adv-x="1030" d="M16 862q0 42 30 71.5t72 29.5h67v53v4q3 140 91.5 225.5t222.5 89.5h12v-1q41 -2 68 -28t27 -67q0 -39 -27 -67.5t-67 -32.5h-1q-52 0 -87 -36t-35 -87v-53h94q43 0 73.5 -29.5t30.5 -71.5q0 -43 -30 -73t-74 -30h-94v-655q0 -43 -29.5 -73t-71.5 -30t-72.5 30t-30.5 73 v655h-67q-42 0 -72 30.5t-30 72.5zM494 -194q0 43 29.5 73.5t72.5 30.5h4q51 0 87 35.5t36 86.5v828q0 43 30 73.5t72 30.5t72 -30.5t30 -73.5v-828q0 -10 -1 -14q-5 -132 -99.5 -223t-226.5 -91h-4q-43 0 -72.5 29.5t-29.5 72.5zM712 1165q0 47 33 80.5t80 33.5 q46 0 78.5 -33.5t32.5 -80.5q0 -46 -34 -79t-81 -33q-45 0 -77 33t-32 79z" />
<glyph unicode="ffj" horiz-adv-x="1648" d="M16 862q0 42 30 71.5t72 29.5h67v53v4q3 140 91.5 225.5t222.5 89.5h12v-1q41 -2 68 -28t27 -67q0 -39 -27 -67.5t-67 -32.5h-6q-50 -2 -83.5 -37.5t-33.5 -85.5v-53h94q43 0 73.5 -29.5t30.5 -71.5q0 -43 -30 -73t-74 -30h-94v-655q0 -43 -29.5 -73t-71.5 -30t-72.5 30 t-30.5 73v655h-67q-42 0 -72 30.5t-30 72.5zM635 862q0 42 29.5 71.5t72.5 29.5h67v53v4q3 142 92.5 227.5t225.5 87.5h7q42 -2 69.5 -28.5t27.5 -67.5t-29 -70t-71 -30q-50 -1 -84 -37t-34 -86v-53h95q43 0 72.5 -29.5t29.5 -71.5q0 -43 -29.5 -73t-72.5 -30h-95v-655 q0 -43 -30 -73t-72 -30t-72 30t-30 73v655h-67q-42 0 -72 30.5t-30 72.5zM1112 -194q0 43 30 73.5t72 30.5h6q50 0 86 35.5t35 86.5v828q0 43 30.5 73.5t72.5 30.5q43 0 72 -30t29 -74v-828q0 -10 -1 -14q-5 -132 -99 -223t-225 -91h-6q-42 0 -72 29.5t-30 72.5zM1330 1165 q0 47 34 80.5t80 33.5t78 -33.5t32 -80.5q0 -46 -33.5 -79t-79.5 -33t-78.5 33t-32.5 79z" />
<glyph horiz-adv-x="0" />
<glyph horiz-adv-x="682" />
<glyph unicode=" "  horiz-adv-x="460" />
<glyph unicode="&#x09;" horiz-adv-x="460" />
<glyph unicode="&#xa0;" horiz-adv-x="460" />
<glyph unicode="!" horiz-adv-x="484" d="M133 110q0 44 32.5 76t77.5 32q43 0 75.5 -32t32.5 -76q0 -45 -32 -77.5t-76 -32.5q-46 0 -78 32t-32 78zM137 417v790q0 43 30.5 73.5t72.5 30.5t71.5 -30.5t29.5 -73.5v-790q0 -44 -30 -74t-73 -30q-42 0 -71.5 30.5t-29.5 73.5z" />
<glyph unicode="&#x22;" horiz-adv-x="729" d="M89 910v299q0 43 29.5 72t71.5 29t72.5 -29.5t30.5 -71.5v-299q0 -42 -30.5 -71.5t-72.5 -29.5t-71.5 29.5t-29.5 71.5zM436 910v299q-1 42 29.5 71.5t72.5 29.5q43 0 72.5 -29t29.5 -72v-299q0 -42 -30 -71.5t-72 -29.5t-72 29.5t-30 71.5z" />
<glyph unicode="#" horiz-adv-x="1258" d="M35 433q0 44 26 75.5t68 31.5h125l59 250h-79q-42 0 -68 28t-26 73q0 44 26 74t67 30h128l57 239q7 33 39 55.5t69 22.5q45 0 73.5 -32t28.5 -77q0 -20 -4 -36l-42 -172h246l56 231q8 35 39 59.5t68 24.5q45 0 74.5 -31t29.5 -76q0 -20 -4 -36l-42 -172h79q44 0 70 -29.5 t26 -74.5q0 -41 -27.5 -71t-67.5 -30h-130l-59 -250h94q43 0 69 -28t27 -71q0 -46 -26 -76.5t-69 -30.5h-144l-62 -257q-7 -34 -35.5 -54.5t-64.5 -20.5q-44 0 -76 27.5t-32 71.5q0 13 3 25l49 208h-250l-62 -257q-8 -34 -35.5 -53.5t-64.5 -19.5q-44 0 -76 24.5t-32 67.5 q0 12 3 24l50 214h-76q-43 0 -69 27.5t-26 71.5zM473 540h248l59 250h-248z" />
<glyph unicode="$" horiz-adv-x="1015" d="M50 295q0 38 30 67.5t68 29.5q47 0 95 -60q43 -68 113.5 -105t160.5 -37q97 0 171.5 51.5t74.5 137.5q0 35 -13 62t-33.5 44.5t-51.5 31.5t-59.5 22.5t-66.5 18.5q-4 1 -6.5 1.5t-6.5 1.5t-7 2q-438 83 -438 379q0 143 100 244t247 127v77q0 36 26 61.5t63 25.5 q35 0 59.5 -25.5t24.5 -61.5v-77q98 -15 178 -62.5t123 -122.5q11 -16 11 -38q0 -39 -28.5 -66.5t-67.5 -27.5q-31 0 -60 20q-60 55 -111 77.5t-132 22.5q-95 0 -161 -47.5t-67 -124.5q0 -43 19.5 -73t70.5 -52t84.5 -31t114.5 -27q5 -1 8 -2q64 -17 114.5 -36t103 -50 t87 -69t56.5 -93t22 -121q0 -150 -102.5 -259t-262.5 -136v-87q0 -37 -25 -62t-60 -25q-37 0 -62.5 25t-25.5 62v85q-125 18 -224 86.5t-141 160.5q-13 27 -13 55z" />
<glyph unicode="%" horiz-adv-x="1609" d="M40 983q0 138 99 237.5t238 99.5q138 0 236.5 -99.5t98.5 -237.5q0 -139 -98 -237.5t-237 -98.5t-238 98.5t-99 237.5zM228 983q0 -62 43.5 -105t105.5 -43q61 0 104.5 43.5t43.5 104.5q0 62 -43.5 104.5t-104.5 42.5q-62 0 -105.5 -42.5t-43.5 -104.5zM439 87 q0 19 10 39l527 1131q27 53 86 53q39 0 63.5 -28.5t24.5 -69.5q0 -24 -9 -43l-528 -1120q-11 -25 -33.5 -39t-48.5 -14q-19 0 -38 8q-24 12 -39 35t-15 48zM895 324q0 138 98.5 237t236.5 99q139 0 238 -99t99 -237q0 -139 -99 -237.5t-238 -98.5q-138 0 -236.5 98.5 t-98.5 237.5zM1082 324q0 -61 43.5 -105t104.5 -44q62 0 105 43.5t43 105.5t-43 104.5t-105 42.5q-61 0 -104.5 -42.5t-43.5 -104.5z" />
<glyph unicode="&#x26;" horiz-adv-x="1190" d="M44 386q0 195 176 320l-20 18l-5 4q-47 44 -80 109.5t-33 137.5q0 143 101 243.5t243 100.5t242 -100t100 -243q0 -204 -210 -313l216 -195l134 154q33 37 82 37q40 0 68.5 -30t28.5 -71q0 -38 -25 -66l-139 -158l178 -160q47 -41 47 -85q0 -35 -31 -63.5t-67 -28.5 q-32 0 -62 25l-191 169l-65 -73l-12 -13q-56 -55 -130 -86t-150 -31q-163 0 -279.5 117t-116.5 281zM231 396q0 -84 59 -147t143 -63q80 0 151 64l64 74l-292 260q-125 -66 -125 -188zM288 975q0 -68 74 -135l50 -45l1 1h2q70 19 118.5 70.5t48.5 105.5q0 62 -43 106 t-107 44q-61 0 -102.5 -42.5t-41.5 -104.5z" />
<glyph unicode="'" horiz-adv-x="381" d="M89 913v299q0 43 29.5 72t71.5 29t72.5 -29.5t30.5 -71.5v-299q0 -42 -30.5 -72t-72.5 -30t-71.5 29.5t-29.5 72.5z" />
<glyph unicode="(" horiz-adv-x="738" d="M133 113v772q5 190 131.5 307t345.5 118h6q43 0 72 -29t29 -73q0 -42 -29 -71t-72 -29h-62q-88 0 -151.5 -69.5t-65.5 -161.5v-762v-4q0 -91 64 -162.5t153 -71.5h62q43 0 72 -29.5t29 -72.5t-29 -71.5t-72 -28.5q-229 0 -356 119.5t-127 318.5z" />
<glyph unicode=")" horiz-adv-x="739" d="M-22 -225q0 -43 29 -71.5t72 -28.5h6q226 1 350.5 119.5t126.5 314.5v763q0 7 -1 10q-4 191 -130 309t-346 119h-6q-43 0 -72 -29t-29 -73q0 -42 29 -71t72 -29h63q88 0 152.5 -71.5t63.5 -164.5v-763q-1 -91 -64.5 -161.5t-152.5 -70.5h-62q-43 0 -72 -29.5t-29 -72.5z " />
<glyph unicode="*" horiz-adv-x="694" d="M55 1174q0 43 31 73.5t75 30.5q33 0 59 -20l29 -17v40q0 43 30.5 73t74.5 30q42 0 71.5 -30t29.5 -73v-39l25 15q27 21 60 21q44 0 74 -30t30 -74q0 -55 -45 -82l-49 -30l51 -30q43 -29 43 -83q0 -42 -30 -72.5t-72 -30.5q-33 0 -61 20l-26 16v-40q0 -43 -30.5 -73.5 t-72.5 -30.5t-72.5 30.5t-30.5 73.5v41l-30 -18q-26 -19 -60 -19q-43 0 -73 30t-30 73q0 55 43 83l52 31l-50 30q-46 25 -46 81z" />
<glyph unicode="+" horiz-adv-x="841" d="M22 628q0 42 30 72.5t72 30.5h193v195q0 42 31 72t73 30q43 0 72.5 -30t29.5 -72v-195h195q42 0 72 -31t30 -74q0 -42 -30 -71.5t-72 -29.5h-195v-193q0 -43 -30 -73t-72 -30q-43 0 -73.5 30t-30.5 73v193h-193q-42 0 -72 30.5t-30 72.5z" />
<glyph unicode="," horiz-adv-x="437" d="M100 132q0 44 30.5 75.5t73.5 31.5q44 0 72 -31t28 -76v-286q0 -45 -28 -75t-72 -30t-74 30.5t-30 74.5v286z" />
<glyph unicode="-" horiz-adv-x="931" d="M68 593q0 43 30 73t73 30h577q43 0 73.5 -30.5t30.5 -72.5q0 -43 -30.5 -73t-73.5 -30h-577q-43 0 -73 30.5t-30 72.5z" />
<glyph unicode="." horiz-adv-x="476" d="M100 110q0 50 35.5 85.5t85.5 35.5q51 0 86.5 -35.5t35.5 -85.5t-35.5 -86t-86.5 -36q-50 0 -85.5 36t-35.5 86z" />
<glyph unicode="/" horiz-adv-x="604" d="M22 105q0 14 5 31l354 1101q10 33 38 52.5t61 19.5q45 0 74 -34t29 -80q0 -16 -5 -33l-355 -1089q-11 -33 -38.5 -52.5t-60.5 -19.5q-17 0 -30 4q-32 11 -52 39t-20 61z" />
<glyph unicode="0" horiz-adv-x="1437" d="M45 653q0 136 52 259t140.5 212.5t212 142.5t259.5 53q181 0 335 -89.5t243 -243t89 -334.5q0 -136 -52.5 -259t-142 -212t-213 -141.5t-259.5 -52.5t-259.5 52.5t-212 141.5t-140.5 212t-52 259zM250 653q0 -127 61 -233t166.5 -167.5t232.5 -61.5q193 0 327 134.5 t134 327.5q0 192 -134.5 326.5t-326.5 134.5t-326 -134.5t-134 -326.5z" />
<glyph unicode="1" horiz-adv-x="600" d="M44 1076q0 61 50 88l212 130q24 14 47 15q4 1 14 1q43 0 71 -30t28 -74v-1103q0 -44 -28 -73.5t-71 -29.5t-74 30t-31 73v925l-60 -37q-29 -15 -60 -15q-42 0 -70 29t-28 71z" />
<glyph unicode="2" horiz-adv-x="960" d="M45 102v4v5q0 33 23 58l6 6l492 524l1 1l6 8q128 134 128 226q0 86 -62.5 138.5t-150.5 52.5q-81 0 -142 -45.5t-74 -120.5q0 -40 -29 -68t-69 -28q-45 0 -72 27t-27 72q0 13 1 19q5 61 36.5 121t83 108.5t127.5 78.5t162 30q186 0 302 -101.5t116 -273.5 q0 -100 -42.5 -190t-140.5 -189l-351 -361h444q44 0 73.5 -29t29.5 -72t-30 -73t-73 -30h-666q-43 0 -72.5 30t-29.5 72z" />
<glyph unicode="3" horiz-adv-x="988" d="M44 292q0 40 30 67.5t71 27.5q65 0 93 -54l3 -6q33 -61 98 -98.5t140 -37.5q107 0 183 76t76 183q0 104 -74 162t-186 58h-94v1q-40 0 -68.5 31t-28.5 71q0 43 30 73l281 267h-399q-44 0 -74.5 26.5t-30.5 67.5q0 42 31 73t74 31h636q42 0 70 -31.5t28 -73.5 q0 -41 -30 -71l-290 -279q146 -37 237.5 -145t91.5 -261q0 -191 -136.5 -326.5t-327.5 -135.5q-131 0 -245 66.5t-173 176.5q-16 28 -16 61z" />
<glyph unicode="4" horiz-adv-x="986" d="M45 373v4q0 30 16 55l498 831q29 49 86 49q45 0 75.5 -30.5t30.5 -75.5v-730h90q42 0 71.5 -30.5t29.5 -72.5t-29.5 -72.5t-71.5 -30.5h-90v-168q0 -42 -29.5 -72t-71.5 -30q-43 0 -73 30t-30 72v168h-399q-43 0 -73 30.5t-30 72.5zM301 476h246v387z" />
<glyph unicode="5" horiz-adv-x="971" d="M39 300q0 41 29.5 71t71.5 30q31 0 56.5 -17.5t36.5 -45.5q29 -66 90.5 -107t134.5 -41q102 0 175 72.5t73 173.5q0 102 -73 175t-175 73q-112 0 -185 -83q-28 -42 -78 -42q-43 0 -75 30t-32 73q0 9 1 13l50 548q8 54 63 77q26 11 46 11h494q42 0 72.5 -31.5t30.5 -74.5 q0 -42 -30.5 -70.5t-72.5 -28.5h-408l-23 -246q75 26 147 26q186 0 317.5 -132t131.5 -318q0 -185 -131.5 -316t-317.5 -131q-134 0 -244.5 72.5t-163.5 191.5q-11 20 -11 47z" />
<glyph unicode="6" horiz-adv-x="999" d="M47 433q0 120 63 226l319 605q31 54 92 54q42 0 72 -29t30 -71q0 -29 -17 -57l-156 -288q4 0 12 1t14.5 1.5t12.5 0.5q120 0 222 -59t161 -161t59 -223q0 -183 -129 -312t-313 -129q-120 0 -221.5 59t-161 160.5t-59.5 221.5zM240 430q0 -101 72 -173.5t174 -72.5 q103 0 175 72t72 174q0 103 -72 174.5t-175 71.5q-102 0 -174 -71.5t-72 -174.5z" />
<glyph unicode="7" horiz-adv-x="976" d="M52 1207q0 43 31 73.5t75 30.5h668q34 0 61.5 -20.5t38.5 -52.5q3 -9 5 -29v-4q0 -7 -2 -19q-3 -17 -11 -29v-1l-526 -1103q-28 -54 -92 -54q-41 0 -68.5 26.5t-27.5 68.5q0 31 14 61l446 952h-506q-44 0 -75 28.5t-31 71.5z" />
<glyph unicode="8" horiz-adv-x="934" d="M44 412q0 103 49.5 191t135.5 147q-103 93 -103 223q0 144 99.5 241t238.5 97t239 -97t100 -241q0 -127 -105 -220q88 -58 140.5 -147t52.5 -194q0 -175 -124.5 -299.5t-299.5 -124.5t-299 124t-124 300zM248 412q0 -91 64 -156t155 -65q90 0 154.5 65t64.5 156 q0 90 -64.5 154.5t-154.5 64.5q-91 0 -155 -64t-64 -155zM322 987q0 -58 42 -100t101 -42q58 0 100 42t42 100t-42 100.5t-100 42.5q-59 0 -101 -42t-42 -101z" />
<glyph unicode="9" horiz-adv-x="1006" d="M62 877q0 120 59 221.5t161 160.5t222 59q182 0 312 -129.5t130 -311.5q0 -125 -64 -231l-2 -4l-317 -597q-29 -54 -92 -54q-41 0 -71 29t-30 70q0 29 17 57l156 288q-26 -2 -39 -2q-121 0 -222.5 59.5t-160.5 161.5t-59 223zM260 880q0 -103 72 -175t175 -72 q102 0 174 72t72 175q0 101 -72 172.5t-174 71.5q-103 0 -175 -71.5t-72 -172.5z" />
<glyph unicode=":" horiz-adv-x="479" d="M100 112q0 51 36 86.5t87 35.5t87 -35.5t36 -86.5t-36 -87t-87 -36t-87 36t-36 87zM100 841q0 52 36 88t87 36t87 -36t36 -88q0 -50 -36 -86.5t-87 -36.5t-87 36.5t-36 86.5z" />
<glyph unicode=";" horiz-adv-x="479" d="M100 132q0 44 30.5 75.5t73.5 31.5q44 0 72 -31t28 -76v-286q0 -45 -28 -75t-72 -30t-74 30.5t-30 74.5v286zM100 841q0 52 36 88t87 36t87 -36t36 -88q0 -50 -36 -86.5t-87 -36.5t-87 36.5t-36 86.5z" />
<glyph unicode="&#x3c;" horiz-adv-x="766" d="M43 628q0 48 44 72l499 261q19 10 40 10q35 0 59 -25.5t24 -59.5q0 -48 -42 -71l-364 -190l361 -196q44 -20 44 -73q0 -34 -24 -59t-58 -25q-20 0 -39 11l-496 268l-4 3q-44 23 -44 74z" />
<glyph unicode="=" horiz-adv-x="880" d="M73 322q0 42 30 71t72 29h538q43 0 73.5 -30.5t30.5 -72.5t-30.5 -72.5t-73.5 -30.5h-538q-42 0 -72 31t-30 75zM73 749q0 42 30 71t72 29h538q43 0 73.5 -30.5t30.5 -72.5t-30.5 -72.5t-73.5 -30.5h-538q-42 0 -72 31t-30 75z" />
<glyph unicode="&#x3e;" horiz-adv-x="792" d="M35 886q0 -48 42 -71l362 -190l-359 -196q-44 -20 -44 -73q0 -34 24 -59t58 -25q20 0 39 11l494 268l5 3q44 23 44 73q0 49 -44 73l-498 261q-19 10 -40 10q-35 0 -59 -25.5t-24 -59.5z" />
<glyph unicode="?" horiz-adv-x="929" d="M67 909v6q2 168 122 286.5t287 118.5q169 0 290.5 -120.5t121.5 -290.5q0 -167 -122.5 -284t-292.5 -117h-4v-81q0 -44 -28.5 -74t-71.5 -30t-73.5 30.5t-30.5 73.5v181q0 43 31 73.5t73 30.5h108q84 0 145.5 57.5t61.5 139.5q0 86 -58.5 146.5t-148.5 60.5 q-84 0 -145.5 -59.5t-61.5 -147.5q0 -43 -28 -74t-70 -31q-43 0 -74 31t-31 74zM258 98q0 46 32.5 79t77.5 33t77.5 -33t32.5 -79q0 -44 -32.5 -76.5t-77.5 -32.5t-77.5 32.5t-32.5 76.5z" />
<glyph unicode="@" horiz-adv-x="1519" d="M44 610q0 194 95 358t259 259.5t358 95.5q145 0 278.5 -56t230 -149.5t154 -220t57.5 -261.5q0 -178 -46 -281l-4 -6q-31 -63 -95 -97t-133 -34q-68 0 -123 40t-77 99q-103 -117 -236 -117q-153 0 -261 108t-108 260q0 154 108 261.5t261 107.5q146 0 248 -102t107 -251 q2 -10 2 -16v-104q0 -39 21.5 -65.5t53.5 -26.5q25 0 45.5 16t26.5 45q0 2 2 0q12 57 12 136q1 140 -67.5 258t-189.5 186.5t-267 68.5q-140 0 -258 -68.5t-186.5 -186t-68.5 -257.5q0 -213 150 -362.5t363 -149.5q77 0 166 27l9 3q12 4 27 4q41 0 70.5 -29.5t29.5 -70.5 q0 -29 -15.5 -53.5t-41.5 -36.5h-1l-4 -2q-3 -1 -10 -4t-11 -4q-96 -33 -219 -33q-194 0 -358 95.5t-259 259t-95 356.5zM585 608q0 -70 50.5 -120.5t120.5 -50.5t120 50t50 121q0 72 -49.5 122t-120.5 50t-121 -50t-50 -122z" />
<glyph unicode="A" horiz-adv-x="1205" d="M23 96q0 26 10 47l480 1105q27 63 93 63q30 0 55 -16.5t37 -45.5l476 -1106q10 -25 10 -47q0 -41 -29.5 -68.5t-70.5 -27.5q-30 0 -55.5 16t-38.5 44l-128 305h-519l-126 -304q-11 -29 -36 -45t-56 -16q-42 0 -72 27t-30 69zM428 568h348l-175 417z" />
<glyph unicode="B" d="M133 100v1110q0 42 29.5 71.5t71.5 29.5h361q149 0 253.5 -105.5t104.5 -254.5q0 -150 -108 -255q74 -55 116.5 -135.5t42.5 -175.5q0 -162 -115.5 -273.5t-280.5 -111.5h-374q-42 0 -71.5 29t-29.5 71zM337 204h264q81 0 140 59t59 136q0 79 -58.5 134.5t-141.5 55.5 h-263v-385zM337 773h252q66 3 113 55t47 117t-49 113.5t-116 48.5h-247v-334z" />
<glyph unicode="C" horiz-adv-x="1255" d="M44 652q0 130 50.5 252t137 213.5t211.5 147t266 55.5q130 0 253 -50.5t219 -147.5q29 -28 29 -70t-30 -71.5t-72 -29.5q-41 0 -71 28q-135 135 -329 135q-124 0 -229.5 -61t-167.5 -167t-62 -232q0 -123 59 -228.5t164.5 -169.5t232.5 -65q192 0 330 135q29 27 72 27 q42 0 71.5 -28t29.5 -70t-28 -72q-98 -97 -220.5 -146t-254.5 -49q-179 0 -331.5 89t-241 242t-88.5 333z" />
<glyph unicode="D" horiz-adv-x="1182" d="M133 100q0 -42 29.5 -71t71.5 -29h226q182 0 335 86t242.5 236t89.5 331q0 136 -52.5 258t-142 209.5t-213 139t-259.5 51.5h-226q-42 0 -71.5 -29.5t-29.5 -71.5v-1110zM337 205v900h129q191 -2 324 -132.5t133 -319.5q0 -192 -134 -320t-328 -128h-124z" />
<glyph unicode="E" horiz-adv-x="933" d="M133 101v1107q0 43 30 73t73 30h546q42 0 71.5 -30t29.5 -73q0 -42 -29.5 -71.5t-71.5 -29.5h-445v-354h321h5q40 0 68.5 -30t28.5 -71q0 -42 -30 -70t-72 -28h-321v-351h445q42 0 71.5 -30.5t29.5 -72.5q0 -41 -28.5 -70.5t-68.5 -29.5h-4h-555q-41 3 -67.5 31.5 t-26.5 69.5z" />
<glyph unicode="F" horiz-adv-x="898" d="M133 100v1112q1 38 25.5 68.5t75.5 30.5h543q42 0 71.5 -30t29.5 -73q0 -42 -29.5 -71.5t-71.5 -29.5h-440v-350h302q42 0 71.5 -30t29.5 -72t-29.5 -69.5t-71.5 -27.5h-302v-458q0 -42 -30.5 -71t-72.5 -29q-43 0 -72 29t-29 71z" />
<glyph unicode="G" horiz-adv-x="1382" d="M44 652q0 179 87 332.5t239.5 244.5t334.5 91q275 0 476 -198q29 -28 29 -70t-30.5 -72t-72.5 -30q-41 0 -70 29q-136 135 -330 135q-123 0 -228 -60t-167.5 -166.5t-62.5 -234.5q0 -127 61 -233t166.5 -167.5t232.5 -61.5q145 0 246.5 65.5t138.5 185.5h-216 q-42 0 -71.5 30t-29.5 72t29.5 72t71.5 30l335 -2q44 -1 74.5 -29.5t30.5 -71.5q-8 -157 -90.5 -284t-219.5 -199t-300 -72q-136 0 -259.5 52.5t-212 141t-140.5 211.5t-52 259z" />
<glyph unicode="H" horiz-adv-x="1232" d="M133 100v1110q0 42 29.5 71.5t71.5 29.5t72.5 -29.5t30.5 -71.5v-455h559v455q0 42 30.5 71.5t72.5 29.5t71.5 -29.5t29.5 -71.5v-1110q0 -42 -30.5 -71t-72.5 -29t-71.5 29t-29.5 71v451h-559v-451q0 -42 -30.5 -71t-72.5 -29t-71.5 29t-29.5 71z" />
<glyph unicode="I" horiz-adv-x="470" d="M133 100v1110q0 42 29.5 71.5t71.5 29.5t72.5 -29.5t30.5 -71.5v-1110q0 -42 -30.5 -71t-72.5 -29t-71.5 29t-29.5 71z" />
<glyph unicode="J" horiz-adv-x="471" d="M-210 -260q0 40 26.5 70t75.5 32q102 3 171.5 74t69.5 170v1119q0 44 29.5 75t71.5 31q44 0 74 -31t30 -75l-1 -1126q0 -183 -128 -311.5t-312 -128.5q-51 0 -79 30t-28 71z" />
<glyph unicode="K" horiz-adv-x="1126" d="M133 100v1110q0 42 29.5 71.5t71.5 29.5t72.5 -29.5t30.5 -71.5v-449l555 521q29 29 69 29q42 0 73 -31.5t31 -73.5q0 -43 -32 -72l-385 -361l409 -614q18 -27 18 -58q0 -41 -30.5 -71t-71.5 -30q-55 0 -84 45l-393 587l-159 -150v-382q0 -42 -30.5 -71t-72.5 -29 t-71.5 29t-29.5 71z" />
<glyph unicode="L" horiz-adv-x="878" d="M133 100v1109q0 43 29.5 72.5t71.5 29.5t72.5 -30t30.5 -72v-1006l425 -1q42 0 71.5 -30t29.5 -72q0 -41 -28.5 -70.5t-68.5 -29.5h-4h-540l-8 2q-35 7 -58 34t-23 64z" />
<glyph unicode="M" horiz-adv-x="1451" d="M22 104q0 10 1 14l152 1097q5 35 29 58q29 34 76 34q30 0 55.5 -16.5t38.5 -45.5l359 -878l358 878q13 29 38 45.5t55 16.5q19 0 38 -8l11 -6q50 -22 56 -78l143 -1100q1 -4 1 -14q0 -42 -30.5 -71t-73.5 -29q-38 0 -67 25t-33 63l-94 729l-310 -757q-26 -61 -98 -61 q-64 0 -90 61l-311 762l-102 -735q-5 -38 -33 -62t-66 -24q-42 0 -72.5 29.5t-30.5 72.5z" />
<glyph unicode="N" horiz-adv-x="1232" d="M133 100v1107q0 42 29.5 71.5t71.5 29.5h2q6 0 9 -1q5 0 7 -1l14 -3q17 -6 30 -16l11 -9q12 -11 19 -25l608 -850v807q0 42 30.5 71.5t72.5 29.5q43 0 72 -29.5t29 -71.5v-1110q0 -34 -20.5 -60.5t-51.5 -35.5q-8 -2 -18 -4h-12q-34 0 -63 22q-16 11 -19 17l-617 864 v-803q0 -42 -30.5 -71t-72.5 -29t-71.5 29t-29.5 71z" />
<glyph unicode="O" horiz-adv-x="1419" d="M44 653q0 136 52 259t140.5 212.5t212 142.5t259.5 53q181 0 335 -89.5t243 -243t89 -334.5q0 -136 -52.5 -259t-142 -212t-213 -141.5t-259.5 -52.5t-259.5 52.5t-212 141.5t-140.5 212t-52 259zM249 653q0 -127 61 -233t166.5 -167.5t232.5 -61.5q193 0 327 134.5 t134 327.5q0 192 -134.5 326.5t-326.5 134.5t-326 -134.5t-134 -326.5z" />
<glyph unicode="P" horiz-adv-x="1026" d="M133 100v1110q0 42 29.5 71.5t71.5 29.5h344q165 0 280 -113t115 -275q0 -163 -115 -274t-280 -111h-241v-438q0 -42 -30.5 -71t-72.5 -29t-71.5 29t-29.5 71zM337 741h242q77 0 133.5 56.5t56.5 130.5q0 76 -56 128.5t-135 52.5h-241v-368z" />
<glyph unicode="Q" horiz-adv-x="1419" d="M44 653q0 136 52 259t140.5 212.5t212 142.5t259.5 53q181 0 335 -89.5t243 -243t89 -334.5q0 -185 -93.5 -340t-250.5 -242q2 -34 27 -57.5t59 -23.5q36 0 61.5 -25t25.5 -62t-25.5 -62.5t-61.5 -25.5h-4q-93 1 -165 52.5t-99 134.5q-70 -14 -141 -14 q-136 0 -259.5 52.5t-212 141.5t-140.5 212t-52 259zM249 653q0 -123 56.5 -225.5t154.5 -164.5q26 85 99.5 138t168.5 53q88 0 159 -46.5t102 -122.5q85 64 133 160t48 208q0 192 -134.5 326.5t-326.5 134.5t-326 -134.5t-134 -326.5zM642 197q44 -6 67 -6q46 0 104 12 q-4 32 -28.5 54t-56.5 22q-35 0 -60 -24t-26 -58z" />
<glyph unicode="R" horiz-adv-x="1059" d="M133 100v1110q0 42 29.5 71.5t71.5 29.5h344q165 0 280 -113t115 -275q0 -126 -71.5 -224.5t-187.5 -138.5l242 -409q14 -23 14 -50q0 -41 -31 -71t-72 -30q-60 0 -88 51l-285 487h-157v-438q0 -42 -30.5 -71t-72.5 -29t-71.5 29t-29.5 71zM337 741h242q77 0 133.5 56.5 t56.5 130.5q0 76 -56 128.5t-135 52.5h-241v-368z" />
<glyph unicode="S" horiz-adv-x="1027" d="M56 295q0 38 30.5 67.5t68.5 29.5q46 0 94 -60q43 -68 113.5 -105t160.5 -37q97 0 171.5 51.5t74.5 137.5q0 35 -13 62t-33.5 44.5t-51.5 31.5t-59.5 22.5t-66.5 18.5q-4 1 -6.5 1.5t-6.5 1.5t-7 2q-438 83 -438 379q0 82 36 153.5t95.5 120t137.5 76.5t161 28 q125 0 231 -50t160 -142q12 -18 12 -38q0 -39 -29 -66.5t-68 -27.5q-31 0 -60 20q-60 55 -111 77.5t-132 22.5q-95 0 -161 -47.5t-67 -124.5q0 -43 19.5 -73t70.5 -52t84.5 -31t114.5 -27q5 -1 8 -2q64 -17 114.5 -36t103 -50t87 -69t56.5 -93t22 -121q0 -172 -132.5 -287.5 t-324.5 -115.5q-149 0 -272.5 73t-172.5 180q-14 30 -14 55z" />
<glyph unicode="T" horiz-adv-x="995" d="M18 1209q0 42 29.5 72t71.5 30h745q42 0 72 -30.5t30 -72.5t-30 -71t-72 -29h-273v-1008q0 -42 -30.5 -71t-72.5 -29t-69.5 29t-27.5 71v1008h-272q-42 0 -71.5 29.5t-29.5 71.5z" />
<glyph unicode="U" horiz-adv-x="1161" d="M93 467v740q0 43 30 73t72 30t72 -30t30 -73v-735q0 -117 82 -200t205 -83q122 0 198 82.5t76 200.5v738q0 43 29.5 72t71.5 29q43 0 73 -29t30 -72v-743q0 -201 -134 -339.5t-343 -138.5q-104 0 -195.5 38t-156.5 102t-102.5 152t-37.5 186z" />
<glyph unicode="V" horiz-adv-x="1198" d="M22 1208q0 41 31 71t72 30q30 0 56 -17t38 -46l382 -890l381 890q12 29 37 45.5t55 16.5q42 0 72 -29t30 -71q0 -17 -9 -40l-474 -1106q-12 -29 -37 -45t-55 -17h-7q-29 2 -53 18t-36 44l-474 1106q-9 20 -9 40z" />
<glyph unicode="W" horiz-adv-x="1765" d="M22 1208q0 42 30 71.5t72 29.5q31 0 56.5 -17t38.5 -46l382 -890l169 390l-181 422q-8 21 -8 40q0 42 30 71.5t72 29.5q31 0 56.5 -17t38.5 -46l104 -241l104 241q12 29 38 46t56 17q41 0 71.5 -30t30.5 -71q0 -19 -8 -40l-182 -420l168 -392l385 890q12 29 38 46t56 17 q41 0 71.5 -29.5t30.5 -70.5q0 -21 -9 -41l-476 -1106q-12 -30 -38.5 -46t-59.5 -16q-30 0 -55.5 16t-38.5 46l-183 425l-183 -425q-26 -62 -99 -62q-67 0 -93 62l-476 1106q-8 21 -8 40z" />
<glyph unicode="X" horiz-adv-x="1220" d="M23 1203q0 43 29.5 74t71.5 31q47 0 77 -36l408 -465l409 465q29 35 77 35q42 0 71 -31.5t29 -73.5q0 -38 -26 -66l-424 -484l426 -483q27 -30 27 -68q0 -42 -30 -71.5t-72 -29.5q-46 0 -76 34l-411 465l-407 -465q-30 -34 -76 -34q-42 0 -72 30.5t-30 71.5q0 39 25 67 l425 483l-426 485q-25 26 -25 66z" />
<glyph unicode="Y" horiz-adv-x="1100" d="M22 1203q0 43 30.5 74t73.5 31q49 0 75 -36l347 -527l345 529q29 35 75 35q41 0 72 -31t31 -71q0 -35 -25 -69l-396 -593v-445q0 -42 -30 -71t-72 -29t-72 29t-30 71v444l-400 593q-24 29 -24 66z" />
<glyph unicode="Z" horiz-adv-x="1221" d="M44 103q0 36 25 66l778 938h-685q-42 0 -72 29.5t-30 71.5t31 72.5t74 30.5h897q30 -1 55 -19l13 -9q35 -30 35 -76q0 -37 -25 -67l-778 -936h715q42 0 71.5 -30.5t29.5 -72.5t-29.5 -71.5t-71.5 -29.5h-921h-9q-42 0 -72.5 30.5t-30.5 72.5z" />
<glyph unicode="[" horiz-adv-x="605" d="M133 -225v1430q0 44 30.5 75t73.5 31h242q42 0 73 -32t31 -75t-30 -70t-74 -27h-142v-1234h143q44 0 74 -28t30 -70q0 -44 -30.5 -75t-73.5 -31h-243q-43 0 -73.5 31t-30.5 75z" />
<glyph unicode="\" horiz-adv-x="604" d="M-22 1195q0 -13 6 -33l354 -1089q11 -33 38.5 -52.5t60.5 -19.5q17 0 30 4q32 11 52.5 39t20.5 61q0 14 -5 31l-355 1101q-10 33 -38 52.5t-61 19.5q-45 0 -74 -34t-29 -80z" />
<glyph unicode="]" horiz-adv-x="605" d="M-22 -226q0 -43 30.5 -74t73.5 -31h244q42 0 71.5 30t31.5 73v1433q0 44 -30 75t-73 31h-243q-42 0 -72.5 -32t-30.5 -75t29.5 -70t73.5 -27h142v-1234h-143q-44 0 -74 -28t-30 -71z" />
<glyph unicode="^" horiz-adv-x="1177" d="M45 559q0 27 16 47l442 630q23 36 69 36q43 0 68 -35l439 -628q17 -23 17 -50q0 -34 -24 -58t-58 -24q-44 0 -69 35l-373 532l-375 -532q-23 -36 -69 -36q-34 0 -58.5 24.5t-24.5 58.5z" />
<glyph unicode="_" horiz-adv-x="1078" d="M63 -103q0 44 31 72t78 28h727q47 0 79.5 -28t32.5 -72q0 -45 -32.5 -74.5t-79.5 -29.5h-727q-46 0 -77.5 29.5t-31.5 74.5z" />
<glyph unicode="`" horiz-adv-x="509" d="M63 1711q0 42 31 71.5t73 29.5q44 0 74 -30l136 -137q31 -31 31 -73q0 -41 -31 -72.5t-72 -31.5q-42 0 -73 31l-138 139q-31 31 -31 73z" />
<glyph unicode="a" horiz-adv-x="1121" d="M44 476q0 99 39 189.5t104.5 156t155.5 104.5t189 39q131 0 243 -65t178 -177t67 -243v-376q0 -43 -31 -73.5t-74 -30.5q-40 0 -67.5 26.5t-31.5 66.5q-129 -105 -284 -105q-132 0 -244.5 65.5t-178 178t-65.5 244.5zM249 476q0 -117 82.5 -200t200.5 -83q119 0 201.5 83 t82.5 200q0 119 -82.5 201t-201.5 82q-118 0 -200.5 -82.5t-82.5 -200.5z" />
<glyph unicode="b" horiz-adv-x="1124" d="M104 100v1110q0 42 30 71.5t72 29.5t72 -29.5t30 -71.5v-338q128 93 285 93q132 0 244.5 -65.5t177.5 -178t65 -245.5q0 -132 -65 -244t-177.5 -177.5t-244.5 -65.5q-157 0 -287 93q-6 -35 -34.5 -58.5t-65.5 -23.5q-42 0 -72 29t-30 71zM308 476q0 -117 83.5 -199.5 t201.5 -82.5q119 0 201.5 82.5t82.5 199.5q0 119 -82.5 201t-201.5 82q-118 0 -201.5 -82.5t-83.5 -200.5z" />
<glyph unicode="c" horiz-adv-x="952" d="M44 472q1 2 1 3l-1 1q0 134 66.5 247t180 178.5t247.5 65.5q96 0 183 -34t149 -97q37 -37 37 -84q0 -40 -30 -71t-70 -31q-36 0 -93 44q-79 66 -189 66q-111 0 -191.5 -85.5t-80.5 -196.5v147q0 -135 -1 -149l1 -1q0 -115 81 -197t196 -82q105 0 184 65q55 42 92 42 q40 0 70.5 -29.5t30.5 -69.5q0 -47 -37 -84q-62 -63 -149 -97t-183 -34q-205 0 -349.5 140.5t-144.5 342.5z" />
<glyph unicode="d" horiz-adv-x="1123" d="M44 476q0 202 143.5 345.5t344.5 143.5q155 0 284 -92v337q0 42 30 71.5t72 29.5t72 -29.5t30 -71.5v-1110q0 -42 -30 -71t-72 -29q-37 0 -65.5 23.5t-35.5 58.5q-128 -93 -285 -93q-132 0 -244.5 65.5t-178 177.5t-65.5 244zM249 476q0 -117 82.5 -199.5t200.5 -82.5 q116 0 197.5 78t86.5 192v23q-5 115 -86.5 193.5t-197.5 78.5q-118 0 -200.5 -82.5t-82.5 -200.5z" />
<glyph unicode="e" horiz-adv-x="1069" d="M44 476q0 133 66 245.5t179.5 178t245.5 65.5q131 0 243.5 -65t179 -176.5t67.5 -242.5q0 -43 -28 -70t-72 -27h-655q25 -88 98 -144t167 -56q115 0 183 73q35 26 67 26q54 0 83 -50q18 -26 18 -56q0 -45 -39 -78q-116 -110 -312 -110q-132 0 -245.5 65t-179.5 177 t-66 245zM264 554h551q-22 95 -98.5 155.5t-178.5 60.5q-101 0 -177 -61.5t-97 -154.5z" />
<glyph unicode="f" horiz-adv-x="618" d="M16 862q0 42 30 71.5t72 29.5h67v57q3 144 95.5 229.5t230.5 85.5q44 0 73.5 -26.5t29.5 -69.5q0 -41 -30 -70.5t-73 -29.5q-52 0 -87 -36t-35 -87v-53h94q43 0 73.5 -29.5t30.5 -71.5q0 -43 -30 -73t-74 -30h-94v-655q0 -43 -29.5 -73t-71.5 -30t-72.5 30t-30.5 73v655 h-67q-42 0 -72 30.5t-30 72.5z" />
<glyph unicode="g" horiz-adv-x="1122" d="M44 476q0 99 39 189.5t104.5 156t155.5 104.5t189 39q154 0 283 -92q4 39 33.5 65.5t69.5 26.5q42 0 71.5 -29.5t29.5 -71.5v-358q0 -5 0.5 -15t0.5 -15t-0.5 -15.5t-0.5 -15.5v-350q-2 -137 -67.5 -249t-176.5 -174.5t-245 -62.5q-96 0 -183 34t-149 97q-37 37 -37 84 q0 39 30.5 69.5t70.5 30.5q36 0 92 -43q80 -65 184 -65q110 0 188.5 75.5t87.5 185.5q-127 -89 -282 -89q-132 0 -244.5 65.5t-178 178t-65.5 244.5zM249 476q0 -117 82.5 -200t200.5 -83q112 0 193 75.5t90 184.5v47q-9 110 -89.5 184.5t-193.5 74.5q-118 0 -200.5 -82.5 t-82.5 -200.5z" />
<glyph unicode="h" horiz-adv-x="1061" d="M102 101v1106q0 43 31 73.5t72 30.5q42 0 71.5 -30.5t29.5 -73.5v-358q121 116 261 116q177 0 288 -133.5t112 -339.5v-394q0 -42 -30 -71t-72 -29t-71.5 29t-29.5 71v389q0 125 -58.5 200t-160.5 75q-100 0 -167.5 -72.5t-71.5 -181.5v-407q0 -42 -29.5 -71.5 t-71.5 -29.5q-43 0 -73 29.5t-30 71.5z" />
<glyph unicode="i" horiz-adv-x="407" d="M90 1186q0 47 33.5 80t80.5 33t80 -33t33 -80q0 -46 -33.5 -79.5t-79.5 -33.5t-80 33.5t-34 79.5zM102 101v762q0 42 31 72.5t73 30.5t71 -30.5t29 -72.5v-762q0 -42 -29.5 -71.5t-71.5 -29.5t-72.5 29.5t-30.5 71.5z" />
<glyph unicode="j" horiz-adv-x="410" d="M-126 -194q0 43 30 73.5t72 30.5h6q49 0 84.5 34.5t36.5 83.5v832q0 43 30.5 73.5t72.5 30.5q43 0 72 -30t29 -74v-828q0 -10 -1 -14q-5 -132 -99 -223t-225 -91h-6q-42 0 -72 29.5t-30 72.5zM90 1186q0 47 33.5 80t80.5 33t80 -33t33 -80q0 -46 -33.5 -79.5t-79.5 -33.5 t-80 33.5t-34 79.5z" />
<glyph unicode="k" horiz-adv-x="931" d="M102 100v1110q0 42 31 71.5t73 29.5t71 -29.5t29 -71.5v-647l372 364q28 27 66 27q42 0 73 -31v-2q29 -29 29 -70t-30 -71l-232 -221l261 -400q17 -26 17 -57q0 -41 -30.5 -71.5t-71.5 -30.5q-56 0 -84 46l-244 371l-127 -121v-196q0 -42 -29 -71t-70 -29q-42 0 -73 29 t-31 71z" />
<glyph unicode="l" horiz-adv-x="409" d="M102 100v1110q0 42 30.5 71.5t72.5 29.5t71.5 -29.5t29.5 -71.5v-1110q0 -42 -29.5 -71t-71.5 -29t-72.5 29t-30.5 71z" />
<glyph unicode="m" horiz-adv-x="1491" d="M102 101v762q0 42 31 72.5t73 30.5q38 0 65 -24t33 -61q90 85 202 85q161 0 260 -120q60 56 137.5 88t155.5 32q152 0 247.5 -107.5t96.5 -264.5v-494q0 -42 -29.5 -71t-70.5 -29q-42 0 -73 29.5t-31 70.5v497q-2 71 -45.5 117.5t-112.5 46.5t-126 -47.5t-61 -112.5v-501 q0 -42 -29.5 -71t-70.5 -29q-42 0 -73 29.5t-31 70.5v501q-2 70 -45.5 115t-110.5 45q-70 0 -127.5 -47t-60.5 -112v-6v-8v-4v-483q0 -42 -29.5 -71.5t-71.5 -29.5t-72.5 29.5t-30.5 71.5z" />
<glyph unicode="n" horiz-adv-x="1059" d="M102 101v762q0 42 31 72.5t73 30.5t71 -30.5t29 -72.5v-14q121 116 261 116q177 0 288 -133.5t112 -339.5v-394q0 -42 -30 -71t-72 -29t-71.5 29t-29.5 71v394q-2 124 -60 197t-159 73q-103 0 -171 -75.5t-68 -189.5v-396q0 -42 -29.5 -71.5t-71.5 -29.5t-72.5 29.5 t-30.5 71.5z" />
<glyph unicode="o" d="M44 476q0 99 39 189.5t104.5 156t155.5 104.5t189 39q132 0 244.5 -65.5t178 -178.5t65.5 -245t-65.5 -244.5t-178 -178t-244.5 -65.5t-244.5 65.5t-178 178t-65.5 244.5zM249 476q0 -117 82.5 -200t200.5 -83q119 0 201.5 83t82.5 200q0 119 -82.5 201t-201.5 82 q-118 0 -200.5 -82.5t-82.5 -200.5z" />
<glyph unicode="p" horiz-adv-x="1122" d="M102 -246v1110q0 42 30 71.5t72 29.5q40 0 69.5 -27t32.5 -66q131 93 285 93q99 0 189.5 -39t155.5 -104.5t103.5 -156t38.5 -189.5q0 -132 -65 -244.5t-177.5 -178t-244.5 -65.5q-158 0 -285 92v-326q0 -42 -30 -71t-72 -29t-72 29t-30 71zM307 476q0 -117 83 -200 t201 -83q119 0 201 82.5t82 200.5q0 119 -82 201t-201 82q-118 0 -201 -82.5t-83 -200.5z" />
<glyph unicode="q" horiz-adv-x="1120" d="M44 476q0 99 39 189.5t104.5 156t155.5 104.5t189 39q154 0 283 -92q4 39 33.5 65.5t69.5 26.5q42 0 71.5 -29.5t29.5 -71.5v-358q0 -4 0.5 -11t0.5 -11v-725q0 -11 -4 -29q-11 -47 -57 -67q-22 -10 -44 -10q-51 0 -79 41q-21 27 -21 60v324q-129 -90 -283 -90 q-132 0 -244.5 65.5t-178 178t-65.5 244.5zM249 476q0 -117 82.5 -200t200.5 -83q112 0 193 75.5t90 184.5v47q-9 110 -89.5 184.5t-193.5 74.5q-118 0 -200.5 -82.5t-82.5 -200.5z" />
<glyph unicode="r" horiz-adv-x="743" d="M103 101v762q0 42 30.5 72.5t73.5 30.5q42 0 71 -30.5t29 -72.5v-2q136 104 305 104h4q49 0 77.5 -28.5t28.5 -73.5q0 -43 -31 -72t-75 -29h-4q-126 0 -215.5 -90.5t-89.5 -218.5v-352q0 -42 -29.5 -71.5t-71.5 -29.5t-72.5 29.5t-30.5 71.5z" />
<glyph unicode="s" horiz-adv-x="799" d="M39 218q0 39 27.5 64.5t65.5 25.5q52 0 92 -48q34 -48 75 -70t104 -22q60 0 104 27.5t44 74.5q0 23 -12 42t-25.5 30t-41.5 23t-42 16.5t-45 13.5q-58 20 -97.5 36.5t-86 43t-74 54.5t-46.5 68.5t-19 87.5q0 83 48 148.5t124.5 99.5t164.5 34q93 0 179 -36.5t119 -101.5 q12 -26 12 -44q0 -35 -27 -61t-62 -26q-16 0 -34 8q-8 6 -27 20t-27 19.5t-25 15.5t-29 14.5t-29 8t-35 3.5q-66 0 -106.5 -24.5t-40.5 -71.5q0 -46 42 -71.5t132 -53.5q57 -18 95.5 -33t82 -39.5t69.5 -52.5t43.5 -69.5t17.5 -92.5q0 -123 -98.5 -206.5t-246.5 -83.5 q-107 0 -205.5 43.5t-144.5 129.5q-15 27 -15 56z" />
<glyph unicode="t" horiz-adv-x="601" d="M15 862q0 42 30.5 71.5t72.5 29.5h73v247q0 42 30.5 71.5t72.5 29.5t71.5 -29.5t29.5 -71.5v-247h88q43 0 73 -29.5t30 -71.5q0 -44 -30 -73.5t-73 -29.5h-88v-659q0 -42 -29.5 -71t-71.5 -29t-72.5 29t-30.5 71v659h-73q-42 0 -72.5 30.5t-30.5 72.5z" />
<glyph unicode="u" horiz-adv-x="1058" d="M92 474v391q0 42 30.5 71.5t72.5 29.5q41 0 71 -29.5t30 -71.5v-393q1 -123 59.5 -196.5t159.5 -73.5q102 0 170.5 75.5t68.5 189.5v395q0 42 29.5 72t71.5 30q41 0 71.5 -30t30.5 -72v-762q0 -42 -30.5 -72t-73.5 -30q-42 0 -70.5 30t-28.5 72v15q-121 -116 -262 -116 q-178 0 -289 134t-111 341z" />
<glyph unicode="v" horiz-adv-x="939" d="M23 863q0 41 30 72t71 31q30 0 55 -17t38 -46l253 -572l251 572q13 28 38.5 45t54.5 17q41 0 71.5 -31t30.5 -72q0 -22 -9 -43l-343 -758q-10 -21 -27 -36q-14 -10 -25 -16q-4 -2 -5 -2q-12 -5 -30 -7h-5q-26 0 -44 9q-20 11 -32 23q-12 13 -20 29l-344 759q-9 21 -9 43z " />
<glyph unicode="w" horiz-adv-x="1355" d="M24 862q0 42 30 73t71 31q30 0 55 -17t38 -46l253 -571l98 223l-119 265q-11 22 -11 43q0 42 30.5 72.5t71.5 30.5q30 0 55 -17t38 -46l44 -101l45 101q12 28 37.5 45t55.5 17q41 0 72 -30.5t31 -71.5q0 -18 -11 -44l-120 -265l99 -222l252 571q12 28 37.5 45t55.5 17 q41 0 71.5 -31t30.5 -72q0 -22 -9 -43l-344 -758q-13 -25 -33 -41q-12 -8 -18 -11q-16 -7 -35 -9h-5q-26 0 -44 9q-16 7 -31 22t-21 30l-115 252l-114 -252q-6 -13 -19 -28q-11 -13 -32 -24q-16 -7 -35 -9h-15q-19 2 -35 9q-18 7 -32 23q-11 11 -19 29l-345 759q-9 20 -9 42 z" />
<glyph unicode="x" horiz-adv-x="1019" d="M27 865q0 41 30 72t71 31q42 0 73 -31l309 -312l307 310q29 32 75 32q42 0 71 -31t29 -73q0 -41 -27 -69l-312 -314l304 -306q30 -30 30 -74q0 -42 -29.5 -71t-71.5 -29q-41 0 -71 30l-304 306l-304 -306q-30 -30 -75 -30q-42 0 -72 28t-30 70t29 73l308 309l-312 315 q-28 28 -28 70z" />
<glyph unicode="y" horiz-adv-x="939" d="M23 863q0 41 30 72t71 31q30 0 55 -17t38 -46l250 -566l254 566q13 28 38.5 45t54.5 17q41 0 71.5 -31t30.5 -72q0 -22 -9 -43l-510 -1118q-13 -29 -38.5 -45t-55.5 -16q-40 0 -67 26t-27 66q0 28 11 51l139 313l-327 724q-9 21 -9 43z" />
<glyph unicode="z" horiz-adv-x="1032" d="M45 100q0 41 30 71l571 593h-491q-42 0 -72 29t-30 71t30 71.5t72 29.5h711q8 0 20 -2q18 -3 36 -16q10 -6 20 -18q21 -22 24 -51q0 -1 0.5 -5.5t0.5 -6.5v-4q-1 -40 -29 -68l-2 -2l-572 -593h522q43 0 72.5 -28.5t29.5 -69.5q0 -42 -29.5 -71.5t-72.5 -29.5h-740 q-41 0 -71 29.5t-30 70.5z" />
<glyph unicode="{" horiz-adv-x="795" d="M44 509q0 46 32.5 77.5t78.5 31.5h46v266q7 180 134.5 303.5t309.5 123.5q13 0 39 -2q43 0 71.5 -29t28.5 -73q0 -42 -28.5 -71t-71.5 -29h-62q-88 0 -152.5 -69.5t-66.5 -161.5v-765q-1 -91 64.5 -163t154.5 -72h62q43 0 71.5 -29.5t28.5 -72.5t-28.5 -72t-71.5 -29 q-12 -1 -37 -1q-183 0 -312.5 124.5t-133.5 304.5v293h-46q-46 0 -78.5 34t-32.5 81z" />
<glyph unicode="|" horiz-adv-x="470" d="M133 -160v1366q0 44 29 74.5t71 30.5q43 0 73.5 -30.5t30.5 -74.5v-1366q0 -43 -31 -73.5t-73 -30.5t-71 30t-29 74z" />
<glyph unicode="}" horiz-adv-x="797" d="M-26 -226q0 -43 29 -72t72 -29q26 -2 39 -2q121 0 223.5 58.5t161.5 160.5t59 223v281h47q45 0 77.5 34t32.5 81q0 46 -32 77.5t-78 31.5h-47v253q0 7 -1 10q-5 180 -133.5 305t-309.5 125q-13 0 -39 -2q-43 0 -72 -29t-29 -73q0 -42 29 -71t72 -29h62q88 0 152 -69 t66 -162v-765v-2q-1 -91 -65.5 -162t-152.5 -71h-62q-43 0 -72 -30t-29 -72z" />
<glyph unicode="~" horiz-adv-x="1025" d="M52 555q0 43 29 72q12 17 33 38.5t54.5 48t80 44.5t93.5 18q88 0 178 -68q78 -60 115 -60q60 0 124 86l3 -2q0 1 1 2q29 27 67 27q40 0 68.5 -28.5t28.5 -68.5q0 -34 -22 -64q0 -5 -2 -7q-11 -17 -32 -39t-54.5 -48.5t-80 -44.5t-94.5 -18q-85 0 -180 73q-73 55 -112 55 q-55 0 -109 -67q-4 -6 -15 -20q-28 -30 -72 -30q-42 0 -72 29.5t-30 71.5z" />
<glyph unicode="&#xa1;" horiz-adv-x="484" d="M133 895q0 -44 32.5 -76.5t77.5 -32.5q43 0 75.5 32.5t32.5 76.5q0 45 -32 77.5t-76 32.5q-46 0 -78 -32t-32 -78zM137 -203q0 -43 30.5 -73t72.5 -30t71.5 30t29.5 73v791q0 44 -29.5 73.5t-73.5 29.5q-42 0 -71.5 -30t-29.5 -73v-791z" />
<glyph unicode="&#xa2;" horiz-adv-x="952" d="M44 472q1 2 1 3l-1 1q0 180 115.5 315.5t289.5 166.5v121q0 35 25.5 61t62.5 26q35 0 60 -26t25 -61v-120q150 -23 248 -123q37 -37 37 -84q0 -40 -30 -71t-70 -31q-36 0 -93 44q-79 66 -189 66q-111 0 -191.5 -85.5t-80.5 -196.5v147q0 -135 -1 -149l1 -1 q0 -115 81 -197t196 -82q105 0 184 65q55 42 92 42q40 0 70.5 -29.5t30.5 -69.5q0 -47 -37 -84q-97 -100 -249 -125v-87q0 -37 -25 -62t-60 -25q-37 0 -63 25t-26 62v89q-174 31 -288.5 163.5t-114.5 311.5z" />
<glyph unicode="&#xa3;" horiz-adv-x="1016" d="M35 573q0 26 17.5 43.5t44.5 17.5h69v333q0 14 2 20q8 134 105 229t231 95h22q42 0 71.5 -29.5t29.5 -71.5q0 -47 -31 -74.5t-78 -27.5q-64 0 -105.5 -40t-41.5 -102h-1v-332h174q26 0 44.5 -18t18.5 -44q0 -27 -18 -44.5t-45 -17.5h-174v-306h497q42 0 71.5 -29.5 t29.5 -71.5q0 -43 -30 -73t-72 -30h-601q-42 1 -70.5 29.5t-28.5 70.5v410h-69q-27 0 -44.5 18t-17.5 45z" />
<glyph unicode="&#xa4;" horiz-adv-x="1027" d="M74 1125q0 41 30.5 72t70.5 31q54 0 83 -45l109 -157q67 25 137 25q63 0 133 -24l107 157q29 45 86 45q41 0 70 -29.5t29 -71.5q0 -32 -18 -59l-108 -159q91 -109 91 -247q0 -143 -96 -255l110 -157q19 -29 19 -57q0 -42 -31 -72t-73 -30q-55 0 -82 44l-112 159 q-60 -20 -125 -20q-64 0 -124 20l-116 -167q-31 -46 -84 -46q-41 0 -71 31t-30 72q0 32 17 56l116 168q-95 109 -95 254q0 137 86 244l-113 162v1q-16 25 -16 55zM309 664q0 -83 56.5 -140.5t138.5 -57.5q83 0 139.5 57.5t56.5 140.5q0 82 -56.5 139t-139.5 57 q-82 0 -138.5 -57t-56.5 -139z" />
<glyph unicode="&#xa5;" horiz-adv-x="1241" d="M24 1203q0 43 30.5 74t72.5 31q49 0 76 -36l412 -527l412 529q30 35 76 35q41 0 71.5 -31t30.5 -72q0 -36 -24 -68l-408 -523h123q26 0 44.5 -18t18.5 -44t-18.5 -45t-44.5 -19h-177v-110h177q26 0 44.5 -18.5t18.5 -44.5t-18.5 -44.5t-44.5 -18.5h-177v-153 q0 -42 -30.5 -71t-72.5 -29t-71.5 29t-29.5 71v153h-166q-26 0 -44 18.5t-18 44.5q0 27 18 45t44 18h166v110h-166q-26 0 -44 19t-18 45t18 44t44 18h110l-411 522q-24 29 -24 66z" />
<glyph unicode="&#xa6;" horiz-adv-x="471" d="M133 -214v530q0 42 29.5 72.5t71.5 30.5q43 0 73.5 -30.5t30.5 -72.5v-530q0 -42 -30.5 -72t-73.5 -30q-42 0 -71.5 30t-29.5 72zM133 676v532q0 43 29.5 73.5t71.5 30.5q43 0 73.5 -30.5t30.5 -73.5v-532q0 -43 -30.5 -73.5t-73.5 -30.5q-42 0 -71.5 30.5t-29.5 73.5z " />
<glyph unicode="&#xa7;" horiz-adv-x="1030" d="M58 561q0 138 88 243q-44 67 -44 162q0 109 61 196.5t158.5 134t209.5 46.5q126 0 232.5 -50t160.5 -142q10 -17 10 -39q0 -40 -28 -66.5t-68 -26.5q-33 0 -61 19q-60 56 -110.5 79t-131.5 23q-96 0 -162 -47.5t-66 -125.5q0 -22 7 -40.5t16 -32t29 -25.5t35 -19 t46 -15.5t49 -12.5t56.5 -12.5t57.5 -12.5q384 -99 384 -384q0 -137 -89 -243q44 -67 44 -161q0 -109 -61 -197t-158.5 -135t-209.5 -47q-124 0 -230.5 50.5t-161.5 142.5q-10 17 -10 39q0 39 28.5 66t67.5 27q31 0 60 -20q60 -56 111 -78.5t132 -22.5q96 0 161.5 47 t66.5 126q0 22 -7 41t-16 32t-29.5 25t-35.5 19t-45.5 15.5t-48.5 12.5t-57 12.5t-58 12.5q-383 101 -383 384zM246 571q0 -36 17 -66t40 -49t62 -36.5t67 -26.5t72 -20q156 -30 253 -80q42 45 42 109q0 37 -17 67t-40 49t-62 36.5t-67 26.5t-72 20q-155 29 -253 80 q-42 -45 -42 -110z" />
<glyph unicode="&#xa8;" horiz-adv-x="798" d="M106 1242q0 47 33.5 81t80.5 34q46 0 80.5 -34.5t34.5 -80.5q0 -47 -34 -80.5t-81 -33.5t-80.5 33.5t-33.5 80.5zM484 1242q0 46 34 80.5t80 34.5q48 0 81.5 -34t33.5 -81q0 -48 -33.5 -81t-81.5 -33q-46 0 -80 33.5t-34 80.5z" />
<glyph unicode="&#xa9;" horiz-adv-x="1455" d="M45 606q0 140 53.5 267t145 219t218.5 146.5t268 54.5q186 0 344.5 -92t251 -250.5t92.5 -344.5q0 -187 -92.5 -345t-250.5 -250t-345 -92q-188 0 -345.5 92t-248.5 250t-91 345zM170 606q0 -116 44 -220t118.5 -178.5t178.5 -118.5t219 -44t219 44t179 118.5t119 178.5 t44 220q0 114 -44 217.5t-119 178.5t-179 119t-219 44q-153 0 -282 -74.5t-203.5 -203t-74.5 -281.5zM305 598q1 2 1 3q-1 1 -1 2q0 177 125.5 301.5t304.5 124.5q84 0 160 -29.5t129 -85.5q32 -29 32 -69q0 -32 -26 -58t-58 -26q-28 0 -78 36q-69 59 -160 59 q-105 0 -180.5 -73.5t-75.5 -178.5q-1 -1 -1 -2l1 -1q0 -102 73.5 -177t174.5 -75q98 0 168 61q45 33 77 33q33 0 59 -25.5t26 -58.5q0 -39 -32 -68q-54 -54 -130 -84t-159 -30q-179 0 -304.5 122t-125.5 299z" />
<glyph unicode="&#xaa;" horiz-adv-x="897" d="M44 922q0 164 116.5 281t280.5 117q163 0 273.5 -115.5t111.5 -281.5v-1v-296q0 -44 -30.5 -75t-74.5 -31q-34 0 -58.5 18.5t-34.5 48.5q-86 -63 -187 -63q-164 0 -280.5 117t-116.5 281zM245 922q0 -82 57 -140t139 -58t140.5 58t58.5 140t-58.5 140.5t-140.5 58.5 t-139 -58t-57 -141z" />
<glyph unicode="&#xab;" horiz-adv-x="1287" d="M37 483q0 43 31 74l8 7l375 370q31 31 72 31q42 0 73.5 -31t31.5 -73q0 -40 -31 -71l-313 -308l311 -309q31 -31 31 -72q0 -42 -31 -72.5t-73 -30.5q-41 0 -72 31l-382 382q-31 29 -31 72zM621 488q0 42 31 71l2 2l380 374q31 31 73 31q41 0 72 -31t31 -72t-30 -71 l-313 -307l312 -310q31 -28 31 -74q0 -41 -31 -71t-73 -30t-73 31l-379 379q-2 0 -2 2q-1 0 -1 1l-3 3q-24 24 -26 62q0 1 -0.5 4.5t-0.5 5.5z" />
<glyph unicode="&#xac;" horiz-adv-x="1031" d="M44 630q0 44 30 73.5t73 29.5h696q42 -2 71 -31.5t29 -71.5v-235q0 -43 -30 -73.5t-72 -30.5q-43 0 -73.5 30.5t-30.5 73.5v132h-590q-43 0 -73 30.5t-30 72.5z" />
<glyph unicode="&#xad;" horiz-adv-x="931" d="M86 606q0 30 20 50t50 20h629q30 0 51 -20t21 -49q0 -30 -21 -51.5t-51 -21.5h-629q-30 0 -50 21t-20 51z" />
<glyph unicode="&#xae;" horiz-adv-x="1462" d="M49 612q0 187 91 345t248.5 250t344.5 92t345.5 -92t251 -250t92.5 -345q0 -186 -92.5 -344t-251 -250t-345.5 -92q-140 0 -267 54.5t-218 146.5t-145 219t-54 266zM186 612q0 -151 73 -277.5t199 -199t276 -72.5q113 0 215 43t175.5 116t116.5 175t43 215q0 150 -73 276 t-200 199.5t-277 73.5t-276 -73.5t-199 -199.5t-73 -276zM493 302v283q4 156 116 266.5t268 110.5h4q33 0 52 -19.5t19 -49.5t-20.5 -49.5t-50.5 -19.5h-4q-101 0 -173 -72t-73 -174v-276q0 -29 -19.5 -49t-47.5 -20q-29 0 -50 20t-21 49z" />
<glyph unicode="&#xaf;" horiz-adv-x="860" d="M173 1210q0 37 25 61.5t63 24.5h404q37 0 63 -25.5t26 -60.5q0 -37 -26 -64t-63 -27h-404q-37 0 -62.5 26.5t-25.5 64.5z" />
<glyph unicode="&#xb0;" horiz-adv-x="766" d="M82 913q0 135 96.5 231t230.5 96q136 0 231.5 -95.5t95.5 -231.5q0 -135 -95.5 -232.5t-231.5 -97.5q-133 0 -230 98t-97 232zM251 912q0 -65 46.5 -111t112.5 -46t111.5 46t45.5 111q0 66 -45.5 112.5t-111.5 46.5t-112.5 -46.5t-46.5 -112.5z" />
<glyph unicode="&#xb1;" horiz-adv-x="841" d="M22 796q0 43 29.5 73.5t72.5 30.5h193v194q0 42 31 72t73 30q43 0 72.5 -29.5t29.5 -72.5v-194h195q42 0 72 -31t30 -74q0 -42 -30 -71.5t-72 -29.5h-195v-194q0 -42 -30 -72.5t-72 -30.5q-43 0 -73.5 30.5t-30.5 72.5v194h-193q-43 0 -72.5 30t-29.5 72zM33 97 q0 43 30.5 73.5t73.5 30.5h577q43 0 73 -31t30 -73t-30 -72t-73 -30h-577q-43 0 -73.5 30t-30.5 72z" />
<glyph unicode="&#xb2;" horiz-adv-x="706" d="M46 624q0 37 26 63l331 310q21 25 21 51q0 35 -21.5 58t-57.5 23q-31 0 -53.5 -16t-28.5 -41q-2 -41 -31 -69t-71 -28q-41 0 -70 29t-29 71q0 25 10 45q0 2 1 3q21 75 91.5 127.5t177.5 52.5q120 0 202.5 -73t82.5 -180q0 -87 -40 -132l-1 -2l-7 -9l-199 -204h158 q42 0 70 -28t28 -70q0 -41 -27.5 -67.5t-70.5 -26.5h-390q-35 0 -60 20t-34 50v1q-8 21 -8 42z" />
<glyph unicode="&#xb3;" horiz-adv-x="619" d="M20 1224q0 38 25.5 62t56.5 24h379q6 0 16 -2q6 -2 11 -4q23 -9 38 -30.5t15 -47.5q0 -28 -16 -47q-3 -11 -9 -17l-130 -136q75 -28 120 -89t45 -145q0 -116 -81.5 -197.5t-197.5 -81.5q-76 0 -143.5 44.5t-103.5 112.5q-7 14 -7 30q0 28 21 49.5t49 21.5q38 0 56 -33 l5 -10q38 -63 133 -63q49 0 82.5 34t33.5 84q0 46 -33.5 76t-83.5 30h-58v1q-40 0 -63 23q-21 18 -21 45t19 48l135 139h-211q-32 0 -57 21t-25 58z" />
<glyph unicode="&#xb4;" horiz-adv-x="509" d="M66 1584q0 43 30 73l136 137q31 31 74 31q42 0 73 -30t31 -72q0 -41 -31 -72l-138 -140q-30 -30 -73 -30q-41 0 -71.5 31t-30.5 72z" />
<glyph unicode="&#xb5;" horiz-adv-x="1186" d="M133 -243v1105q0 42 31 72.5t73 30.5t71 -30.5t29 -72.5v-431q0 -114 85 -197t199 -83q115 0 194 82t79 198v431q0 42 29.5 72.5t71.5 30.5t72.5 -30.5t30.5 -72.5v-432q-2 -203 -139.5 -344t-337.5 -141q-156 0 -284 91v-279q0 -44 -28 -73.5t-71 -29.5t-74 30t-31 73z " />
<glyph unicode="&#xb6;" horiz-adv-x="1472" d="M44 859q0 186 131.5 319t316.5 133h861q43 0 73 -28t30 -70q0 -44 -30 -74.5t-73 -30.5h-88v-1005q0 -43 -31 -73t-75 -30q-42 0 -70 33t-28 78v997h-293v-999q0 -44 -28 -76.5t-70 -32.5q-44 0 -75 30t-31 73v310h-72q-185 0 -316.5 130.5t-131.5 315.5zM243 859 q0 -101 68.5 -169.5t169.5 -68.5h83v480h-83q-100 0 -169 -70.5t-69 -171.5z" />
<glyph unicode="&#xb7;" horiz-adv-x="357" d="M53 498q0 50 35 85t84 35q52 0 87.5 -35t35.5 -85q0 -51 -35.5 -86.5t-87.5 -35.5q-49 0 -84 36t-35 86z" />
<glyph unicode="&#xb8;" horiz-adv-x="481" d="M67 -306q0 29 19 48t47 19q26 0 44.5 -19t19.5 -46q0 -38 27.5 -65t64.5 -27q38 0 64.5 27t26.5 65q0 41 -29 66.5t-80 25.5q-72 0 -72 53v197q0 22 20.5 38t44.5 16t45 -16t21 -38v-126q77 -12 127.5 -73.5t50.5 -144.5q0 -91 -64.5 -155t-156.5 -64q-91 0 -155.5 64 t-64.5 155z" />
<glyph unicode="&#xb9;" horiz-adv-x="540" d="M10 1075q0 61 50 90l227 131q24 13 51 15h8q42 -2 71.5 -32t29.5 -72v-567q0 -43 -30.5 -73t-74.5 -30q-43 0 -73.5 30t-30.5 73v384l-70 -40q-25 -14 -52 -14q-43 0 -74.5 31t-31.5 74z" />
<glyph unicode="&#xba;" horiz-adv-x="897" d="M51 922q0 164 116 280t280 116t280.5 -116t116.5 -280t-116.5 -281t-280.5 -117t-280 117t-116 281zM249 922q0 -83 57.5 -141t140.5 -58q81 0 138.5 58t57.5 141q0 81 -57.5 138t-138.5 57q-83 0 -140.5 -57t-57.5 -138z" />
<glyph unicode="&#xbb;" horiz-adv-x="1287" d="M35 863q0 -40 31 -71l312 -307l-311 -310q-31 -31 -31 -73q0 -41 31 -71.5t72 -30.5q42 0 73 31l382 381q31 31 31 70l-1 11q-2 38 -30 66l-383 376q-31 31 -73 31q-41 0 -72 -31t-31 -72zM618 862q0 -40 30 -72l314 -308l-312 -309q-30 -30 -30 -72t30.5 -72.5 t72.5 -30.5t73 31l382 382q29 28 29 72q0 19 -6 37l-3 6q-9 20 -20 31l-10 7l-373 370q-31 31 -73 31t-73 -30.5t-31 -72.5z" />
<glyph unicode="&#xbf;" horiz-adv-x="940" d="M9 84q0 167 122.5 284t292.5 117h4v80q0 44 29 74.5t71 30.5q43 0 73.5 -30.5t30.5 -74.5v-180q0 -42 -31 -72.5t-73 -30.5h-108q-84 0 -145.5 -58t-61.5 -140q0 -86 58.5 -146.5t148.5 -60.5q83 0 144 58t63 144v5q0 43 28 73.5t70 30.5q43 0 73.5 -30t31.5 -73v-7 q-2 -168 -122 -286.5t-287 -118.5q-169 0 -290.5 120.5t-121.5 290.5zM419 895q0 44 32.5 77t77.5 33t77.5 -33t32.5 -77q0 -46 -32.5 -79t-77.5 -33t-77.5 33t-32.5 79z" />
<glyph unicode="&#xc0;" horiz-adv-x="1205" d="M23 96q0 26 10 47l480 1105q27 63 93 63q30 0 55 -16.5t37 -45.5l476 -1106q10 -25 10 -47q0 -41 -29.5 -68.5t-70.5 -27.5q-30 0 -55.5 16t-38.5 44l-128 305h-519l-126 -304q-11 -29 -36 -45t-56 -16q-42 0 -72 27t-30 69zM339 1662q0 42 30.5 71.5t72.5 29.5 q44 0 74 -30l136 -138q31 -31 31 -72t-30.5 -72.5t-71.5 -31.5q-42 0 -73 31l-138 139q-31 31 -31 73zM428 568h348l-175 417z" />
<glyph unicode="&#xc1;" horiz-adv-x="1205" d="M23 96q0 26 10 47l480 1105q27 63 93 63q30 0 55 -16.5t37 -45.5l476 -1106q10 -25 10 -47q0 -41 -29.5 -68.5t-70.5 -27.5q-30 0 -55.5 16t-38.5 44l-128 305h-519l-126 -304q-11 -29 -36 -45t-56 -16q-42 0 -72 27t-30 69zM428 568h348l-175 417zM543 1509q0 43 30 73 l137 137q31 31 73 31t73 -29.5t31 -71.5t-31 -73l-138 -139q-31 -31 -73 -31q-41 0 -71.5 31t-30.5 72z" />
<glyph unicode="&#xc2;" horiz-adv-x="1205" d="M23 96q0 26 10 47l480 1105q27 63 93 63q30 0 55 -16.5t37 -45.5l476 -1106q10 -25 10 -47q0 -41 -29.5 -68.5t-70.5 -27.5q-30 0 -55.5 16t-38.5 44l-128 305h-519l-126 -304q-11 -29 -36 -45t-56 -16q-42 0 -72 27t-30 69zM300 1485q0 30 26 56l217 219q22 22 47 25 q6 1 18 1q5 0 7 -1q24 -3 48 -25l217 -219q25 -25 25 -56q0 -34 -26 -59.5t-60 -25.5q-32 0 -56 24l-161 161l-160 -161q-24 -24 -56 -24q-34 0 -60 25.5t-26 59.5zM428 568h348l-175 417z" />
<glyph unicode="&#xc3;" horiz-adv-x="1205" d="M23 96q0 26 10 47l480 1105q27 63 93 63q30 0 55 -16.5t37 -45.5l476 -1106q10 -25 10 -47q0 -41 -29.5 -68.5t-70.5 -27.5q-30 0 -55.5 16t-38.5 44l-128 305h-519l-126 -304q-11 -29 -36 -45t-56 -16q-42 0 -72 27t-30 69zM221 1502q0 33 24 57q26 40 85.5 84.5 t134.5 44.5t152 -60q69 -51 102 -51q49 0 98 63q26 37 68 37q33 0 57.5 -24t24.5 -57q0 -31 -23 -56q-23 -39 -83.5 -84t-136.5 -45q-70 0 -155 64q-59 47 -97 47q-49 0 -96 -60q-26 -42 -72 -42q-34 0 -58.5 24t-24.5 58zM428 568h348l-175 417z" />
<glyph unicode="&#xc4;" horiz-adv-x="1205" d="M23 96q0 26 10 47l480 1105q27 63 93 63q30 0 55 -16.5t37 -45.5l476 -1106q10 -25 10 -47q0 -41 -29.5 -68.5t-70.5 -27.5q-30 0 -55.5 16t-38.5 44l-128 305h-519l-126 -304q-11 -29 -36 -45t-56 -16q-42 0 -72 27t-30 69zM295 1530q0 47 33.5 81t80.5 34q46 0 80 -34 t34 -81t-33.5 -80.5t-80.5 -33.5t-80.5 33.5t-33.5 80.5zM428 568h348l-175 417zM673 1530q0 47 33.5 81t79.5 34q48 0 81.5 -34t33.5 -81q0 -48 -33.5 -81t-81.5 -33q-46 0 -79.5 33.5t-33.5 80.5z" />
<glyph unicode="&#xc5;" horiz-adv-x="1205" d="M23 96q0 26 10 47l480 1105q27 63 93 63q30 0 55 -16.5t37 -45.5l476 -1106q10 -25 10 -47q0 -41 -29.5 -68.5t-70.5 -27.5q-30 0 -55.5 16t-38.5 44l-128 305h-519l-126 -304q-11 -29 -36 -45t-56 -16q-42 0 -72 27t-30 69zM384 1583q0 92 64 155.5t155 63.5 q92 0 156 -63.5t64 -155.5q0 -91 -64 -156t-156 -65q-90 0 -154.5 65.5t-64.5 155.5zM428 568h348l-175 417zM525 1583q0 -32 23 -55.5t56 -23.5t56 23.5t23 55.5q0 33 -23 56.5t-56 23.5t-56 -23.5t-23 -56.5z" />
<glyph unicode="&#xc6;" horiz-adv-x="1637" d="M22 100q0 36 23 65l851 1099q28 43 78 46q1 0 2.5 0.5t2.5 0.5h512q43 0 74 -31t31 -75q0 -43 -31 -74t-74 -31h-402v-369h259q43 1 73 -29.5t30 -73.5q0 -44 -30 -75t-73 -31l-259 -2v-311l400 -1q43 0 73.5 -31t30.5 -74t-29.5 -73t-70.5 -30h-4h-510q-42 2 -71 31.5 t-29 71.5v155h-498l-171 -220q-33 -41 -84 -41q-42 0 -73 30.5t-31 72.5zM544 467h335v431z" />
<glyph unicode="&#xc7;" horiz-adv-x="1255" d="M44 652q0 130 50.5 252t137 213.5t211.5 147t266 55.5q130 0 253 -50.5t219 -147.5q29 -28 29 -70t-30 -71.5t-72 -29.5q-41 0 -71 28q-135 135 -329 135q-124 0 -229.5 -61t-167.5 -167t-62 -232q0 -123 59 -228.5t164.5 -169.5t232.5 -65q192 0 330 135q29 27 72 27 q42 0 71.5 -28t29.5 -70t-28 -72q-167 -167 -402 -191v-92q77 -12 127.5 -73.5t50.5 -144.5q0 -91 -65 -155.5t-156 -64.5t-155.5 64.5t-64.5 155.5q0 28 19.5 47.5t47.5 19.5q26 0 44 -18.5t19 -46.5q0 -38 27.5 -65.5t64.5 -27.5q38 0 64.5 27.5t26.5 65.5 q0 41 -28.5 66.5t-79.5 25.5q-73 0 -73 53v161q-125 11 -236.5 67.5t-192 144t-127.5 205t-47 245.5z" />
<glyph unicode="&#xc8;" horiz-adv-x="933" d="M133 101v1107q0 43 30 73t73 30h546q42 0 71.5 -30t29.5 -73q0 -42 -29.5 -71.5t-71.5 -29.5h-445v-354h321h5q40 0 68.5 -30t28.5 -71q0 -42 -30 -70t-72 -28h-321v-351h445q42 0 71.5 -30.5t29.5 -72.5q0 -41 -28.5 -70.5t-68.5 -29.5h-4h-555q-41 3 -67.5 31.5 t-26.5 69.5zM231 1666q0 42 31 71.5t73 29.5q44 0 74 -30l136 -138q30 -30 30 -72q0 -41 -30.5 -72.5t-71.5 -31.5q-42 0 -73 31l-138 139q-31 31 -31 73z" />
<glyph unicode="&#xc9;" horiz-adv-x="933" d="M133 101v1107q0 43 30 73t73 30h546q42 0 71.5 -30t29.5 -73q0 -42 -29.5 -71.5t-71.5 -29.5h-445v-354h321h5q40 0 68.5 -30t28.5 -71q0 -42 -30 -70t-72 -28h-321v-351h445q42 0 71.5 -30.5t29.5 -72.5q0 -41 -28.5 -70.5t-68.5 -29.5h-4h-555q-41 3 -67.5 31.5 t-26.5 69.5zM383 1501q0 42 31 73l136 137q31 31 74 31q42 0 72.5 -30t30.5 -72q0 -41 -31 -72l-138 -140q-30 -30 -73 -30q-41 0 -71.5 31t-30.5 72z" />
<glyph unicode="&#xca;" horiz-adv-x="933" d="M133 101v1107q0 43 30 73t73 30h546q42 0 71.5 -30t29.5 -73q0 -42 -29.5 -71.5t-71.5 -29.5h-445v-354h321h5q40 0 68.5 -30t28.5 -71q0 -42 -30 -70t-72 -28h-321v-351h445q42 0 71.5 -30.5t29.5 -72.5q0 -41 -28.5 -70.5t-68.5 -29.5h-4h-555q-41 3 -67.5 31.5 t-26.5 69.5zM156 1504q0 32 25 57l217 219q21 21 47 24q6 1 19 1q5 0 7 -1q24 -3 47 -24l217 -219q26 -26 26 -57q0 -34 -26 -59.5t-60 -25.5q-32 0 -57 25l-160 161l-160 -161q-25 -25 -56 -25q-34 0 -60 25.5t-26 59.5z" />
<glyph unicode="&#xcb;" horiz-adv-x="933" d="M133 101v1107q0 43 30 73t73 30h546q42 0 71.5 -30t29.5 -73q0 -42 -29.5 -71.5t-71.5 -29.5h-445v-354h321h5q40 0 68.5 -30t28.5 -71q0 -42 -30 -70t-72 -28h-321v-351h445q42 0 71.5 -30.5t29.5 -72.5q0 -41 -28.5 -70.5t-68.5 -29.5h-4h-555q-41 3 -67.5 31.5 t-26.5 69.5zM191 1540q0 47 33.5 81t80.5 34t81 -34.5t34 -80.5q0 -47 -34 -80.5t-81 -33.5t-80.5 33.5t-33.5 80.5zM569 1540q0 46 34 80.5t80 34.5q48 0 81.5 -34t33.5 -81q0 -48 -33 -81t-82 -33q-46 0 -80 33.5t-34 80.5z" />
<glyph unicode="&#xcc;" horiz-adv-x="470" d="M-17 1658q0 42 30.5 71.5t72.5 29.5q44 0 74 -30l136 -138q31 -31 31 -72t-31 -72.5t-72 -31.5t-72 31l-139 139q-30 30 -30 73zM133 100v1110q0 42 29.5 71.5t71.5 29.5t72.5 -29.5t30.5 -71.5v-1110q0 -42 -30.5 -71t-72.5 -29t-71.5 29t-29.5 71z" />
<glyph unicode="&#xcd;" horiz-adv-x="470" d="M133 100v1110q0 42 29.5 71.5t71.5 29.5t72.5 -29.5t30.5 -71.5v-1110q0 -42 -30.5 -71t-72.5 -29t-71.5 29t-29.5 71zM147 1524q0 41 31 72l136 138q30 30 74 30q42 0 73 -29.5t31 -71.5t-31 -73l-138 -139q-31 -31 -73 -31q-41 0 -72 31.5t-31 72.5z" />
<glyph unicode="&#xce;" horiz-adv-x="470" d="M-65 1494q0 30 26 56l217 219q22 22 47 25q6 1 19 1q5 0 7 -1q23 -3 47 -25l217 -219q26 -26 26 -56q0 -34 -26 -59.5t-60 -25.5q-32 0 -57 25l-160 160l-160 -160q-25 -25 -56 -25q-34 0 -60.5 25.5t-26.5 59.5zM133 100v1110q0 42 29.5 71.5t71.5 29.5t72.5 -29.5 t30.5 -71.5v-1110q0 -42 -30.5 -71t-72.5 -29t-71.5 29t-29.5 71z" />
<glyph unicode="&#xcf;" horiz-adv-x="470" d="M-65 1536q0 47 33.5 81t80.5 34t81 -34.5t34 -80.5q0 -47 -34 -80.5t-81 -33.5t-80.5 33.5t-33.5 80.5zM133 100v1110q0 42 29.5 71.5t71.5 29.5t72.5 -29.5t30.5 -71.5v-1110q0 -42 -30.5 -71t-72.5 -29t-71.5 29t-29.5 71zM313 1536q0 46 34 80.5t80 34.5 q48 0 81.5 -34t33.5 -81q0 -48 -33 -81t-82 -33q-46 0 -80 33.5t-34 80.5z" />
<glyph unicode="&#xd0;" horiz-adv-x="1259" d="M-37 657q0 -37 24.5 -63t60.5 -26h85v-468q0 -42 29.5 -71t71.5 -29h229q136 0 258.5 51t211.5 137.5t141.5 208t52.5 256.5q0 136 -52.5 258t-142 209.5t-213 139t-259.5 51.5h-226q-42 0 -71.5 -29.5t-29.5 -71.5v-468h-85q-36 0 -60.5 -24.5t-24.5 -60.5zM337 205v363 h126q37 0 62 26t25 63q0 35 -25.5 60t-61.5 25h-126v363h129q191 -2 324 -132.5t133 -319.5q0 -192 -134 -320t-328 -128h-124z" />
<glyph unicode="&#xd1;" horiz-adv-x="1232" d="M133 100v1107q0 42 29.5 71.5t71.5 29.5h2q6 0 9 -1q5 0 7 -1l14 -3q17 -6 30 -16l11 -9q12 -11 19 -25l608 -850v807q0 42 30.5 71.5t72.5 29.5q43 0 72 -29.5t29 -71.5v-1110q0 -34 -20.5 -60.5t-51.5 -35.5q-8 -2 -18 -4h-12q-34 0 -63 22q-16 11 -19 17l-617 864 v-803q0 -42 -30.5 -71t-72.5 -29t-71.5 29t-29.5 71zM306 1499q0 32 24 56q26 40 85.5 84.5t134.5 44.5q76 0 152 -59q69 -51 102 -51q49 0 98 63q26 37 68 37q33 0 57.5 -24t24.5 -57q0 -31 -23 -56q-23 -39 -83.5 -84t-136.5 -45q-72 0 -155 63q-60 48 -97 48 q-49 0 -96 -60q-26 -42 -72 -42q-34 0 -58.5 24t-24.5 58z" />
<glyph unicode="&#xd2;" horiz-adv-x="1419" d="M44 653q0 136 52 259t140.5 212.5t212 142.5t259.5 53q181 0 335 -89.5t243 -243t89 -334.5q0 -136 -52.5 -259t-142 -212t-213 -141.5t-259.5 -52.5t-259.5 52.5t-212 141.5t-140.5 212t-52 259zM249 653q0 -127 61 -233t166.5 -167.5t232.5 -61.5q193 0 327 134.5 t134 327.5q0 192 -134.5 326.5t-326.5 134.5t-326 -134.5t-134 -326.5zM442 1659q0 42 31 71.5t73 29.5q44 0 74 -30l136 -138q30 -30 30 -72q0 -41 -30.5 -72.5t-71.5 -31.5q-42 0 -73 31l-138 139q-31 31 -31 73z" />
<glyph unicode="&#xd3;" horiz-adv-x="1419" d="M44 653q0 136 52 259t140.5 212.5t212 142.5t259.5 53q181 0 335 -89.5t243 -243t89 -334.5q0 -136 -52.5 -259t-142 -212t-213 -141.5t-259.5 -52.5t-259.5 52.5t-212 141.5t-140.5 212t-52 259zM249 653q0 -127 61 -233t166.5 -167.5t232.5 -61.5q193 0 327 134.5 t134 327.5q0 192 -134.5 326.5t-326.5 134.5t-326 -134.5t-134 -326.5zM680 1531q0 42 31 73l136 137q31 31 74 31q42 0 72.5 -30t30.5 -72t-31 -73l-138 -139q-31 -31 -73 -31q-41 0 -71.5 31.5t-30.5 72.5z" />
<glyph unicode="&#xd4;" horiz-adv-x="1419" d="M44 653q0 136 52 259t140.5 212.5t212 142.5t259.5 53q181 0 335 -89.5t243 -243t89 -334.5q0 -136 -52.5 -259t-142 -212t-213 -141.5t-259.5 -52.5t-259.5 52.5t-212 141.5t-140.5 212t-52 259zM249 653q0 -127 61 -233t166.5 -167.5t232.5 -61.5q193 0 327 134.5 t134 327.5q0 192 -134.5 326.5t-326.5 134.5t-326 -134.5t-134 -326.5zM407 1503q0 32 25 57l217 219q21 21 47 24q6 1 19 1q5 0 7 -1q24 -3 47 -24l217 -219q26 -26 26 -57q0 -34 -26 -59.5t-60 -25.5q-32 0 -57 25l-160 161l-160 -161q-25 -25 -56 -25q-34 0 -60 25.5 t-26 59.5z" />
<glyph unicode="&#xd5;" horiz-adv-x="1419" d="M44 653q0 136 52 259t140.5 212.5t212 142.5t259.5 53q181 0 335 -89.5t243 -243t89 -334.5q0 -136 -52.5 -259t-142 -212t-213 -141.5t-259.5 -52.5t-259.5 52.5t-212 141.5t-140.5 212t-52 259zM249 653q0 -127 61 -233t166.5 -167.5t232.5 -61.5q193 0 327 134.5 t134 327.5q0 192 -134.5 326.5t-326.5 134.5t-326 -134.5t-134 -326.5zM367 1550q0 34 23 57q26 40 85.5 84.5t134.5 44.5q76 0 153 -60q69 -51 101 -51q49 0 99 64q26 36 67 36q33 0 57.5 -23.5t24.5 -56.5q0 -34 -22 -57q-23 -39 -84 -84t-137 -45q-69 0 -154 64 q-59 47 -98 47q-49 0 -96 -60q-26 -42 -71 -42q-34 0 -58.5 24t-24.5 58z" />
<glyph unicode="&#xd6;" horiz-adv-x="1419" d="M44 653q0 136 52 259t140.5 212.5t212 142.5t259.5 53q181 0 335 -89.5t243 -243t89 -334.5q0 -136 -52.5 -259t-142 -212t-213 -141.5t-259.5 -52.5t-259.5 52.5t-212 141.5t-140.5 212t-52 259zM249 653q0 -127 61 -233t166.5 -167.5t232.5 -61.5q193 0 327 134.5 t134 327.5q0 192 -134.5 326.5t-326.5 134.5t-326 -134.5t-134 -326.5zM394 1536q0 47 33.5 81t80.5 34q46 0 80.5 -34.5t34.5 -80.5q0 -47 -34 -80.5t-81 -33.5t-80.5 33.5t-33.5 80.5zM772 1536q0 46 34 80.5t80 34.5q48 0 81 -34t33 -81q0 -48 -33 -81t-81 -33 q-46 0 -80 33.5t-34 80.5z" />
<glyph unicode="&#xd7;" horiz-adv-x="1009" d="M81 833q0 38 28 66.5t66 28.5t66 -28l276 -278l275 276q29 29 68 29t66 -27.5t27 -66.5q0 -40 -25 -65l-279 -281l272 -272q27 -27 27 -68q0 -39 -27 -65q-28 -28 -66 -28t-67 27l-271 273l-270 -273q-28 -28 -69 -28q-38 0 -66 26.5t-28 64.5t27 68l274 276l-277 281 q-27 27 -27 64z" />
<glyph unicode="&#xd8;" horiz-adv-x="1419" d="M44 653q0 136 52.5 259t141.5 212.5t212.5 142.5t259.5 53q206 0 375 -118l62 66q30 37 79 37q42 0 73 -30t31 -72q0 -37 -24 -67l-71 -75q139 -181 139 -408q0 -181 -88.5 -334t-241.5 -242t-334 -89q-208 0 -373 113l-61 -64q-30 -37 -78 -37q-42 0 -73 30.5t-31 72.5 q0 37 25 67l66 72q-141 179 -141 411zM254 653q0 -141 77 -256l608 649q-104 62 -229 62q-190 0 -323 -133t-133 -322zM482 257q104 -59 228 -59q125 0 229 60.5t164 165t60 229.5q0 138 -74 251z" />
<glyph unicode="&#xd9;" horiz-adv-x="1161" d="M93 467v740q0 43 30 73t72 30t72 -30t30 -73v-735q0 -117 82 -200t205 -83q122 0 198 82.5t76 200.5v738q0 43 29.5 72t71.5 29q43 0 73 -29t30 -72v-743q0 -201 -134 -339.5t-343 -138.5q-104 0 -195.5 38t-156.5 102t-102.5 152t-37.5 186zM396 1639q0 42 31 72t73 30 t73 -31l137 -137q30 -30 30 -73q0 -41 -30.5 -72t-71.5 -31q-43 0 -73 30l-138 140q-31 31 -31 72z" />
<glyph unicode="&#xda;" horiz-adv-x="1161" d="M93 467v740q0 43 30 73t72 30t72 -30t30 -73v-735q0 -117 82 -200t205 -83q122 0 198 82.5t76 200.5v738q0 43 29.5 72t71.5 29q43 0 73 -29t30 -72v-743q0 -201 -134 -339.5t-343 -138.5q-104 0 -195.5 38t-156.5 102t-102.5 152t-37.5 186zM482 1493q0 42 31 73 l136 137q31 31 74 31q42 0 72.5 -30t30.5 -72t-30 -72l-139 -140q-30 -30 -72 -30q-41 0 -72 31t-31 72z" />
<glyph unicode="&#xdb;" horiz-adv-x="1161" d="M93 467v740q0 43 30 73t72 30t72 -30t30 -73v-735q0 -117 82 -200t205 -83q122 0 198 82.5t76 200.5v738q0 43 29.5 72t71.5 29q43 0 73 -29t30 -72v-743q0 -201 -134 -339.5t-343 -138.5q-104 0 -195.5 38t-156.5 102t-102.5 152t-37.5 186zM268 1458q0 30 26 56 l217 220q21 21 47 24q6 1 19 1q5 0 7 -1q24 -3 47 -24l217 -220q25 -25 25 -56q0 -34 -26 -59.5t-60 -25.5q-31 0 -56 25l-161 161l-159 -161q-25 -25 -57 -25q-34 0 -60 25.5t-26 59.5z" />
<glyph unicode="&#xdc;" horiz-adv-x="1161" d="M93 467v740q0 43 30 73t72 30t72 -30t30 -73v-735q0 -117 82 -200t205 -83q122 0 198 82.5t76 200.5v738q0 43 29.5 72t71.5 29q43 0 73 -29t30 -72v-743q0 -201 -134 -339.5t-343 -138.5q-104 0 -195.5 38t-156.5 102t-102.5 152t-37.5 186zM289 1537q0 47 33 81t80 34 q46 0 80.5 -34t34.5 -81t-34 -80.5t-81 -33.5t-80 33.5t-33 80.5zM667 1537q0 47 33.5 81t79.5 34q48 0 81.5 -34t33.5 -81t-33.5 -80.5t-81.5 -33.5q-46 0 -79.5 33.5t-33.5 80.5z" />
<glyph unicode="&#xdd;" horiz-adv-x="1100" d="M22 1203q0 43 30.5 74t73.5 31q49 0 75 -36l347 -527l345 529q29 35 75 35q41 0 72 -31t31 -71q0 -35 -25 -69l-396 -593v-445q0 -42 -30 -71t-72 -29t-72 29t-30 71v444l-400 593q-24 29 -24 66zM545 1501q0 43 30 73l137 137q31 31 73 31t73 -30t31 -72q0 -41 -31 -72 l-138 -140q-30 -30 -73 -30q-41 0 -71.5 31t-30.5 72z" />
<glyph unicode="&#xde;" horiz-adv-x="1088" d="M133 100v1110q0 42 29.5 71.5t71.5 29.5t72.5 -29.5t30.5 -71.5v-88h220q133 0 244.5 -59.5t177 -167t65.5 -238.5q0 -199 -141.5 -330.5t-346.5 -131.5h-219v-95q0 -42 -30.5 -71t-72.5 -29t-71.5 29t-29.5 71zM337 398h222q119 0 200 75.5t81 183.5t-82 185t-198 77 h-223v-521z" />
<glyph unicode="&#xdf;" horiz-adv-x="1010" d="M133 -171v1085q-1 177 109 289.5t283 112.5q150 0 258 -100.5t108 -247.5q0 -84 -31 -154t-88 -115q89 -45 142 -130t53 -190q0 -68 -26 -134t-72.5 -120t-119 -88t-158.5 -37h-4q-41 0 -71 29.5t-30 70.5t30 71t71 30h5q72 0 124 56.5t52 132.5q0 80 -53.5 127 t-126.5 47h-26q-46 0 -78.5 33t-32.5 79t32.5 79t78.5 33h4q61 2 96 54t36 120q0 66 -50 111.5t-123 45.5q-76 0 -128.5 -49.5t-53.5 -151.5v-1089q0 -43 -31 -73.5t-74 -30.5t-74 30.5t-31 73.5z" />
<glyph unicode="&#xe0;" horiz-adv-x="1121" d="M44 476q0 99 39 189.5t104.5 156t155.5 104.5t189 39q131 0 243 -65t178 -177t67 -243v-376q0 -43 -31 -73.5t-74 -30.5q-40 0 -67.5 26.5t-31.5 66.5q-129 -105 -284 -105q-132 0 -244.5 65.5t-178 178t-65.5 244.5zM249 476q0 -117 82.5 -200t200.5 -83q119 0 201.5 83 t82.5 200q0 119 -82.5 201t-201.5 82q-118 0 -200.5 -82.5t-82.5 -200.5zM292 1341q0 42 30.5 72t72.5 30q43 0 74 -31l136 -137q31 -31 31 -73q0 -41 -30.5 -72t-71.5 -31q-43 0 -73 30l-138 140q-31 31 -31 72z" />
<glyph unicode="&#xe1;" horiz-adv-x="1121" d="M44 476q0 99 39 189.5t104.5 156t155.5 104.5t189 39q131 0 243 -65t178 -177t67 -243v-376q0 -43 -31 -73.5t-74 -30.5q-40 0 -67.5 26.5t-31.5 66.5q-129 -105 -284 -105q-132 0 -244.5 65.5t-178 178t-65.5 244.5zM249 476q0 -117 82.5 -200t200.5 -83q119 0 201.5 83 t82.5 200q0 119 -82.5 201t-201.5 82q-118 0 -200.5 -82.5t-82.5 -200.5zM498 1201q0 43 30 73l137 137q31 31 73 31t73 -30t31 -72q0 -41 -31 -72l-138 -140q-30 -30 -73 -30q-41 0 -71.5 31t-30.5 72z" />
<glyph unicode="&#xe2;" horiz-adv-x="1121" d="M44 476q0 99 39 189.5t104.5 156t155.5 104.5t189 39q131 0 243 -65t178 -177t67 -243v-376q0 -43 -31 -73.5t-74 -30.5q-40 0 -67.5 26.5t-31.5 66.5q-129 -105 -284 -105q-132 0 -244.5 65.5t-178 178t-65.5 244.5zM230 1175q0 30 26 56l217 219q22 22 47 25q6 1 19 1 q5 0 7 -1q23 -3 47 -25l217 -219q26 -26 26 -56q0 -34 -26 -59.5t-60 -25.5q-33 0 -57 24l-161 161l-159 -161q-24 -24 -57 -24q-34 0 -60 25.5t-26 59.5zM249 476q0 -117 82.5 -200t200.5 -83q119 0 201.5 83t82.5 200q0 119 -82.5 201t-201.5 82q-118 0 -200.5 -82.5 t-82.5 -200.5z" />
<glyph unicode="&#xe3;" horiz-adv-x="1121" d="M44 476q0 99 39 189.5t104.5 156t155.5 104.5t189 39q131 0 243 -65t178 -177t67 -243v-376q0 -43 -31 -73.5t-74 -30.5q-40 0 -67.5 26.5t-31.5 66.5q-129 -105 -284 -105q-132 0 -244.5 65.5t-178 178t-65.5 244.5zM178 1185q0 32 24 56q26 40 85.5 84.5t134.5 44.5 q76 0 152 -59q69 -51 102 -51q49 0 98 63q26 37 68 37q33 0 57.5 -24t24.5 -57q0 -31 -23 -56q-23 -39 -83.5 -84t-136.5 -45q-72 0 -155 63q-59 47 -97 47q-50 0 -96 -59q-26 -42 -72 -42q-34 0 -58.5 24t-24.5 58zM249 476q0 -117 82.5 -200t200.5 -83q119 0 201.5 83 t82.5 200q0 119 -82.5 201t-201.5 82q-118 0 -200.5 -82.5t-82.5 -200.5z" />
<glyph unicode="&#xe4;" horiz-adv-x="1121" d="M44 476q0 99 39 189.5t104.5 156t155.5 104.5t189 39q131 0 243 -65t178 -177t67 -243v-376q0 -43 -31 -73.5t-74 -30.5q-40 0 -67.5 26.5t-31.5 66.5q-129 -105 -284 -105q-132 0 -244.5 65.5t-178 178t-65.5 244.5zM231 1215q0 47 33.5 81t80.5 34t81 -34t34 -81 t-34 -80t-81 -33t-80.5 33t-33.5 80zM249 476q0 -117 82.5 -200t200.5 -83q119 0 201.5 83t82.5 200q0 119 -82.5 201t-201.5 82q-118 0 -200.5 -82.5t-82.5 -200.5zM609 1215q0 46 34 80.5t80 34.5q48 0 81.5 -34t33.5 -81t-33 -80t-82 -33q-46 0 -80 33t-34 80z" />
<glyph unicode="&#xe5;" horiz-adv-x="1121" d="M44 476q0 99 39 189.5t104.5 156t155.5 104.5t189 39q131 0 243 -65t178 -177t67 -243v-376q0 -43 -31 -73.5t-74 -30.5q-40 0 -67.5 26.5t-31.5 66.5q-129 -105 -284 -105q-132 0 -244.5 65.5t-178 178t-65.5 244.5zM249 476q0 -117 82.5 -200t200.5 -83q119 0 201.5 83 t82.5 200q0 119 -82.5 201t-201.5 82q-118 0 -200.5 -82.5t-82.5 -200.5zM316 1257q0 92 64.5 156t155.5 64q92 0 156 -64t64 -156q0 -91 -64 -156t-156 -65q-90 0 -155 65.5t-65 155.5zM458 1257q0 -32 23 -55t56 -23t55.5 23t22.5 55q0 33 -22.5 56.5t-55.5 23.5 t-56 -23.5t-23 -56.5z" />
<glyph unicode="&#xe6;" horiz-adv-x="1854" d="M44 476q0 99 39 189.5t104.5 156t155.5 104.5t189 39q114 0 214 -49.5t168 -136.5q70 93 174.5 147t224.5 54q133 0 247 -66t181.5 -179.5t68.5 -246.5q0 -43 -28 -70t-72 -27h-667q25 -91 99.5 -149t170.5 -58q119 0 188 76q35 26 69 26q19 0 34 -6q28 -9 46.5 -39 t18.5 -62q0 -46 -38 -78q-120 -114 -318 -114q-163 0 -295 97q-7 -36 -36 -60t-67 -24q-40 0 -67.5 26.5t-31.5 66.5q-129 -105 -284 -105q-132 0 -244.5 65.5t-178 178t-65.5 244.5zM249 476q0 -117 82.5 -200t200.5 -83q119 0 201.5 83t82.5 200q0 119 -82.5 201 t-201.5 82q-118 0 -200.5 -82.5t-82.5 -200.5zM1037 561h564q-22 97 -101 159.5t-183 62.5t-181.5 -63t-98.5 -159z" />
<glyph unicode="&#xe7;" horiz-adv-x="952" d="M44 472q1 2 1 3l-1 1q0 134 66.5 247t180 178.5t247.5 65.5q96 0 183 -34t149 -97q37 -37 37 -84q0 -40 -30 -71t-70 -31q-36 0 -93 44q-79 66 -189 66q-111 0 -191.5 -85.5t-80.5 -196.5v147q0 -135 -1 -149l1 -1q0 -115 81 -197t196 -82q105 0 184 65q55 42 92 42 q40 0 70.5 -29.5t30.5 -69.5q0 -47 -37 -84q-100 -101 -252 -125v-85q78 -12 128.5 -73.5t50.5 -144.5q0 -91 -65 -155t-157 -64q-91 0 -155.5 64t-64.5 155q0 28 19.5 47.5t47.5 19.5q26 0 44 -18.5t19 -46.5q0 -37 27.5 -64.5t65.5 -27.5t64.5 27t26.5 65q0 41 -29 66.5 t-80 25.5q-73 0 -73 53v152q-188 19 -315.5 155t-127.5 326z" />
<glyph unicode="&#xe8;" horiz-adv-x="1069" d="M44 476q0 133 66 245.5t179.5 178t245.5 65.5q131 0 243.5 -65t179 -176.5t67.5 -242.5q0 -43 -28 -70t-72 -27h-655q25 -88 98 -144t167 -56q115 0 183 73q35 26 67 26q54 0 83 -50q18 -26 18 -56q0 -45 -39 -78q-116 -110 -312 -110q-132 0 -245.5 65t-179.5 177 t-66 245zM264 554h551q-22 95 -98.5 155.5t-178.5 60.5q-101 0 -177 -61.5t-97 -154.5zM289 1345q0 42 30.5 71.5t72.5 29.5q43 0 74 -31l136 -137q31 -31 31 -73q0 -41 -31 -72t-72 -31t-72 31l-139 139q-30 30 -30 73z" />
<glyph unicode="&#xe9;" horiz-adv-x="1069" d="M44 476q0 133 66 245.5t179.5 178t245.5 65.5q131 0 243.5 -65t179 -176.5t67.5 -242.5q0 -43 -28 -70t-72 -27h-655q25 -88 98 -144t167 -56q115 0 183 73q35 26 67 26q54 0 83 -50q18 -26 18 -56q0 -45 -39 -78q-116 -110 -312 -110q-132 0 -245.5 65t-179.5 177 t-66 245zM264 554h551q-22 95 -98.5 155.5t-178.5 60.5q-101 0 -177 -61.5t-97 -154.5zM501 1194q0 43 30 73l137 137q31 31 73 31t73 -30t31 -72q0 -41 -31 -72l-138 -140q-30 -30 -73 -30q-41 0 -71.5 31t-30.5 72z" />
<glyph unicode="&#xea;" horiz-adv-x="1069" d="M44 476q0 133 66 245.5t179.5 178t245.5 65.5q131 0 243.5 -65t179 -176.5t67.5 -242.5q0 -43 -28 -70t-72 -27h-655q25 -88 98 -144t167 -56q115 0 183 73q35 26 67 26q54 0 83 -50q18 -26 18 -56q0 -45 -39 -78q-116 -110 -312 -110q-132 0 -245.5 65t-179.5 177 t-66 245zM257 1177q0 30 26 56l217 219q22 22 47 25q6 1 18 1q5 0 7 -1q24 -3 48 -25l217 -219q25 -25 25 -56q0 -34 -26 -59.5t-60 -25.5q-32 0 -56 24l-161 161l-160 -161q-24 -24 -56 -24q-34 0 -60 25.5t-26 59.5zM264 554h551q-22 95 -98.5 155.5t-178.5 60.5 q-101 0 -177 -61.5t-97 -154.5z" />
<glyph unicode="&#xeb;" horiz-adv-x="1069" d="M44 476q0 133 66 245.5t179.5 178t245.5 65.5q131 0 243.5 -65t179 -176.5t67.5 -242.5q0 -43 -28 -70t-72 -27h-655q25 -88 98 -144t167 -56q115 0 183 73q35 26 67 26q54 0 83 -50q18 -26 18 -56q0 -45 -39 -78q-116 -110 -312 -110q-132 0 -245.5 65t-179.5 177 t-66 245zM254 1211q0 47 33.5 81t80.5 34q46 0 80 -34t34 -81t-33.5 -80t-80.5 -33t-80.5 33t-33.5 80zM264 554h551q-22 95 -98.5 155.5t-178.5 60.5q-101 0 -177 -61.5t-97 -154.5zM632 1211q0 47 33.5 81t79.5 34q48 0 81.5 -34t33.5 -81t-33 -80t-82 -33q-46 0 -79.5 33 t-33.5 80z" />
<glyph unicode="&#xec;" horiz-adv-x="409" d="M-69 1325q0 42 31 71.5t73 29.5q44 0 74 -30l136 -138q30 -30 30 -72q0 -41 -30.5 -72.5t-71.5 -31.5q-42 0 -73 31l-138 139q-31 31 -31 73zM102 102v760q0 42 31 72.5t74 30.5q42 0 71 -30.5t29 -72.5v-760q0 -43 -29.5 -72.5t-71.5 -29.5t-73 30t-31 72z" />
<glyph unicode="&#xed;" horiz-adv-x="409" d="M102 102v760q0 42 31 72.5t74 30.5q42 0 71 -30.5t29 -72.5v-760q0 -43 -29.5 -72.5t-71.5 -29.5t-73 30t-31 72zM110 1189q0 43 30 73l136 137q31 31 74 31q42 0 73 -30t31 -72t-31 -73l-138 -139q-31 -31 -73 -31q-41 0 -71.5 31.5t-30.5 72.5z" />
<glyph unicode="&#xee;" horiz-adv-x="409" d="M-98 1178q0 31 25 56l217 219q22 22 47 25q6 1 19 1q5 0 7 -1q23 -3 47 -25l217 -219q26 -26 26 -56q0 -34 -26 -59.5t-60 -25.5q-32 0 -56 24l-161 161l-160 -161q-24 -24 -56 -24q-34 0 -60 25.5t-26 59.5zM102 102v760q0 42 31 72.5t74 30.5q42 0 71 -30.5t29 -72.5 v-760q0 -43 -29.5 -72.5t-71.5 -29.5t-73 30t-31 72z" />
<glyph unicode="&#xef;" horiz-adv-x="409" d="M-98 1201q0 47 33 81t80 34t81 -34t34 -81t-34 -80.5t-81 -33.5t-80 33.5t-33 80.5zM102 102v760q0 42 31 72.5t74 30.5q42 0 71 -30.5t29 -72.5v-760q0 -43 -29.5 -72.5t-71.5 -29.5t-73 30t-31 72zM280 1201q0 47 33.5 81t79.5 34q48 0 81.5 -34t33.5 -81t-33 -80.5 t-82 -33.5q-46 0 -79.5 33.5t-33.5 80.5z" />
<glyph unicode="&#xf0;" d="M44 476q0 99 39 189.5t104.5 156t155.5 104.5t189 39q26 0 50 -3l-47 75l-66 -38q-18 -8 -33 -8q-28 0 -48.5 21.5t-20.5 49.5q0 40 39 60l56 32q-17 28 -17 56q0 41 30.5 70.5t71.5 29.5q62 0 92 -55l76 43q17 10 34 10q28 0 47.5 -20.5t19.5 -49.5q0 -41 -36 -60 l-71 -41l245 -416l4 -8q62 -111 62 -237q0 -132 -65.5 -244.5t-178 -178t-244.5 -65.5t-244.5 65.5t-178 178t-65.5 244.5zM249 476q0 -117 82.5 -200t200.5 -83q119 0 201.5 83t82.5 200q0 119 -82.5 201t-201.5 82q-118 0 -200.5 -82.5t-82.5 -200.5z" />
<glyph unicode="&#xf1;" horiz-adv-x="1059" d="M102 101v762q0 42 31 72.5t73 30.5t71 -30.5t29 -72.5v-14q121 116 261 116q177 0 288 -133.5t112 -339.5v-394q0 -42 -30 -71t-72 -29t-71.5 29t-29.5 71v394q-2 124 -60 197t-159 73q-103 0 -171 -75.5t-68 -189.5v-396q0 -42 -29.5 -71.5t-71.5 -29.5t-72.5 29.5 t-30.5 71.5zM188 1181q0 32 24 56q26 40 85.5 84.5t134.5 44.5q77 0 153 -59q2 -1 11 -8t13.5 -10t13.5 -9.5t15.5 -9.5t15.5 -7t17 -6t15 -2q48 0 98 64q26 37 68 37q33 0 57.5 -24t24.5 -57q0 -31 -23 -56q-23 -39 -83.5 -84t-136.5 -45q-71 0 -154 63q-59 47 -98 47 q-50 0 -96 -59q-26 -42 -72 -42q-34 0 -58.5 24t-24.5 58z" />
<glyph unicode="&#xf2;" d="M44 476q0 99 39 189.5t104.5 156t155.5 104.5t189 39q132 0 244.5 -65.5t178 -178.5t65.5 -245t-65.5 -244.5t-178 -178t-244.5 -65.5t-244.5 65.5t-178 178t-65.5 244.5zM249 476q0 -117 82.5 -200t200.5 -83q119 0 201.5 83t82.5 200q0 119 -82.5 201t-201.5 82 q-118 0 -200.5 -82.5t-82.5 -200.5zM273 1339q0 42 31 72t73 30q43 0 74 -31l136 -137q30 -30 30 -73q0 -41 -30.5 -72t-71.5 -31q-43 0 -73 30l-138 140q-31 31 -31 72z" />
<glyph unicode="&#xf3;" d="M44 476q0 99 39 189.5t104.5 156t155.5 104.5t189 39q132 0 244.5 -65.5t178 -178.5t65.5 -245t-65.5 -244.5t-178 -178t-244.5 -65.5t-244.5 65.5t-178 178t-65.5 244.5zM249 476q0 -117 82.5 -200t200.5 -83q119 0 201.5 83t82.5 200q0 119 -82.5 201t-201.5 82 q-118 0 -200.5 -82.5t-82.5 -200.5zM516 1199q0 42 31 73l136 137q31 31 74 31q42 0 72.5 -30t30.5 -72q0 -41 -31 -72l-138 -140q-30 -30 -73 -30q-41 0 -71.5 31t-30.5 72z" />
<glyph unicode="&#xf4;" d="M44 476q0 99 39 189.5t104.5 156t155.5 104.5t189 39q132 0 244.5 -65.5t178 -178.5t65.5 -245t-65.5 -244.5t-178 -178t-244.5 -65.5t-244.5 65.5t-178 178t-65.5 244.5zM230 1171q0 31 26 57l217 219q21 21 47 24q12 2 19 2q3 0 7 -2q24 -3 47 -24l217 -219 q26 -26 26 -57q0 -34 -26 -59.5t-60 -25.5q-32 0 -57 25l-161 161l-159 -161q-25 -25 -57 -25q-34 0 -60 25.5t-26 59.5zM249 476q0 -117 82.5 -200t200.5 -83q119 0 201.5 83t82.5 200q0 119 -82.5 201t-201.5 82q-118 0 -200.5 -82.5t-82.5 -200.5z" />
<glyph unicode="&#xf5;" d="M44 476q0 99 39 189.5t104.5 156t155.5 104.5t189 39q132 0 244.5 -65.5t178 -178.5t65.5 -245t-65.5 -244.5t-178 -178t-244.5 -65.5t-244.5 65.5t-178 178t-65.5 244.5zM168 1176q0 33 23 56q26 40 86 84.5t135 44.5q76 0 152 -59q70 -52 102 -52q48 0 98 64 q26 37 67 37q33 0 57.5 -24t24.5 -57q0 -34 -22 -57q-23 -39 -83.5 -84t-136.5 -45q-70 0 -155 64q-59 47 -97 47q-50 0 -96 -59q-26 -42 -72 -42q-34 0 -58.5 24t-24.5 58zM249 476q0 -117 82.5 -200t200.5 -83q119 0 201.5 83t82.5 200q0 119 -82.5 201t-201.5 82 q-118 0 -200.5 -82.5t-82.5 -200.5z" />
<glyph unicode="&#xf6;" d="M44 476q0 99 39 189.5t104.5 156t155.5 104.5t189 39q132 0 244.5 -65.5t178 -178.5t65.5 -245t-65.5 -244.5t-178 -178t-244.5 -65.5t-244.5 65.5t-178 178t-65.5 244.5zM230 1202q0 47 33.5 81t80.5 34q46 0 80.5 -34.5t34.5 -80.5q0 -47 -34 -80t-81 -33t-80.5 33 t-33.5 80zM249 476q0 -117 82.5 -200t200.5 -83q119 0 201.5 83t82.5 200q0 119 -82.5 201t-201.5 82q-118 0 -200.5 -82.5t-82.5 -200.5zM608 1202q0 46 34 80.5t80 34.5q48 0 81.5 -34t33.5 -81t-33 -80t-82 -33q-46 0 -80 33t-34 80z" />
<glyph unicode="&#xf7;" horiz-adv-x="822" d="M38 582q0 40 28 67.5t69 27.5h550q40 0 68.5 -28t28.5 -67q0 -40 -28 -68.5t-69 -28.5h-550q-40 0 -68.5 28.5t-28.5 68.5zM299 222q0 51 36 86.5t86 35.5t86 -35.5t36 -86.5q0 -50 -36 -85.5t-86 -35.5t-86 35.5t-36 85.5zM302 957q0 50 35.5 86t85.5 36q51 0 86.5 -36 t35.5 -86t-35.5 -85.5t-86.5 -35.5q-50 0 -85.5 35.5t-35.5 85.5z" />
<glyph unicode="&#xf8;" d="M44 476q0 99 39 189.5t104.5 156t155.5 104.5t189 39q100 0 187 -38l9 13q30 53 90 53q42 0 72 -29.5t30 -71.5q0 -27 -14 -52l-19 -29q133 -141 133 -335q0 -132 -65.5 -244.5t-178 -178t-244.5 -65.5q-91 0 -175 31l-21 -31q-14 -25 -39 -39.5t-52 -14.5 q-42 0 -71.5 30.5t-29.5 72.5q0 27 14 52l28 43q-67 67 -104.5 156t-37.5 188zM249 476q0 -95 55 -169l297 444q-37 8 -69 8q-118 0 -200.5 -82.5t-82.5 -200.5zM476 198q30 -5 56 -5q119 0 201.5 83t82.5 200q0 86 -48 158z" />
<glyph unicode="&#xf9;" horiz-adv-x="1058" d="M92 474v391q0 42 30.5 71.5t72.5 29.5q41 0 71 -29.5t30 -71.5v-393q1 -123 59.5 -196.5t159.5 -73.5q102 0 170.5 75.5t68.5 189.5v395q0 42 29.5 72t71.5 30q41 0 71.5 -30t30.5 -72v-762q0 -42 -30.5 -72t-73.5 -30q-42 0 -70.5 30t-28.5 72v15q-121 -116 -262 -116 q-178 0 -289 134t-111 341zM300 1334q0 42 30.5 72t72.5 30q43 0 74 -31l136 -137q31 -31 31 -73q0 -41 -30.5 -72t-71.5 -31q-43 0 -73 30l-138 140q-31 31 -31 72z" />
<glyph unicode="&#xfa;" horiz-adv-x="1058" d="M92 474v391q0 42 30.5 71.5t72.5 29.5q41 0 71 -29.5t30 -71.5v-393q1 -123 59.5 -196.5t159.5 -73.5q102 0 170.5 75.5t68.5 189.5v395q0 42 29.5 72t71.5 30q41 0 71.5 -30t30.5 -72v-762q0 -42 -30.5 -72t-73.5 -30q-42 0 -70.5 30t-28.5 72v15q-121 -116 -262 -116 q-178 0 -289 134t-111 341zM485 1177q0 41 31 72l136 137q31 31 74 31q42 0 72.5 -29.5t30.5 -71.5q0 -43 -30 -73l-139 -139q-31 -31 -72 -31t-72 31.5t-31 72.5z" />
<glyph unicode="&#xfb;" horiz-adv-x="1058" d="M92 474v391q0 42 30.5 71.5t72.5 29.5q41 0 71 -29.5t30 -71.5v-393q1 -123 59.5 -196.5t159.5 -73.5q102 0 170.5 75.5t68.5 189.5v395q0 42 29.5 72t71.5 30q41 0 71.5 -30t30.5 -72v-762q0 -42 -30.5 -72t-73.5 -30q-42 0 -70.5 30t-28.5 72v15q-121 -116 -262 -116 q-178 0 -289 134t-111 341zM248 1154q0 31 25 56l217 220q21 21 48 24q6 1 18 1q5 0 7 -1q24 -3 47 -24l217 -220q26 -26 26 -56q0 -34 -26 -59.5t-60 -25.5q-31 0 -56 25l-161 160l-160 -160q-25 -25 -56 -25q-34 0 -60 25.5t-26 59.5z" />
<glyph unicode="&#xfc;" horiz-adv-x="1058" d="M92 474v391q0 42 30.5 71.5t72.5 29.5q41 0 71 -29.5t30 -71.5v-393q1 -123 59.5 -196.5t159.5 -73.5q102 0 170.5 75.5t68.5 189.5v395q0 42 29.5 72t71.5 30q41 0 71.5 -30t30.5 -72v-762q0 -42 -30.5 -72t-73.5 -30q-42 0 -70.5 30t-28.5 72v15q-121 -116 -262 -116 q-178 0 -289 134t-111 341zM232 1194q0 47 33.5 81t80.5 34q46 0 80.5 -34.5t34.5 -80.5q0 -47 -34 -80.5t-81 -33.5t-80.5 33.5t-33.5 80.5zM610 1194q0 46 34 80.5t80 34.5q48 0 81.5 -34t33.5 -81q0 -48 -33.5 -81t-81.5 -33q-46 0 -80 33.5t-34 80.5z" />
<glyph unicode="&#xfd;" horiz-adv-x="939" d="M23 863q0 41 30 72t71 31q30 0 55 -17t38 -46l250 -566l254 566q13 28 38.5 45t54.5 17q41 0 71.5 -31t30.5 -72q0 -22 -9 -43l-510 -1118q-13 -29 -38.5 -45t-55.5 -16q-40 0 -67 26t-27 66q0 28 11 51l139 313l-327 724q-9 21 -9 43zM493 1183q0 42 30 72l136 138 q30 30 74 30q42 0 73 -29.5t31 -71.5t-31 -73l-138 -139q-31 -31 -73 -31q-41 0 -71.5 31.5t-30.5 72.5z" />
<glyph unicode="&#xfe;" horiz-adv-x="1177" d="M133 -208v1410q0 44 31 75.5t74 31.5q44 0 71.5 -31t27.5 -76v-330q131 93 285 93q99 0 189.5 -39t155.5 -104.5t103.5 -156t38.5 -189.5q0 -132 -65 -244.5t-177.5 -178t-244.5 -65.5q-158 0 -285 92v-288q0 -45 -27.5 -75t-71.5 -30q-43 0 -74 31t-31 74zM338 476 q0 -117 83 -200t201 -83q119 0 201 82.5t82 200.5q0 119 -82 201t-201 82q-118 0 -201 -82.5t-83 -200.5z" />
<glyph unicode="&#xff;" horiz-adv-x="939" d="M23 863q0 41 30 72t71 31q30 0 55 -17t38 -46l250 -566l254 566q13 28 38.5 45t54.5 17q41 0 71.5 -31t30.5 -72q0 -22 -9 -43l-510 -1118q-13 -29 -38.5 -45t-55.5 -16q-40 0 -67 26t-27 66q0 28 11 51l139 313l-327 724q-9 21 -9 43zM169 1194q0 47 33.5 81t80.5 34 q46 0 80 -34t34 -81t-33.5 -80.5t-80.5 -33.5t-80.5 33.5t-33.5 80.5zM547 1194q0 47 33.5 81t79.5 34q48 0 81.5 -34t33.5 -81q0 -48 -33.5 -81t-81.5 -33q-46 0 -79.5 33.5t-33.5 80.5z" />
<glyph unicode="&#x13f;" horiz-adv-x="878" d="M133 100v1109q0 43 29.5 72.5t71.5 29.5t72.5 -30t30.5 -72v-1006l425 -1q42 0 71.5 -30t29.5 -72q0 -41 -28.5 -70.5t-68.5 -29.5h-4h-540l-8 2q-35 7 -58 34t-23 64zM543 649q0 50 35.5 86t85.5 36q51 0 86 -35.5t35 -86.5t-35 -86.5t-86 -35.5q-50 0 -85.5 36 t-35.5 86z" />
<glyph unicode="&#x140;" horiz-adv-x="674" d="M102 100v1110q0 42 30.5 71.5t72.5 29.5t71.5 -29.5t29.5 -71.5v-1110q0 -42 -29.5 -71t-71.5 -29t-72.5 29t-30.5 71zM389 643q0 50 35.5 86t85.5 36q51 0 86.5 -36t35.5 -86t-35.5 -86t-86.5 -36q-50 0 -85.5 36t-35.5 86z" />
<glyph unicode="&#x152;" horiz-adv-x="2158" d="M44 653q0 136 52 259t140.5 212.5t212 142.5t259.5 53q137 0 260 -53t216 -147v88q0 43 29.5 73t72.5 30h547q42 0 71 -30t29 -73q0 -42 -29 -71.5t-71 -29.5h-445v-354h321h4q40 0 68.5 -30t28.5 -71q0 -42 -29.5 -70t-71.5 -28h-321v-351h445q42 0 71 -30.5t29 -72.5 q0 -41 -28 -70.5t-68 -29.5h-4h-555q-41 3 -67.5 31.5t-26.5 69.5v85q-92 -94 -215.5 -146t-260.5 -52q-136 0 -259.5 52.5t-212 141.5t-140.5 212t-52 259zM249 653q0 -127 61 -233t166.5 -167.5t232.5 -61.5q193 0 327 134.5t134 327.5q0 192 -134.5 326.5t-326.5 134.5 t-326 -134.5t-134 -326.5z" />
<glyph unicode="&#x153;" horiz-adv-x="1841" d="M44 476q0 99 39 189.5t104.5 156t155.5 104.5t189 39q116 0 217.5 -51t169.5 -140q69 89 170.5 140t217.5 51q131 0 243.5 -65t179 -176.5t67.5 -242.5q0 -43 -28 -70t-72 -27h-655q25 -88 98 -144t167 -56q115 0 183 73q35 26 68 26q53 0 82 -50q18 -26 18 -56 q0 -45 -39 -78q-116 -110 -312 -110q-117 0 -218 50.5t-170 138.5q-68 -89 -169 -139.5t-218 -50.5q-132 0 -244.5 65.5t-178 178t-65.5 244.5zM249 476q0 -117 82.5 -200t200.5 -83q119 0 201.5 83t82.5 200q0 119 -82.5 201t-201.5 82q-118 0 -200.5 -82.5t-82.5 -200.5z M1036 554h551q-22 95 -98.5 155.5t-178.5 60.5q-101 0 -177 -61.5t-97 -154.5z" />
<glyph unicode="&#x178;" horiz-adv-x="1100" d="M22 1203q0 43 30.5 74t73.5 31q49 0 75 -36l347 -527l345 529q29 35 75 35q41 0 72 -31t31 -71q0 -35 -25 -69l-396 -593v-445q0 -42 -30 -71t-72 -29t-72 29t-30 71v444l-400 593q-24 29 -24 66zM307 1497q0 47 33.5 81t80.5 34t81 -34t34 -81t-34 -80.5t-81 -33.5 t-80.5 33.5t-33.5 80.5zM685 1497q0 46 34 80.5t80 34.5q48 0 81 -34t33 -81q0 -48 -33 -81t-81 -33q-46 0 -80 33.5t-34 80.5z" />
<glyph unicode="&#x2c6;" horiz-adv-x="747" d="M50 1239q0 30 26 56l217 219q22 22 47 25q6 1 18 1q6 0 8 -1q23 -3 47 -25l217 -219q25 -25 25 -56q0 -34 -26 -59.5t-60 -25.5q-31 0 -56 25l-161 160l-159 -160q-25 -25 -57 -25q-34 0 -60 25.5t-26 59.5z" />
<glyph unicode="&#x2dc;" horiz-adv-x="825" d="M27 1207q0 34 23 57q26 40 85.5 84.5t134.5 44.5q76 0 153 -60q69 -51 101 -51q49 0 99 64q25 36 67 36q33 0 57.5 -23.5t24.5 -56.5q0 -34 -22 -57q-23 -39 -84 -84t-137 -45q-69 0 -154 64q-59 47 -97 47q-50 0 -97 -60q-26 -42 -71 -42q-34 0 -58.5 24t-24.5 58z" />
<glyph unicode="&#x2000;" horiz-adv-x="912" />
<glyph unicode="&#x2001;" horiz-adv-x="1825" />
<glyph unicode="&#x2002;" horiz-adv-x="912" />
<glyph unicode="&#x2003;" horiz-adv-x="1825" />
<glyph unicode="&#x2004;" horiz-adv-x="608" />
<glyph unicode="&#x2005;" horiz-adv-x="456" />
<glyph unicode="&#x2006;" horiz-adv-x="304" />
<glyph unicode="&#x2007;" horiz-adv-x="304" />
<glyph unicode="&#x2008;" horiz-adv-x="228" />
<glyph unicode="&#x2009;" horiz-adv-x="365" />
<glyph unicode="&#x200a;" horiz-adv-x="101" />
<glyph unicode="&#x2010;" horiz-adv-x="931" d="M68 593q0 43 30 73t73 30h577q43 0 73.5 -30.5t30.5 -72.5q0 -43 -30.5 -73t-73.5 -30h-577q-43 0 -73 30.5t-30 72.5z" />
<glyph unicode="&#x2011;" horiz-adv-x="931" d="M68 593q0 43 30 73t73 30h577q43 0 73.5 -30.5t30.5 -72.5q0 -43 -30.5 -73t-73.5 -30h-577q-43 0 -73 30.5t-30 72.5z" />
<glyph unicode="&#x2012;" horiz-adv-x="931" d="M68 593q0 43 30 73t73 30h577q43 0 73.5 -30.5t30.5 -72.5q0 -43 -30.5 -73t-73.5 -30h-577q-43 0 -73 30.5t-30 72.5z" />
<glyph unicode="&#x2013;" horiz-adv-x="931" d="M68 595q0 43 30 73t73 30h577q43 0 73.5 -30.5t30.5 -72.5t-30.5 -72t-73.5 -30h-577q-43 0 -73 30t-30 72z" />
<glyph unicode="&#x2014;" horiz-adv-x="1097" d="M70 597q0 43 30 73t73 30h759q43 0 73 -30.5t30 -72.5t-30 -72t-73 -30h-759q-43 0 -73 30t-30 72z" />
<glyph unicode="&#x2018;" horiz-adv-x="531" d="M89 944q0 26 14 51l150 258q29 51 87 51q40 0 71 -29.5t31 -70.5q0 -26 -14 -51l-149 -260q-26 -50 -89 -50q-41 0 -71 29.5t-30 71.5z" />
<glyph unicode="&#x2019;" horiz-adv-x="531" d="M77 949q0 26 14 51l150 258q30 52 87 52q41 0 71.5 -30t30.5 -70q0 -26 -14 -52l-150 -259q-28 -51 -89 -51q-41 0 -70.5 30t-29.5 71z" />
<glyph unicode="&#x201a;" horiz-adv-x="531" d="M89 -167q0 26 14 51l150 258q30 52 87 52q41 0 71.5 -30t30.5 -70q0 -26 -14 -52l-149 -259q-28 -51 -89 -51q-42 0 -71.5 29.5t-29.5 71.5z" />
<glyph unicode="&#x201c;" horiz-adv-x="920" d="M89 951q0 27 14 50l150 259q29 51 87 51q41 0 71.5 -30t30.5 -70q0 -26 -14 -52l-149 -259q-27 -50 -89 -50q-41 0 -71 29.5t-30 71.5zM478 952q0 26 14 49l150 259q28 51 87 51q40 0 71 -30.5t31 -70.5q0 -26 -14 -51l-149 -259q-29 -50 -88 -50q-41 0 -71.5 30 t-30.5 72z" />
<glyph unicode="&#x201d;" horiz-adv-x="920" d="M89 951q0 27 14 50l150 259q29 51 87 51q41 0 71.5 -30t30.5 -70q0 -26 -14 -52l-149 -259q-27 -50 -89 -50q-41 0 -71 29.5t-30 71.5zM478 952q0 26 14 49l150 259q28 51 87 51q40 0 71 -30.5t31 -70.5q0 -26 -14 -51l-149 -259q-29 -50 -88 -50q-41 0 -71.5 30 t-30.5 72z" />
<glyph unicode="&#x201e;" horiz-adv-x="920" d="M89 -166q0 27 14 50l150 258q30 52 87 52q41 0 71.5 -30t30.5 -70q0 -26 -14 -52l-149 -259q-27 -50 -89 -50q-41 0 -71 29.5t-30 71.5zM478 -165q0 26 14 49l150 258q28 52 87 52q40 0 71 -30.5t31 -70.5q0 -26 -14 -51l-149 -259q-29 -50 -88 -50q-41 0 -71.5 30 t-30.5 72z" />
<glyph unicode="&#x2022;" horiz-adv-x="473" d="M51 496q0 75 55 128t124 53q80 0 132 -56.5t52 -124.5q0 -74 -54.5 -127.5t-129.5 -53.5q-74 0 -126.5 53.5t-52.5 127.5z" />
<glyph unicode="&#x2026;" horiz-adv-x="1078" d="M85 110q0 50 36 85.5t86 35.5t86 -35.5t36 -85.5t-36 -86t-86 -36t-86 36t-36 86zM421 110q0 50 35.5 85.5t85.5 35.5q51 0 86.5 -35.5t35.5 -85.5t-35.5 -86t-86.5 -36q-50 0 -85.5 36t-35.5 86zM755 110q0 50 35.5 85.5t85.5 35.5q51 0 86 -35.5t35 -85.5 q0 -51 -35 -86.5t-86 -35.5q-50 0 -85.5 36t-35.5 86z" />
<glyph unicode="&#x202f;" horiz-adv-x="365" />
<glyph unicode="&#x2039;" horiz-adv-x="703" d="M39 483q0 25 11.5 49t31.5 35l371 367q31 31 72 31q42 0 73 -31t31 -73q0 -40 -31 -71l-312 -308l311 -309q31 -31 31 -72q0 -42 -31.5 -72.5t-73.5 -30.5q-41 0 -72 31l-381 382q-31 29 -31 72z" />
<glyph unicode="&#x203a;" horiz-adv-x="677" d="M43 862q0 42 30.5 72.5t72.5 30.5t73 -31l374 -370l9 -7q13 -13 21 -31l3 -6q6 -18 6 -37q0 -43 -30 -72l-382 -382q-31 -31 -73 -31t-72.5 30.5t-30.5 72.5q0 41 31 72l311 309l-313 308q-30 32 -30 72z" />
<glyph unicode="&#x205f;" horiz-adv-x="456" />
<glyph unicode="&#x20ac;" horiz-adv-x="1094" d="M35 505q0 25 17.5 42.5t44.5 17.5h57v157h-57q-27 0 -44.5 18t-17.5 44t17.5 44t44.5 18h58q15 200 164.5 336t353.5 136q111 0 204.5 -45.5t150.5 -124.5q23 -35 23 -72q0 -43 -31 -75t-74 -32q-51 0 -86 46q-48 51 -90.5 73t-113.5 22q-109 0 -195 -76.5t-101 -187.5 h184q26 0 44.5 -18.5t18.5 -44.5t-18.5 -43.5t-44.5 -17.5h-186v-157h186q26 0 44.5 -18t18.5 -44t-18.5 -44t-44.5 -18h-179q21 -105 103.5 -174.5t187.5 -69.5q71 0 113 22t91 74q34 46 84 46q42 0 74 -32.5t32 -74.5q0 -33 -23 -71q-59 -79 -151.5 -126t-202.5 -47 q-199 0 -346 129.5t-170 323.5h-60q-27 0 -44.5 18.5t-17.5 45.5z" />
<glyph unicode="&#x2122;" horiz-adv-x="1607" d="M57 1204q0 44 30.5 75t73.5 31l413 -2q43 0 74 -31t31 -74t-29 -73t-71 -30h-5h-88v-395q0 -43 -31 -73.5t-74 -30.5q-44 0 -75 30.5t-31 73.5v395h-114q-43 0 -73.5 30.5t-30.5 73.5zM762 703v500q0 43 30.5 73.5t73.5 30.5q52 0 83 -39l161 -148l161 148q13 17 36 28 t45 11q13 0 19 -2q38 -5 63 -34t25 -68v-500q0 -43 -31 -73t-74 -30q-44 0 -75 30t-31 73v263l-53 -48q-15 -16 -30 -26q-24 -15 -53 -15h-5q-48 0 -82 41l-53 48v-263q0 -43 -31 -73t-75 -30q-43 0 -73.5 30t-30.5 73z" />
<glyph unicode="&#x25fc;" horiz-adv-x="967" d="M0 0v968h968v-968h-968z" />
<glyph unicode="&#xf6fa;" horiz-adv-x="1593" d="M44 476q0 99 39 189.5t104.5 156t155.5 104.5t189 39q157 0 285 -93q2 20 11 36q12 25 34.5 40t50.5 15h530h3q39 0 66 -28.5t27 -68.5t-28 -67.5t-68 -27.5l-423 -1v-193h291q40 1 68.5 -26.5t28.5 -67.5q0 -39 -28.5 -66.5t-68.5 -27.5h-291v-195h419q40 0 68.5 -29 t28.5 -69t-27.5 -68.5t-66.5 -28.5h-3h-525q-29 0 -50 16q-37 22 -46 66q-128 -93 -286 -93q-132 0 -244.5 65.5t-178 178t-65.5 244.5zM249 476q0 -117 82.5 -200t200.5 -83q119 0 201.5 83t82.5 200q0 119 -82.5 201t-201.5 82q-118 0 -200.5 -82.5t-82.5 -200.5z" />
<glyph unicode="&#xf730;" d="M44 476q0 99 39 189.5t104.5 156t155.5 104.5t189 39q132 0 244.5 -65.5t178 -178.5t65.5 -245t-65.5 -244.5t-178 -178t-244.5 -65.5t-244.5 65.5t-178 178t-65.5 244.5zM249 476q0 -117 82.5 -200t200.5 -83q119 0 201.5 83t82.5 200q0 119 -82.5 201t-201.5 82 q-118 0 -200.5 -82.5t-82.5 -200.5z" />
<glyph unicode="&#xf731;" horiz-adv-x="476" d="M133 102v796q0 43 31 73t74 30q44 0 74.5 -30t30.5 -73v-796q0 -43 -30.5 -73t-74.5 -30q-43 0 -74 30t-31 73z" />
<glyph unicode="&#xf732;" horiz-adv-x="796" d="M38 97q0 35 19 62q2 5 10 13l371 372q4 4 20 21.5t19.5 22t15.5 19t15.5 19.5t12 18t10.5 20.5t6.5 19.5t5.5 23.5t1 24.5q0 50 -37.5 86.5t-98.5 36.5q-48 0 -85.5 -29t-51.5 -87q0 -4 -2 -10q-28 -69 -100 -69q-39 0 -64 23.5t-25 62.5q0 10 1 15v2q7 50 31.5 97.5 t64.5 87.5t100.5 64t131.5 24q152 0 249 -86.5t97 -208.5q0 -79 -27 -141t-81 -124l-272 -279h305q33 0 57.5 -32.5t24.5 -68.5t-24.5 -66t-57.5 -30h-565q-32 0 -54.5 28t-22.5 69z" />
<glyph unicode="&#xf733;" horiz-adv-x="974" d="M40 -16q0 41 30 68t71 27q63 0 92 -54l4 -7q34 -61 95 -98.5t133 -37.5q107 0 183.5 76t76.5 183q0 104 -74 162t-186 58h-87v1q-40 0 -69 32t-29 73q0 46 31 71l280 267h-397q-44 0 -74.5 26.5t-30.5 67.5q0 42 31 72.5t74 30.5h618q41 0 70 -30.5t29 -72.5 q0 -43 -30 -73l-299 -294q156 -30 252 -132.5t96 -258.5q0 -191 -136.5 -326.5t-328.5 -135.5q-130 0 -240 66.5t-169 177.5q-16 30 -16 61z" />
<glyph unicode="&#xf734;" horiz-adv-x="976" d="M45 101v4q0 31 16 56l498 754q30 50 86 50q45 0 75.5 -30.5t30.5 -75.5v-654h90q42 0 71.5 -30.5t29.5 -73.5q0 -42 -29.5 -71.5t-71.5 -29.5h-90v-169q0 -42 -29.5 -72t-71.5 -30q-43 0 -73 30t-30 72v169h-399q-43 0 -73 29.5t-30 71.5zM310 205h237v338z" />
<glyph unicode="&#xf735;" horiz-adv-x="970" d="M39 -46q0 42 29.5 71.5t71.5 29.5q31 0 56 -17t36 -45h1q29 -66 90.5 -107t134.5 -41q102 0 175 72.5t73 173.5q0 102 -73 175t-175 73q-58 0 -110 -26.5t-86 -71.5h-1q-29 -27 -66 -27q-43 0 -75 29t-32 72q0 10 1 14l50 549q4 27 23 48t46 30q22 9 40 9h494 q42 0 72.5 -31t30.5 -74q0 -42 -30 -70.5t-73 -28.5h-408l-23 -246q75 26 147 26q186 0 317.5 -132t131.5 -318q0 -185 -131.5 -316t-317.5 -131q-134 0 -244.5 72.5t-163.5 191.5q-11 22 -11 46z" />
<glyph unicode="&#xf736;" d="M44 476q0 150 85 275q0 1 0.5 1t0.5 1l299 511q31 54 92 54q42 0 72 -29t30 -71q0 -29 -17 -57l-125 -199q25 3 51 3q132 0 244.5 -65.5t178 -178.5t65.5 -245t-65.5 -244.5t-178 -178t-244.5 -65.5t-244.5 65.5t-178 178t-65.5 244.5zM249 476q0 -117 82.5 -200 t200.5 -83q119 0 201.5 83t82.5 200q0 119 -82.5 201t-201.5 82q-118 0 -200.5 -82.5t-82.5 -200.5z" />
<glyph unicode="&#xf737;" horiz-adv-x="957" d="M47 897q0 43 31 73t74 30h667q44 0 75 -30.5t31 -73.5q0 -36 -22 -65l-568 -1094q-28 -54 -92 -54q-42 0 -73.5 31t-31.5 74q0 25 14 50l492 953h-492q-43 0 -74 31.5t-31 74.5z" />
<glyph unicode="&#xf738;" horiz-adv-x="984" d="M44 444q0 113 52.5 210.5t142.5 159.5q-62 83 -62 187q0 130 93.5 223t223.5 93t222.5 -93t92.5 -223q0 -106 -64 -189q90 -62 142.5 -158.5t52.5 -209.5q0 -122 -60 -225t-163 -163t-224 -60q-187 0 -318 131t-131 317zM251 444q0 -100 70.5 -170t171.5 -70q99 0 169 70 t70 170q0 99 -70.5 170t-168.5 71q-100 0 -171 -71t-71 -170zM353 1001q0 -58 41 -98.5t100 -40.5q57 0 97.5 40.5t40.5 98.5q0 57 -40.5 98.5t-97.5 41.5q-59 0 -100 -41.5t-41 -98.5z" />
<glyph unicode="&#xf739;" d="M1 527q0 201 142.5 344.5t344.5 143.5q131 0 244 -65.5t179 -178t66 -244.5q0 -150 -86 -276l-300 -512q-29 -54 -92 -54q-42 0 -72 28.5t-30 70.5q0 28 18 57l125 200q-34 -2 -52 -2q-133 0 -245 65t-177 177.5t-65 245.5zM205 527q0 -119 82 -201t201 -82 q118 0 201 82.5t83 200.5q0 117 -83 200t-201 83q-119 0 -201 -82.5t-82 -200.5z" />
<glyph unicode="&#xf761;" horiz-adv-x="927" d="M22 99q0 19 8 40l340 763q11 29 37.5 46t57.5 17t56.5 -17t36.5 -46l339 -763q8 -21 8 -40q0 -43 -30 -73t-72 -30q-31 0 -56.5 17t-38.5 46l-48 120h-393l-47 -120q-12 -30 -37.5 -46.5t-56.5 -16.5q-42 0 -73 30.5t-31 72.5zM343 372h242l-121 309z" />
<glyph unicode="&#xf762;" horiz-adv-x="940" d="M133 99v764q0 43 29.5 72.5t70.5 29.5h332q116 0 200.5 -72.5t84.5 -193.5q0 -109 -95 -184q65 -36 103 -96t38 -133q0 -127 -87.5 -206.5t-219.5 -79.5h-356q-42 0 -71 29t-29 70zM337 196h257q53 0 85 29t32 76q0 49 -32.5 83t-84.5 34h-257v-222zM337 568h224 q42 0 73 27.5t31 75.5t-29.5 75.5t-74.5 27.5h-224v-206z" />
<glyph unicode="&#xf763;" horiz-adv-x="980" d="M44 492q0 128 70 238t185 172.5t245 62.5q101 0 196.5 -37t158.5 -102q37 -38 37 -84q0 -39 -31.5 -69.5t-70.5 -30.5q-25 0 -49 12q-3 1 -62 43q-47 35 -88.5 49t-96.5 14q-119 0 -204 -82t-85 -202q0 -115 83 -198.5t206 -83.5q101 0 185 61q59 42 62 43q24 12 48 12 q40 0 71.5 -30.5t31.5 -70.5q0 -46 -37 -83q-65 -65 -159.5 -101.5t-195.5 -36.5q-212 0 -356 143.5t-144 360.5z" />
<glyph unicode="&#xf764;" horiz-adv-x="1055" d="M133 102v788q0 43 31 73t74 30h256q112 0 209.5 -40t164.5 -107.5t105.5 -156.5t38.5 -185q0 -216 -145.5 -360.5t-371.5 -143.5h-258q-42 0 -73 30t-31 72zM338 211h176q139 0 216 86t77 207q0 119 -86.5 203.5t-210.5 84.5h-172v-581z" />
<glyph unicode="&#xf765;" horiz-adv-x="898" d="M133 103v757q0 28 12 49q12 25 34.5 40t50.5 15h530h3q39 0 66 -28.5t27 -68.5t-28 -67.5t-68 -27.5l-423 -1v-193h291q40 1 68.5 -26.5t28.5 -67.5q0 -39 -28.5 -66.5t-68.5 -27.5h-291v-195h419q40 0 68.5 -29t28.5 -69t-27.5 -68.5t-66.5 -28.5h-3h-525q-29 0 -50 16 q-48 30 -48 87z" />
<glyph unicode="&#xf766;" horiz-adv-x="876" d="M133 102v760q0 25 11 47q18 37 60 49q18 6 29 7h497q42 0 72.5 -30.5t30.5 -72.5t-30.5 -71.5t-72.5 -29.5h-393v-233h251q41 0 69.5 -28t28.5 -68q0 -41 -28.5 -69.5t-69.5 -28.5h-251v-232q0 -43 -29 -72.5t-71 -29.5t-73 30t-31 72z" />
<glyph unicode="&#xf767;" horiz-adv-x="980" d="M44 492q0 128 70 238t185 172.5t245 62.5q101 0 196.5 -37t158.5 -102q37 -38 37 -83q0 -40 -30 -69.5t-70 -29.5q-26 0 -50 12q-20 11 -63 41q-47 35 -88.5 49t-96.5 14q-119 0 -204 -82t-85 -202q0 -115 84 -202t206 -87q117 0 192 60q2 1 4.5 3.5t5 4.5t5.5 4v65h-91 q-43 0 -72.5 25.5t-29.5 66.5t29.5 67.5t72.5 26.5h178q42 0 68.5 -28.5t27.5 -70.5v-197q0 -27 -11 -51q-9 -19 -27 -37q-69 -65 -160 -101.5t-187 -36.5q-212 0 -356 143.5t-144 360.5z" />
<glyph unicode="&#xf768;" horiz-adv-x="1114" d="M133 103v756q0 43 31.5 74.5t75.5 31.5q42 0 69.5 -31t27.5 -75v-267h439v267q0 44 28.5 75t71.5 31t74 -31t31 -75v-756q0 -43 -31 -73t-74 -30t-71.5 29.5t-28.5 73.5v279h-439v-279q0 -44 -28 -73.5t-71 -29.5t-74 30t-31 73z" />
<glyph unicode="&#xf769;" horiz-adv-x="470" d="M133 103v758q0 44 28.5 74t71.5 30t73.5 -30.5t30.5 -73.5v-758q0 -43 -31 -73t-75 -30q-42 0 -70 29.5t-28 73.5z" />
<glyph unicode="&#xf76a;" horiz-adv-x="470" d="M-211 -230q0 43 30.5 73.5t72.5 30.5q100 0 169.5 70t71.5 169v746q0 43 31 74.5t74 31.5t71 -31t28 -75v-750q-3 -186 -132 -315t-313 -129q-42 0 -72.5 31t-30.5 74z" />
<glyph unicode="&#xf76b;" horiz-adv-x="972" d="M133 102v760q0 42 31 72.5t73 30.5t71 -30.5t29 -72.5v-256l382 358q29 28 71 28t72 -29.5t30 -71.5q0 -45 -34 -76l-298 -279l344 -364q29 -29 29 -71t-30 -72t-73 -30q-42 0 -74 33l-344 364l-75 -70v-224q0 -43 -29 -72.5t-71 -29.5q-44 0 -74 29.5t-30 72.5z" />
<glyph unicode="&#xf76c;" horiz-adv-x="864" d="M133 103v756q0 43 31 74t74 31t71 -30.5t28 -74.5v-656h384q44 0 74 -28.5t30 -71.5t-29 -73t-71 -30h-4h-488q-42 2 -71 31.5t-29 71.5z" />
<glyph unicode="&#xf76d;" horiz-adv-x="1281" d="M78 109q0 6 2 18l111 746q8 44 42 67q31 26 67 26q30 0 55 -17t38 -46l251 -571l249 571q12 28 37.5 45t55.5 17q41 0 70 -29q29 -23 37 -62l112 -748q2 -12 2 -20q0 -42 -31 -72.5t-73 -30.5q-37 0 -64 24t-33 62l-65 424l-203 -452q-10 -21 -27 -36q-14 -11 -25 -16 q-4 -2 -5 -2q-12 -5 -30 -7h-5q-26 0 -44 9q-16 7 -31 22t-21 30l-206 456l-63 -426q-7 -38 -34 -63t-64 -25q-43 0 -74 31.5t-31 74.5z" />
<glyph unicode="&#xf76e;" horiz-adv-x="1118" d="M133 104v756q0 43 31 74t74 31q24 0 47 -14q22 -10 36 -27l460 -555v490q0 44 28.5 75t72.5 31q43 0 73 -31t30 -75v-755q0 -43 -31 -73.5t-74 -30.5q-27 0 -47 11q-23 11 -37 30l-467 561v-498q0 -44 -25 -74t-67 -30q-43 0 -73.5 30.5t-30.5 73.5z" />
<glyph unicode="&#xf770;" horiz-adv-x="948" d="M133 102v757q0 43 31 74.5t74 31.5h299q153 0 260 -108.5t107 -261.5q0 -150 -106 -247.5t-262 -97.5h-199v-148q0 -43 -28 -73.5t-71 -30.5t-74 30.5t-31 73.5zM337 450h194q72 0 120.5 43.5t48.5 109.5t-49 114.5t-119 48.5h-195v-316z" />
<glyph unicode="&#xf771;" d="M44 476q0 99 39 189.5t104.5 156t155.5 104.5t189 39q132 0 244.5 -65.5t178 -178.5t65.5 -245q0 -114 -48 -212.5t-133 -167.5q2 -34 27 -57.5t59 -23.5q36 0 61.5 -25t25.5 -62t-25.5 -62.5t-61.5 -25.5q-87 0 -157.5 46t-102.5 120q-69 -18 -133 -18 q-132 0 -244.5 65.5t-178 178t-65.5 244.5zM249 476q0 -102 64 -180q31 59 91 94.5t132 35.5q70 0 129 -34t91 -91q60 76 60 175q0 119 -82.5 201t-201.5 82q-118 0 -200.5 -82.5t-82.5 -200.5zM454 204q41 -11 78 -11q44 0 83 12q-4 29 -26 49t-53 20t-54.5 -20t-27.5 -50z " />
<glyph unicode="&#xf772;" horiz-adv-x="932" d="M133 102q0 -43 31 -73.5t74 -30.5t71 30.5t28 73.5v152h115l213 -227q31 -31 72 -31t72 30t31 71q0 43 -31 74l-114 121q89 42 141.5 121.5t52.5 181.5q0 153 -108 261.5t-261 108.5h-282v-1q-43 0 -74 -31t-31 -74v-757zM337 454v311h180q69 0 118.5 -49.5t49.5 -114.5 q0 -63 -48.5 -105t-120.5 -42h-179z" />
<glyph unicode="&#xf773;" horiz-adv-x="821" d="M56 218q0 39 28 64.5t66 25.5q52 0 92 -48q34 -48 75 -70t104 -22q60 0 103.5 27.5t43.5 74.5q0 23 -12 42t-25.5 30t-41.5 23t-42 16.5t-45 13.5q-57 20 -97 36.5t-86 43t-74 54.5t-46.5 68.5t-18.5 87.5q0 83 48 148.5t124.5 99.5t164.5 34q93 0 179 -36.5t119 -101.5 q11 -24 11 -44q0 -35 -27 -61t-62 -26q-16 0 -34 8q-8 6 -27 20t-27 19.5t-25 15.5t-29 14.5t-29 8t-35 3.5q-66 0 -106 -24t-40 -72q0 -46 42 -71.5t132 -53.5q72 -22 118.5 -42.5t94 -53.5t71 -80.5t23.5 -110.5q0 -123 -98 -206.5t-246 -83.5q-107 0 -205.5 43.5 t-144.5 129.5q-16 29 -16 56z" />
<glyph unicode="&#xf774;" horiz-adv-x="1007" d="M22 859q0 44 30 75t73 31h757q43 0 74 -31t31 -75q0 -43 -30.5 -71t-74.5 -28h-273v-657q0 -43 -30.5 -73t-73.5 -30t-71 29.5t-28 73.5v657l-281 1q-44 0 -73.5 28t-29.5 70z" />
<glyph unicode="&#xf775;" horiz-adv-x="1097" d="M89 432v429q0 43 31 73.5t75 30.5q42 0 70 -30t28 -74v-420q1 -104 76 -177.5t180 -73.5q106 0 180 74t76 179v418q0 44 28 74.5t71 30.5t74 -31t31 -74v-424q0 -1 -0.5 -4t-0.5 -5q-7 -183 -140 -311.5t-319 -128.5q-184 0 -316 125t-143 306q-1 4 -1 13z" />
<glyph unicode="&#xf776;" horiz-adv-x="948" d="M22 861q0 43 30.5 73.5t73.5 30.5q30 0 55.5 -17.5t38.5 -46.5l254 -575l254 575q13 29 39 46.5t56 17.5q42 0 72.5 -31t30.5 -73q0 -19 -8 -40l-348 -759q-14 -33 -48 -52l-7 -3q-10 -4 -20 -6q-4 -1 -13 -1h-8q-32 0 -58 16.5t-38 45.5l-348 759q-8 21 -8 40z" />
<glyph unicode="&#xf777;" horiz-adv-x="1355" d="M24 862q0 42 30 73t71 31q30 0 55 -17t38 -46l253 -571l98 223l-119 265q-11 22 -11 43q0 42 30.5 72.5t71.5 30.5q30 0 55 -17t38 -46l44 -101l45 101q12 28 37.5 45t55.5 17q41 0 72 -30.5t31 -71.5q0 -18 -11 -44l-120 -265l99 -222l252 571q12 28 37.5 45t55.5 17 q41 0 71.5 -31t30.5 -72q0 -22 -9 -43l-344 -758q-13 -25 -33 -41q-12 -8 -18 -11q-16 -7 -35 -9h-5q-26 0 -44 9q-16 7 -31 22t-21 30l-115 252l-114 -252q-6 -13 -19 -28q-11 -13 -32 -24q-16 -7 -35 -9h-15q-19 2 -35 9q-18 7 -32 23q-11 11 -19 29l-345 759q-9 20 -9 42 z" />
<glyph unicode="&#xf778;" horiz-adv-x="969" d="M23 100q0 41 26 70l296 330l-264 293q-27 29 -27 69q0 42 31 72.5t73 30.5q46 0 76 -34l250 -278l250 279q30 33 77 33q43 0 73 -30t30 -73q0 -39 -26 -68l-265 -294l298 -330q26 -31 26 -70q0 -42 -29.5 -72t-71.5 -30q-48 0 -78 35l-284 313l-282 -313q-30 -35 -78 -35 q-42 0 -71.5 30t-29.5 72z" />
<glyph unicode="&#xf779;" horiz-adv-x="893" d="M22 859q0 42 30.5 74t71.5 32q50 0 86 -45l235 -311l239 312q30 44 85 44q42 0 72.5 -32t30.5 -74q0 -32 -20 -58l-308 -385v-314q0 -43 -30 -72.5t-72 -29.5q-43 0 -73 29.5t-30 72.5v324l-297 375q-20 24 -20 58z" />
<glyph unicode="&#xf77a;" horiz-adv-x="951" d="M44 104q0 38 26 70l500 585h-422q-43 0 -73 30.5t-30 72.5t30 72.5t73 30.5h648q44 0 74 -30.5t30 -72.5q0 -28 -12 -49q-5 -11 -15 -22l-500 -586h431q43 0 73 -29.5t30 -72.5q0 -42 -30 -72.5t-73 -30.5h-656q-43 0 -73.5 30.5t-30.5 73.5z" />
<glyph unicode="&#xf7e0;" horiz-adv-x="927" d="M22 99q0 19 8 40l340 763q11 29 37.5 46t57.5 17t56.5 -17t36.5 -46l339 -763q8 -21 8 -40q0 -43 -30 -73t-72 -30q-31 0 -56.5 17t-38.5 46l-48 120h-393l-47 -120q-12 -30 -37.5 -46.5t-56.5 -16.5q-42 0 -73 30.5t-31 72.5zM197 1346q0 42 30.5 71.5t72.5 29.5 q43 0 74 -31l136 -137q31 -31 31 -73q0 -41 -31 -72t-72 -31t-72 31l-139 139q-30 30 -30 73zM343 372h242l-121 309z" />
<glyph unicode="&#xf7e1;" horiz-adv-x="927" d="M22 99q0 19 8 40l340 763q11 29 37.5 46t57.5 17t56.5 -17t36.5 -46l339 -763q8 -21 8 -40q0 -43 -30 -73t-72 -30q-31 0 -56.5 17t-38.5 46l-48 120h-393l-47 -120q-12 -30 -37.5 -46.5t-56.5 -16.5q-42 0 -73 30.5t-31 72.5zM343 372h242l-121 309zM400 1197 q0 42 31 73l136 137q31 31 74 31q42 0 72.5 -30t30.5 -72t-30 -72l-139 -140q-30 -30 -72 -30q-41 0 -72 31t-31 72z" />
<glyph unicode="&#xf7e2;" horiz-adv-x="927" d="M22 99q0 19 8 40l340 763q11 29 37.5 46t57.5 17t56.5 -17t36.5 -46l339 -763q8 -21 8 -40q0 -43 -30 -73t-72 -30q-31 0 -56.5 17t-38.5 46l-48 120h-393l-47 -120q-12 -30 -37.5 -46.5t-56.5 -16.5q-42 0 -73 30.5t-31 72.5zM167 1178q0 30 26 56l217 219q22 22 47 25 q6 1 18 1q5 0 7 -1q23 -3 47 -25l217 -219q26 -26 26 -56q0 -34 -26 -59.5t-60 -25.5q-32 0 -56 24l-161 161l-160 -161q-24 -24 -56 -24q-34 0 -60 25.5t-26 59.5zM343 372h242l-121 309z" />
<glyph unicode="&#xf7e3;" horiz-adv-x="927" d="M22 99q0 19 8 40l340 763q11 29 37.5 46t57.5 17t56.5 -17t36.5 -46l339 -763q8 -21 8 -40q0 -43 -30 -73t-72 -30q-31 0 -56.5 17t-38.5 46l-48 120h-393l-47 -120q-12 -30 -37.5 -46.5t-56.5 -16.5q-42 0 -73 30.5t-31 72.5zM77 1192q0 33 23 56q26 40 86 84.5 t135 44.5q76 0 152 -59q69 -51 101 -51q50 0 99 63q26 37 67 37q33 0 57.5 -24t24.5 -57t-22 -56q-23 -39 -83.5 -84t-136.5 -45q-72 0 -155 63q-59 47 -97 47q-51 0 -97 -59q-26 -42 -71 -42q-34 0 -58.5 24t-24.5 58zM343 372h242l-121 309z" />
<glyph unicode="&#xf7e4;" horiz-adv-x="927" d="M22 99q0 19 8 40l340 763q11 29 37.5 46t57.5 17t56.5 -17t36.5 -46l339 -763q8 -21 8 -40q0 -43 -30 -73t-72 -30q-31 0 -56.5 17t-38.5 46l-48 120h-393l-47 -120q-12 -30 -37.5 -46.5t-56.5 -16.5q-42 0 -73 30.5t-31 72.5zM160 1214q0 47 33 81t80 34t81 -34.5 t34 -80.5q0 -47 -34 -80t-81 -33t-80 33t-33 80zM343 372h242l-121 309zM538 1214q0 47 33.5 81t79.5 34q48 0 81.5 -34t33.5 -81t-33 -80t-82 -33q-46 0 -79.5 33t-33.5 80z" />
<glyph unicode="&#xf7e5;" horiz-adv-x="927" d="M22 99q0 19 8 40l340 763q11 29 37.5 46t57.5 17t56.5 -17t36.5 -46l339 -763q8 -21 8 -40q0 -43 -30 -73t-72 -30q-31 0 -56.5 17t-38.5 46l-48 120h-393l-47 -120q-12 -30 -37.5 -46.5t-56.5 -16.5q-42 0 -73 30.5t-31 72.5zM248 1264q0 92 64 155.5t155 63.5 q92 0 156 -63.5t64 -155.5q0 -91 -64 -156.5t-156 -65.5q-90 0 -154.5 66t-64.5 156zM343 372h242l-121 309zM389 1264q0 -32 23 -55.5t56 -23.5t56 23.5t23 55.5q0 33 -23 56t-56 23t-56 -23t-23 -56z" />
<glyph unicode="&#xf7e6;" horiz-adv-x="1447" d="M22 103q0 35 19 61l640 795q25 37 73 42q2 0 6 0.5t7 0.5h547q40 0 68 -28t28 -68t-28 -68t-68 -28l-402 -1v-236h244h3q39 0 66.5 -28t27.5 -67q0 -40 -28.5 -68.5t-68.5 -28.5h-244v-186h398q40 0 68.5 -29t28.5 -69t-27.5 -68.5t-66.5 -28.5h-3h-509q-29 0 -50 16 q-49 30 -49 87v75h-391l-102 -135q-33 -44 -86 -44q-42 0 -71.5 31t-29.5 73zM467 384h235v310z" />
<glyph unicode="&#xf7e7;" horiz-adv-x="980" d="M44 492q0 128 70 238t185 172.5t245 62.5q101 0 196.5 -37t158.5 -102q37 -38 37 -84q0 -39 -31.5 -69.5t-70.5 -30.5q-25 0 -49 12q-3 1 -62 43q-47 35 -88.5 49t-96.5 14q-119 0 -204 -82t-85 -202q0 -115 83 -198.5t206 -83.5q101 0 185 61q59 42 62 43q24 12 48 12 q40 0 71.5 -30.5t31.5 -70.5q0 -46 -37 -83q-112 -113 -290 -134v-71q77 -12 127.5 -73.5t50.5 -144.5q0 -91 -64.5 -155t-156.5 -64q-91 0 -155.5 64t-64.5 155q0 29 19.5 48.5t47.5 19.5q26 0 44 -19t19 -47q0 -37 27 -64.5t65 -27.5t64.5 27t26.5 65q0 41 -28.5 66.5 t-79.5 25.5q-73 0 -73 53v142q-189 23 -311.5 162t-122.5 338z" />
<glyph unicode="&#xf7e8;" horiz-adv-x="898" d="M133 103v757q0 28 12 49q12 25 34.5 40t50.5 15h530h3q39 0 66 -28.5t27 -68.5t-28 -67.5t-68 -27.5l-423 -1v-193h291q40 1 68.5 -26.5t28.5 -67.5q0 -39 -28.5 -66.5t-68.5 -27.5h-291v-195h419q40 0 68.5 -29t28.5 -69t-27.5 -68.5t-66.5 -28.5h-3h-525q-29 0 -50 16 q-48 30 -48 87zM239 1342q0 42 30.5 72t72.5 30q43 0 74 -31l136 -137q31 -31 31 -73q0 -41 -31 -72t-72 -31q-42 0 -72 30l-139 140q-30 30 -30 72z" />
<glyph unicode="&#xf7e9;" horiz-adv-x="898" d="M133 103v757q0 28 12 49q12 25 34.5 40t50.5 15h530h3q39 0 66 -28.5t27 -68.5t-28 -67.5t-68 -27.5l-423 -1v-193h291q40 1 68.5 -26.5t28.5 -67.5q0 -39 -28.5 -66.5t-68.5 -27.5h-291v-195h419q40 0 68.5 -29t28.5 -69t-27.5 -68.5t-66.5 -28.5h-3h-525q-29 0 -50 16 q-48 30 -48 87zM420 1204q0 42 31 73l136 137q31 31 73 31t73 -30t31 -72q0 -41 -31 -72l-138 -139q-31 -31 -73 -31q-41 0 -71.5 31t-30.5 72z" />
<glyph unicode="&#xf7ea;" horiz-adv-x="898" d="M133 103v757q0 28 12 49q12 25 34.5 40t50.5 15h530h3q39 0 66 -28.5t27 -68.5t-28 -67.5t-68 -27.5l-423 -1v-193h291q40 1 68.5 -26.5t28.5 -67.5q0 -39 -28.5 -66.5t-68.5 -27.5h-291v-195h419q40 0 68.5 -29t28.5 -69t-27.5 -68.5t-66.5 -28.5h-3h-525q-29 0 -50 16 q-48 30 -48 87zM199 1180q0 31 25 56l217 219q22 22 47 25q6 1 19 1q5 0 7 -1q23 -3 47 -25l217 -219q26 -26 26 -56q0 -34 -26 -59.5t-60 -25.5q-32 0 -56 24l-161 161l-160 -161q-24 -24 -56 -24q-34 0 -60 25.5t-26 59.5z" />
<glyph unicode="&#xf7eb;" horiz-adv-x="898" d="M133 103v757q0 28 12 49q12 25 34.5 40t50.5 15h530h3q39 0 66 -28.5t27 -68.5t-28 -67.5t-68 -27.5l-423 -1v-193h291q40 1 68.5 -26.5t28.5 -67.5q0 -39 -28.5 -66.5t-68.5 -27.5h-291v-195h419q40 0 68.5 -29t28.5 -69t-27.5 -68.5t-66.5 -28.5h-3h-525q-29 0 -50 16 q-48 30 -48 87zM196 1205q0 47 33 81t80 34t81 -34t34 -81t-34 -80t-81 -33t-80 33t-33 80zM573 1205q0 46 34 80.5t80 34.5q48 0 81.5 -34t33.5 -81t-33 -80t-82 -33q-46 0 -80 33t-34 80z" />
<glyph unicode="&#xf7f1;" horiz-adv-x="1118" d="M133 104v756q0 43 31 74t74 31q24 0 47 -14q22 -10 36 -27l460 -555v490q0 44 28.5 75t72.5 31q43 0 73 -31t30 -75v-755q0 -43 -31 -73.5t-74 -30.5q-27 0 -47 11q-23 11 -37 30l-467 561v-498q0 -44 -25 -74t-67 -30q-43 0 -73.5 30.5t-30.5 73.5zM188 1198q0 32 24 56 q26 40 85.5 84.5t134.5 44.5q77 0 153 -59q69 -51 101 -51q49 0 98 63q26 37 68 37q33 0 57.5 -24t24.5 -57q0 -31 -23 -56q-23 -39 -83.5 -84t-136.5 -45q-71 0 -154 63q-60 48 -98 48q-49 0 -96 -60q-26 -42 -72 -42q-34 0 -58.5 24t-24.5 58z" />
<glyph unicode="&#xf7f9;" horiz-adv-x="1097" d="M89 432v429q0 43 31 73.5t75 30.5q42 0 70 -30t28 -74v-420q1 -104 76 -177.5t180 -73.5q106 0 180 74t76 179v418q0 44 28 74.5t71 30.5t74 -31t31 -74v-424q0 -1 -0.5 -4t-0.5 -5q-7 -183 -140 -311.5t-319 -128.5q-184 0 -316 125t-143 306q-1 4 -1 13zM296 1333 q0 42 30.5 72t72.5 30q43 0 74 -31l136 -137q31 -31 31 -73q0 -41 -30.5 -72t-71.5 -31q-43 0 -73 30l-138 140q-31 31 -31 72z" />
<glyph unicode="&#xf7fa;" horiz-adv-x="1097" d="M89 432v429q0 43 31 73.5t75 30.5q42 0 70 -30t28 -74v-420q1 -104 76 -177.5t180 -73.5q106 0 180 74t76 179v418q0 44 28 74.5t71 30.5t74 -31t31 -74v-424q0 -1 -0.5 -4t-0.5 -5q-7 -183 -140 -311.5t-319 -128.5q-184 0 -316 125t-143 306q-1 4 -1 13zM456 1191 q0 43 30 73l137 137q31 31 73 31t73 -30t31 -72t-31 -73l-138 -139q-31 -31 -73 -31q-41 0 -71.5 31.5t-30.5 72.5z" />
<glyph unicode="&#xf7fb;" horiz-adv-x="1097" d="M89 432v429q0 43 31 73.5t75 30.5q42 0 70 -30t28 -74v-420q1 -104 76 -177.5t180 -73.5q106 0 180 74t76 179v418q0 44 28 74.5t71 30.5t74 -31t31 -74v-424q0 -1 -0.5 -4t-0.5 -5q-7 -183 -140 -311.5t-319 -128.5q-184 0 -316 125t-143 306q-1 4 -1 13zM258 1169 q0 31 26 57l217 219q21 21 47 24q6 1 18 1q5 0 7 -1q26 -3 48 -24l217 -219q25 -25 25 -57q0 -34 -26 -59.5t-60 -25.5q-31 0 -56 25l-161 161l-160 -161q-25 -25 -56 -25q-34 0 -60 25.5t-26 59.5z" />
<glyph unicode="&#xf7fc;" horiz-adv-x="1097" d="M89 432v429q0 43 31 73.5t75 30.5q42 0 70 -30t28 -74v-420q1 -104 76 -177.5t180 -73.5q106 0 180 74t76 179v418q0 44 28 74.5t71 30.5t74 -31t31 -74v-424q0 -1 -0.5 -4t-0.5 -5q-7 -183 -140 -311.5t-319 -128.5q-184 0 -316 125t-143 306q-1 4 -1 13zM254 1200 q0 47 33.5 81t80.5 34q46 0 80 -34t34 -81t-33.5 -80.5t-80.5 -33.5t-80.5 33.5t-33.5 80.5zM632 1200q0 47 33.5 81t79.5 34q48 0 81.5 -34t33.5 -81q0 -48 -33 -81t-82 -33q-46 0 -79.5 33.5t-33.5 80.5z" />
<glyph unicode="&#xf7fd;" horiz-adv-x="893" d="M22 859q0 42 30.5 74t71.5 32q50 0 86 -45l235 -311l239 312q30 44 85 44q42 0 72.5 -32t30.5 -74q0 -32 -20 -58l-308 -385v-314q0 -43 -30 -72.5t-72 -29.5q-43 0 -73 29.5t-30 72.5v324l-297 375q-20 24 -20 58zM376 1190q0 42 31 73l136 137q31 31 73 31t73 -30 t31 -72t-31 -73l-138 -139q-31 -31 -73 -31q-41 0 -71.5 31.5t-30.5 72.5z" />
<glyph unicode="&#xf7ff;" horiz-adv-x="893" d="M22 859q0 42 30.5 74t71.5 32q50 0 86 -45l235 -311l239 312q30 44 85 44q42 0 72.5 -32t30.5 -74q0 -32 -20 -58l-308 -385v-314q0 -43 -30 -72.5t-72 -29.5q-43 0 -73 29.5t-30 72.5v324l-297 375q-20 24 -20 58zM138 1202q0 47 33.5 81t80.5 34q46 0 80.5 -34.5 t34.5 -80.5q0 -47 -34 -80t-81 -33t-80.5 33t-33.5 80zM516 1202q0 46 34 80.5t80 34.5q48 0 81 -34t33 -81q0 -48 -33 -80.5t-81 -32.5q-46 0 -80 33t-34 80z" />
</font>
</defs>
</svg>
